<?xml version="1.0" encoding="UTF-8"?>
<svg width="655px" height="465px" viewBox="0 0 655 465" version="1.1" xmlns="http://www.w3.org/2000/svg" xmlns:xlink="http://www.w3.org/1999/xlink">
    <!-- Generator: Sketch 54.1 (76490) - https://sketchapp.com -->
    <title>data_deletion_1_day</title>
    <desc>Created with Sketch.</desc>
    <defs>
        <path d="M9,0 L480,0 C484.970563,-9.13077564e-16 489,4.02943725 489,9 L489,312 C489,316.970563 484.970563,321 480,321 L9,321 C4.02943725,321 6.08718376e-16,316.970563 0,312 L0,9 C-6.08718376e-16,4.02943725 4.02943725,9.13077564e-16 9,0 Z" id="path-1"></path>
        <filter x="-13.8%" y="-21.0%" width="127.6%" height="142.1%" filterUnits="objectBoundingBox" id="filter-2">
            <feOffset dx="0" dy="0" in="SourceAlpha" result="shadowOffsetOuter1"></feOffset>
            <feGaussianBlur stdDeviation="22.5" in="shadowOffsetOuter1" result="shadowBlurOuter1"></feGaussianBlur>
            <feColorMatrix values="0 0 0 0 0   0 0 0 0 0   0 0 0 0 0  0 0 0 0.1 0" type="matrix" in="shadowBlurOuter1"></feColorMatrix>
        </filter>
        <path d="M28.165175,26.296875 C28.2016335,26.9479199 28.3552778,27.4765605 28.6261125,27.8828125 C29.1417401,28.643233 30.0505852,29.0234375 31.352675,29.0234375 C31.9360112,29.0234375 32.4672559,28.940105 32.946425,28.7734375 C33.873513,28.4505192 34.33705,27.8724 34.33705,27.0390625 C34.33705,26.4140594 34.1417395,25.9687513 33.7511125,25.703125 C33.3552772,25.442707 32.7354917,25.2161468 31.8917375,25.0234375 L30.33705,24.671875 C29.3214199,24.4427072 28.6026771,24.1901055 28.1808,23.9140625 C27.4516297,23.4348934 27.08705,22.7187548 27.08705,21.765625 C27.08705,20.7343698 27.4438173,19.8880241 28.1573625,19.2265625 C28.8709077,18.5651009 29.8813143,18.234375 31.1886125,18.234375 C32.3917435,18.234375 33.4138687,18.5247367 34.2550188,19.1054688 C35.0961688,19.6862008 35.5167375,20.614577 35.5167375,21.890625 L34.0558,21.890625 C33.9776746,21.2760386 33.8110096,20.8046891 33.5558,20.4765625 C33.0818393,19.8776012 32.2771598,19.578125 31.1417375,19.578125 C30.2250663,19.578125 29.5662187,19.7708314 29.165175,20.15625 C28.7641313,20.5416686 28.5636125,20.9895808 28.5636125,21.5 C28.5636125,22.0625028 28.7979852,22.473957 29.2667375,22.734375 C29.5740307,22.9010425 30.2693363,23.1093737 31.352675,23.359375 L32.96205,23.7265625 C33.7380955,23.9036467 34.3370479,24.1458318 34.758925,24.453125 C35.4880953,24.989586 35.852675,25.7682241 35.852675,26.7890625 C35.852675,28.0599022 35.39044,28.9687473 34.4659563,29.515625 C33.5414725,30.0625027 32.4672645,30.3359375 31.2433,30.3359375 C29.8162095,30.3359375 28.6990332,29.9713578 27.8917375,29.2421875 C27.0844418,28.5182255 26.6886124,27.5364645 26.7042375,26.296875 L28.165175,26.296875 Z M38.71205,27.7734375 C38.71205,28.1796895 38.860486,28.4999988 39.1573625,28.734375 C39.454239,28.9687512 39.805798,29.0859375 40.21205,29.0859375 C40.7068441,29.0859375 41.186006,28.9713553 41.64955,28.7421875 C42.4308039,28.3619773 42.821425,27.7395877 42.821425,26.875 L42.821425,25.7421875 C42.6495491,25.851563 42.4281972,25.942708 42.1573625,26.015625 C41.8865278,26.088542 41.6209055,26.1406248 41.3604875,26.171875 L40.508925,26.28125 C39.9985058,26.3489587 39.6156971,26.4557284 39.3604875,26.6015625 C38.9281937,26.8463554 38.71205,27.2369765 38.71205,27.7734375 Z M42.1183,24.9296875 C42.4412183,24.8880206 42.657362,24.7526053 42.7667375,24.5234375 C42.8292378,24.3984369 42.8604875,24.2187512 42.8604875,23.984375 C42.8604875,23.5052059 42.6899163,23.1575532 42.3487688,22.9414062 C42.0076212,22.7252593 41.5193448,22.6171875 40.883925,22.6171875 C40.1495463,22.6171875 39.6287182,22.8151022 39.321425,23.2109375 C39.1495491,23.4296886 39.0375711,23.7552062 38.9854875,24.1875 L37.6729875,24.1875 C37.6990293,23.1562448 38.0336614,22.4388041 38.6768938,22.0351562 C39.3201261,21.6315084 40.0662124,21.4296875 40.915175,21.4296875 C41.8995549,21.4296875 42.6990261,21.6171856 43.3136125,21.9921875 C43.9229905,22.3671894 44.227675,22.9505169 44.227675,23.7421875 L44.227675,28.5625 C44.227675,28.7083341 44.2576226,28.8255204 44.3175188,28.9140625 C44.3774149,29.0026046 44.5037157,29.046875 44.696425,29.046875 C44.7589253,29.046875 44.8292371,29.0429688 44.9073625,29.0351562 C44.9854879,29.0273437 45.0688204,29.0156251 45.1573625,29 L45.1573625,30.0390625 C44.9386114,30.1015628 44.7719464,30.1406249 44.6573625,30.15625 C44.5427786,30.1718751 44.3865302,30.1796875 44.1886125,30.1796875 C43.7042351,30.1796875 43.3526761,30.0078142 43.133925,29.6640625 C43.0193411,29.4817699 42.9386127,29.22396 42.8917375,28.890625 C42.6052777,29.2656269 42.1938235,29.5911445 41.6573625,29.8671875 C41.1209015,30.1432305 40.5297616,30.28125 39.883925,30.28125 C39.1078795,30.28125 38.4737712,30.0455753 37.9815813,29.5742188 C37.4893913,29.1028622 37.2433,28.5130244 37.2433,27.8046875 C37.2433,27.028642 37.4854851,26.4270855 37.9698625,26 C38.4542399,25.5729145 39.0896502,25.3098963 39.8761125,25.2109375 L42.1183,24.9296875 Z M47.2198625,21.6328125 L49.4542375,28.4453125 L51.790175,21.6328125 L53.3292375,21.6328125 L50.1729875,30 L48.6729875,30 L45.58705,21.6328125 L47.2198625,21.6328125 Z M58.0167375,21.4453125 C58.6104905,21.4453125 59.1860055,21.584634 59.7433,21.8632812 C60.3005945,22.1419285 60.7250694,22.502602 61.0167375,22.9453125 C61.2979889,23.3671896 61.485487,23.8593722 61.5792375,24.421875 C61.6625712,24.8072936 61.7042375,25.4218708 61.7042375,26.265625 L55.571425,26.265625 C55.5974668,27.1145876 55.7979856,27.7955704 56.1729875,28.3085938 C56.5479894,28.8216171 57.1287127,29.078125 57.915175,29.078125 C58.6495537,29.078125 59.2354853,28.8359399 59.6729875,28.3515625 C59.9229888,28.0703111 60.1000703,27.7447935 60.2042375,27.375 L61.58705,27.375 C61.5505915,27.6822932 61.4294989,28.0247377 61.2237688,28.4023438 C61.0180386,28.7799498 60.7875721,29.0885405 60.5323625,29.328125 C60.105277,29.7447937 59.5766365,30.0260409 58.946425,30.171875 C58.6078816,30.2552088 58.225073,30.296875 57.7979875,30.296875 C56.7563156,30.296875 55.873512,29.9179725 55.14955,29.1601562 C54.425588,28.40234 54.0636125,27.3411527 54.0636125,25.9765625 C54.0636125,24.6328058 54.4281922,23.5416709 55.1573625,22.703125 C55.8865328,21.8645791 56.8396483,21.4453125 58.0167375,21.4453125 Z M60.258925,25.1484375 C60.201633,24.5390595 60.0688219,24.0520852 59.8604875,23.6875 C59.4750689,23.0104133 58.8318462,22.671875 57.9308,22.671875 C57.2849634,22.671875 56.7433022,22.9049456 56.3058,23.3710938 C55.8682978,23.8372419 55.6365293,24.4296839 55.6104875,25.1484375 L60.258925,25.1484375 Z M71.102675,21.390625 C72.045388,21.390625 72.8123075,21.6197894 73.4034563,22.078125 C73.994605,22.5364606 74.3500702,23.3255152 74.4698625,24.4453125 L73.102675,24.4453125 C73.0193413,23.9296849 72.829239,23.5013038 72.5323625,23.1601562 C72.235486,22.8190087 71.7589283,22.6484375 71.102675,22.6484375 C70.2068372,22.6484375 69.5662186,23.0859331 69.1808,23.9609375 C68.9307988,24.5286487 68.8058,25.2291625 68.8058,26.0625 C68.8058,26.9010459 68.9828816,27.606768 69.33705,28.1796875 C69.6912184,28.752607 70.2485045,29.0390625 71.008925,29.0390625 C71.5922613,29.0390625 72.0544962,28.8606789 72.3956438,28.5039062 C72.7367913,28.1471336 72.972466,27.6588573 73.102675,27.0390625 L74.4698625,27.0390625 C74.3136117,28.148443 73.9229906,28.9596329 73.2979875,29.4726562 C72.6729844,29.9856796 71.8735132,30.2421875 70.89955,30.2421875 C69.8057945,30.2421875 68.9334074,29.8424519 68.2823625,29.0429688 C67.6313176,28.2434856 67.3058,27.2447977 67.3058,26.046875 C67.3058,24.5781177 67.6625673,23.4348999 68.3761125,22.6171875 C69.0896577,21.7994751 69.9985028,21.390625 71.102675,21.390625 Z M75.8761125,18.484375 L77.2823625,18.484375 L77.2823625,22.765625 C77.6156975,22.3437479 77.9151737,22.0468759 78.1808,21.875 C78.6339273,21.5781235 79.1990258,21.4296875 79.8761125,21.4296875 C81.0896602,21.4296875 81.9125687,21.8541624 82.3448625,22.703125 C82.5792387,23.166669 82.696425,23.8098917 82.696425,24.6328125 L82.696425,30 L81.2511125,30 L81.2511125,24.7265625 C81.2511125,24.1119761 81.1729883,23.6614598 81.0167375,23.375 C80.7615279,22.9166644 80.282366,22.6875 79.5792375,22.6875 C78.9959013,22.6875 78.4672607,22.8880188 77.9933,23.2890625 C77.5193393,23.6901062 77.2823625,24.4479111 77.2823625,25.5625 L77.2823625,30 L75.8761125,30 L75.8761125,18.484375 Z M85.852675,27.7734375 C85.852675,28.1796895 86.001111,28.4999988 86.2979875,28.734375 C86.594864,28.9687512 86.946423,29.0859375 87.352675,29.0859375 C87.8474691,29.0859375 88.326631,28.9713553 88.790175,28.7421875 C89.5714289,28.3619773 89.96205,27.7395877 89.96205,26.875 L89.96205,25.7421875 C89.7901741,25.851563 89.5688222,25.942708 89.2979875,26.015625 C89.0271528,26.088542 88.7615305,26.1406248 88.5011125,26.171875 L87.64955,26.28125 C87.1391308,26.3489587 86.7563221,26.4557284 86.5011125,26.6015625 C86.0688187,26.8463554 85.852675,27.2369765 85.852675,27.7734375 Z M89.258925,24.9296875 C89.5818433,24.8880206 89.797987,24.7526053 89.9073625,24.5234375 C89.9698628,24.3984369 90.0011125,24.2187512 90.0011125,23.984375 C90.0011125,23.5052059 89.8305413,23.1575532 89.4893938,22.9414062 C89.1482462,22.7252593 88.6599698,22.6171875 88.02455,22.6171875 C87.2901713,22.6171875 86.7693432,22.8151022 86.46205,23.2109375 C86.2901741,23.4296886 86.1781961,23.7552062 86.1261125,24.1875 L84.8136125,24.1875 C84.8396543,23.1562448 85.1742864,22.4388041 85.8175188,22.0351562 C86.4607511,21.6315084 87.2068374,21.4296875 88.0558,21.4296875 C89.0401799,21.4296875 89.8396511,21.6171856 90.4542375,21.9921875 C91.0636155,22.3671894 91.3683,22.9505169 91.3683,23.7421875 L91.3683,28.5625 C91.3683,28.7083341 91.3982476,28.8255204 91.4581438,28.9140625 C91.5180399,29.0026046 91.6443407,29.046875 91.83705,29.046875 C91.8995503,29.046875 91.9698621,29.0429688 92.0479875,29.0351562 C92.1261129,29.0273437 92.2094454,29.0156251 92.2979875,29 L92.2979875,30.0390625 C92.0792364,30.1015628 91.9125714,30.1406249 91.7979875,30.15625 C91.6834036,30.1718751 91.5271552,30.1796875 91.3292375,30.1796875 C90.8448601,30.1796875 90.4933011,30.0078142 90.27455,29.6640625 C90.1599661,29.4817699 90.0792377,29.22396 90.0323625,28.890625 C89.7459027,29.2656269 89.3344485,29.5911445 88.7979875,29.8671875 C88.2615265,30.1432305 87.6703866,30.28125 87.02455,30.28125 C86.2485045,30.28125 85.6143962,30.0455753 85.1222063,29.5742188 C84.6300163,29.1028622 84.383925,28.5130244 84.383925,27.8046875 C84.383925,27.028642 84.6261101,26.4270855 85.1104875,26 C85.5948649,25.5729145 86.2302752,25.3098963 87.0167375,25.2109375 L89.258925,24.9296875 Z M93.6729875,21.6328125 L95.008925,21.6328125 L95.008925,22.8203125 C95.4047603,22.3307267 95.824027,21.9791677 96.2667375,21.765625 C96.709448,21.5520823 97.2016306,21.4453125 97.7433,21.4453125 C98.9308059,21.4453125 99.7328813,21.8593709 100.14955,22.6875 C100.378718,23.1406273 100.4933,23.7890583 100.4933,24.6328125 L100.4933,30 L99.0636125,30 L99.0636125,24.7265625 C99.0636125,24.2161433 98.9880924,23.8046891 98.83705,23.4921875 C98.5870488,22.9713516 98.1339283,22.7109375 97.477675,22.7109375 C97.14434,22.7109375 96.8709052,22.7447913 96.6573625,22.8125 C96.2719439,22.9270839 95.9334056,23.1562483 95.6417375,23.5 C95.4073613,23.776043 95.2550191,24.0611964 95.1847063,24.3554688 C95.1143934,24.6497411 95.0792375,25.0703098 95.0792375,25.6171875 L95.0792375,30 L93.6729875,30 L93.6729875,21.6328125 Z M105.52455,21.484375 C106.180803,21.484375 106.753714,21.6458317 107.2433,21.96875 C107.508926,22.1510426 107.779757,22.4166649 108.0558,22.765625 L108.0558,21.7109375 L109.352675,21.7109375 L109.352675,29.3203125 C109.352675,30.3828178 109.196427,31.2213511 108.883925,31.8359375 C108.300589,32.9713598 107.199037,33.5390625 105.579238,33.5390625 C104.678191,33.5390625 103.920386,33.3372416 103.3058,32.9335938 C102.691214,32.5299459 102.347467,31.8984418 102.27455,31.0390625 L103.704238,31.0390625 C103.771946,31.4140644 103.907361,31.703124 104.110488,31.90625 C104.428197,32.2187516 104.928192,32.375 105.610488,32.375 C106.688618,32.375 107.39434,31.9947955 107.727675,31.234375 C107.925593,30.7864561 108.016738,29.9869849 108.001113,28.8359375 C107.719861,29.263023 107.381323,29.5807281 106.985488,29.7890625 C106.589652,29.9973969 106.06622,30.1015625 105.415175,30.1015625 C104.50892,30.1015625 103.71596,29.7799511 103.036269,29.1367188 C102.356578,28.4934864 102.016738,27.4296949 102.016738,25.9453125 C102.016738,24.5442638 102.359182,23.4505248 103.044081,22.6640625 C103.728981,21.8776002 104.555795,21.484375 105.52455,21.484375 Z M108.0558,25.78125 C108.0558,24.7447865 107.84226,23.976565 107.415175,23.4765625 C106.98809,22.97656 106.443824,22.7265625 105.782363,22.7265625 C104.792774,22.7265625 104.115698,23.1900995 103.751113,24.1171875 C103.558403,24.6119816 103.46205,25.2604127 103.46205,26.0625 C103.46205,27.005213 103.653454,27.7226538 104.036269,28.2148438 C104.419083,28.7070337 104.933401,28.953125 105.579238,28.953125 C106.589659,28.953125 107.30059,28.4974004 107.71205,27.5859375 C107.941218,27.0703099 108.0558,26.4687534 108.0558,25.78125 Z M114.954238,21.4453125 C115.54799,21.4453125 116.123506,21.584634 116.6808,21.8632812 C117.238094,22.1419285 117.662569,22.502602 117.954238,22.9453125 C118.235489,23.3671896 118.422987,23.8593722 118.516738,24.421875 C118.600071,24.8072936 118.641738,25.4218708 118.641738,26.265625 L112.508925,26.265625 C112.534967,27.1145876 112.735486,27.7955704 113.110488,28.3085938 C113.485489,28.8216171 114.066213,29.078125 114.852675,29.078125 C115.587054,29.078125 116.172985,28.8359399 116.610488,28.3515625 C116.860489,28.0703111 117.03757,27.7447935 117.141738,27.375 L118.52455,27.375 C118.488091,27.6822932 118.366999,28.0247377 118.161269,28.4023438 C117.955539,28.7799498 117.725072,29.0885405 117.469863,29.328125 C117.042777,29.7447937 116.514136,30.0260409 115.883925,30.171875 C115.545382,30.2552088 115.162573,30.296875 114.735488,30.296875 C113.693816,30.296875 112.811012,29.9179725 112.08705,29.1601562 C111.363088,28.40234 111.001113,27.3411527 111.001113,25.9765625 C111.001113,24.6328058 111.365692,23.5416709 112.094863,22.703125 C112.824033,21.8645791 113.777148,21.4453125 114.954238,21.4453125 Z M117.196425,25.1484375 C117.139133,24.5390595 117.006322,24.0520852 116.797988,23.6875 C116.412569,23.0104133 115.769346,22.671875 114.8683,22.671875 C114.222463,22.671875 113.680802,22.9049456 113.2433,23.3710938 C112.805798,23.8372419 112.574029,24.4296839 112.547988,25.1484375 L117.196425,25.1484375 Z M121.204238,27.375 C121.245904,27.8437523 121.363091,28.2031237 121.5558,28.453125 C121.909968,28.9062523 122.524546,29.1328125 123.39955,29.1328125 C123.920386,29.1328125 124.378715,29.0195324 124.77455,28.7929688 C125.170385,28.5664051 125.3683,28.2161482 125.3683,27.7421875 C125.3683,27.3828107 125.209447,27.1093759 124.891738,26.921875 C124.688611,26.8072911 124.287574,26.6744799 123.688613,26.5234375 L122.571425,26.2421875 C121.85788,26.0651033 121.331843,25.8671886 120.9933,25.6484375 C120.38913,25.2682273 120.08705,24.7421909 120.08705,24.0703125 C120.08705,23.2786419 120.372203,22.6380233 120.942519,22.1484375 C121.512834,21.6588517 122.279754,21.4140625 123.2433,21.4140625 C124.503723,21.4140625 125.412568,21.7838505 125.969863,22.5234375 C126.318823,22.9921898 126.488092,23.4973931 126.477675,24.0390625 L125.14955,24.0390625 C125.123508,23.7213526 125.01153,23.432293 124.813613,23.171875 C124.490694,22.8020815 123.930804,22.6171875 123.133925,22.6171875 C122.602672,22.6171875 122.200333,22.718749 121.926894,22.921875 C121.653455,23.125001 121.516738,23.3932275 121.516738,23.7265625 C121.516738,24.0911477 121.696423,24.3828114 122.0558,24.6015625 C122.264134,24.7317715 122.571423,24.8463537 122.977675,24.9453125 L123.907363,25.171875 C124.917784,25.4166679 125.594861,25.6536447 125.938613,25.8828125 C126.48549,26.2421893 126.758925,26.8072878 126.758925,27.578125 C126.758925,28.3229204 126.476376,28.9661431 125.911269,29.5078125 C125.346162,30.0494819 124.485493,30.3203125 123.329238,30.3203125 C122.08444,30.3203125 121.202938,30.0377632 120.684706,29.4726562 C120.166474,28.9075493 119.889134,28.2083375 119.852675,27.375 L121.204238,27.375 Z" id="path-3"></path>
    </defs>
    <g id="data_deletion_1_day" stroke="none" stroke-width="1" fill="none" fill-rule="evenodd">
        <g transform="translate(83.000000, 72.000000)">
            <g id="Group-2-Copy">
                <g id="Rectangle">
                    <g id="Rectangle-6">
                        <use fill="black" fill-opacity="1" filter="url(#filter-2)" xlink:href="#path-1"></use>
                        <use fill="#FFFFFF" fill-rule="evenodd" xlink:href="#path-1"></use>
                    </g>
                </g>
            </g>
            <g id="Background" transform="translate(37.000000, 140.000000)">
                <g id="Group-5">
                    <g id="Group-2" transform="translate(0.000000, 41.000000)">
                        <path d="M37.3,14 L36.1,10.8 L31.1,10.8 L29.8,14 L28.1,14 L32.6,2.7 L34.4,2.7 L39,14 L37.3,14 Z M33.5,4.3 L31.6,9.4 L35.5,9.4 L33.5,4.3 Z M45.2,13.1 C44.8,13.9 43.8,14.3 42.9,14.3 C41.1,14.3 40,13 40,11.2 L40,6.4 L41.5,6.4 L41.5,11 C41.5,12.1 42,13 43.2,13 C44.4,13 45,12.2 45,11 L45,6.4 L46.5,6.4 L46.5,12.7 C46.5,13.3 46.5,13.9 46.6,14.1 L45.2,14.1 C45.2,13.8 45.2,13.4 45.2,13.1 Z M51.2,3.9 L51.2,6.3 L52.9,6.3 L52.9,7.7 L51.2,7.7 L51.2,11.7 C51.2,12.4 51.5,12.8 52.3,12.8 C52.5,12.8 52.8,12.8 52.9,12.7 L52.9,14 C52.8,14 52.4,14.1 51.9,14.1 C50.6,14.1 49.8,13.3 49.8,11.9 L49.8,7.7 L48.3,7.7 L48.3,6.3 L48.7,6.3 C49.5,6.3 49.9,5.8 49.9,5.1 L49.9,3.9 L51.2,3.9 Z M58.2,12.9 C59.5,12.9 60.6,11.9 60.6,10.1 C60.6,8.3 59.5,7.4 58.2,7.4 C56.9,7.4 55.8,8.4 55.8,10.1 C55.8,11.9 56.9,12.9 58.2,12.9 Z M58.2,6.1 C60.5,6.1 62.1,7.8 62.1,10.2 C62.1,12.6 60.5,14.3 58.2,14.3 C55.9,14.3 54.3,12.6 54.3,10.2 C54.3,7.8 55.9,6.1 58.2,6.1 Z M65.6,14 L64.1,14 L64.1,6.3 L65.5,6.3 L65.5,7.3 C66,6.5 66.9,6.1 67.8,6.1 C68.8,6.1 69.7,6.6 70.1,7.6 C70.7,6.5 71.7,6.1 72.7,6.1 C74,6.1 75.4,7 75.4,9 L75.4,14 L74,14 L74,9.2 C74,8.2 73.5,7.4 72.4,7.4 C71.3,7.4 70.6,8.2 70.6,9.3 L70.6,14 L69,14 L69,9.2 C69,8.2 68.5,7.4 67.4,7.4 C66.3,7.4 65.6,8.2 65.6,9.4 L65.6,14 L65.6,14 Z M77.4,11.9 C77.4,10.5 78.4,9.8 79.7,9.6 L81.8,9.3 C82.3,9.2 82.4,9 82.4,8.7 C82.4,7.9 81.9,7.3 80.7,7.3 C79.6,7.3 79.1,8 79,8.9 L77.6,8.6 C77.8,7.1 79.1,6.1 80.8,6.1 C83.1,6.1 84,7.4 84,8.9 L84,12.8 C84,13.5 84.1,13.9 84.1,14.1 L82.6,14.1 C82.6,13.9 82.5,13.6 82.5,13.1 C82.2,13.6 81.4,14.4 80,14.4 C78.4,14.2 77.4,13.2 77.4,11.9 Z M80.2,13 C81.4,13 82.4,12.4 82.4,10.7 L82.4,10.3 L80,10.7 C79.4,10.8 78.9,11.2 78.9,11.9 C79,12.4 79.5,13 80.2,13 Z M88.4,3.9 L88.4,6.3 L90,6.3 L90,7.7 L88.3,7.7 L88.3,11.7 C88.3,12.4 88.6,12.8 89.4,12.8 C89.6,12.8 89.9,12.8 90,12.7 L90,14 C89.9,14 89.5,14.1 89,14.1 C87.7,14.1 86.9,13.3 86.9,11.9 L86.9,7.7 L85.4,7.7 L85.4,6.3 L85.8,6.3 C86.6,6.3 87,5.8 87,5.1 L87,3.9 L88.4,3.9 Z M93.6,14 L92.1,14 L92.1,6.3 L93.6,6.3 L93.6,14 Z M91.8,3.4 C91.8,2.8 92.3,2.3 92.9,2.3 C93.5,2.3 94,2.8 94,3.4 C94,4 93.5,4.5 92.9,4.5 C92.3,4.5 91.8,4 91.8,3.4 Z M99.5,7.5 C98.3,7.5 97.2,8.4 97.2,10.2 C97.2,12 98.3,12.9 99.6,12.9 C101,12.9 101.6,11.9 101.7,11.3 L103,11.9 C102.6,13 101.5,14.3 99.5,14.3 C97.3,14.3 95.6,12.5 95.6,10.2 C95.6,7.8 97.3,6.1 99.5,6.1 C101.5,6.1 102.6,7.4 102.9,8.5 L101.5,9.1 C101.3,8.3 100.8,7.5 99.5,7.5 Z M104.2,11.9 C104.2,10.5 105.2,9.8 106.5,9.6 L108.6,9.3 C109.1,9.2 109.2,9 109.2,8.7 C109.2,7.9 108.7,7.3 107.5,7.3 C106.4,7.3 105.9,8 105.8,8.9 L104.4,8.6 C104.6,7.1 105.9,6.1 107.6,6.1 C109.9,6.1 110.8,7.4 110.8,8.9 L110.8,12.8 C110.8,13.5 110.9,13.9 110.9,14.1 L109.4,14.1 C109.4,13.9 109.3,13.6 109.3,13.1 C109,13.6 108.2,14.4 106.8,14.4 C105.2,14.2 104.2,13.2 104.2,11.9 Z M107,13 C108.2,13 109.2,12.4 109.2,10.7 L109.2,10.3 L106.8,10.7 C106.2,10.8 105.7,11.2 105.7,11.9 C105.8,12.4 106.2,13 107,13 Z M114.6,14 L113.1,14 L113.1,2.4 L114.6,2.4 L114.6,14 Z M118.8,14 L117.3,14 L117.3,2.4 L118.8,2.4 L118.8,14 Z M123.3,17.2 L121.7,17.2 L123.6,13.1 L120.3,6.3 L122,6.3 L124.4,11.6 L126.7,6.3 L128.3,6.3 L123.3,17.2 Z M134.8,10.1 C134.8,11.7 135.6,12.9 137.1,12.9 C138.5,12.9 139.3,11.7 139.3,10.1 C139.3,8.5 138.5,7.4 137.1,7.4 C135.7,7.4 134.8,8.5 134.8,10.1 Z M139.3,13 L139.3,12.9 C138.9,13.6 138.1,14.3 136.9,14.3 C134.6,14.3 133.3,12.5 133.3,10.2 C133.3,8 134.8,6.2 136.9,6.2 C138.3,6.2 139,6.9 139.3,7.5 L139.3,2.5 L140.8,2.5 L140.8,12.7 C140.8,13.4 140.9,14 140.9,14.1 L139.4,14.1 C139.4,13.8 139.3,13.4 139.3,13 Z M144.4,9.4 L148.6,9.4 C148.6,8.3 147.8,7.4 146.5,7.4 C145.2,7.4 144.5,8.4 144.4,9.4 Z M148.8,11.4 L150.1,11.8 C149.7,13.2 148.4,14.2 146.6,14.2 C144.5,14.2 142.7,12.7 142.7,10.1 C142.7,7.7 144.4,6 146.4,6 C148.8,6 150.1,7.6 150.1,10 C150.1,10.2 150.1,10.4 150.1,10.5 L144.3,10.5 C144.3,11.9 145.3,12.8 146.6,12.8 C147.9,12.9 148.5,12.2 148.8,11.4 Z M153.7,14 L152.2,14 L152.2,2.4 L153.7,2.4 L153.7,14 Z M157.3,9.4 L161.5,9.4 C161.5,8.3 160.7,7.4 159.4,7.4 C158.1,7.4 157.3,8.4 157.3,9.4 Z M161.7,11.4 L163,11.8 C162.6,13.2 161.3,14.2 159.5,14.2 C157.4,14.2 155.6,12.7 155.6,10.1 C155.6,7.7 157.3,6 159.3,6 C161.7,6 163,7.6 163,10 C163,10.2 163,10.4 163,10.5 L157.2,10.5 C157.2,11.9 158.2,12.8 159.5,12.8 C160.8,12.9 161.4,12.2 161.7,11.4 Z M167.1,3.9 L167.1,6.3 L168.8,6.3 L168.8,7.7 L167.1,7.7 L167.1,11.7 C167.1,12.4 167.4,12.8 168.2,12.8 C168.4,12.8 168.7,12.8 168.8,12.7 L168.8,14 C168.7,14 168.3,14.1 167.8,14.1 C166.5,14.1 165.7,13.3 165.7,11.9 L165.7,7.7 L164.2,7.7 L164.2,6.3 L164.6,6.3 C165.4,6.3 165.8,5.8 165.8,5.1 L165.8,3.9 L167.1,3.9 Z M171.7,9.4 L175.9,9.4 C175.9,8.3 175.1,7.4 173.8,7.4 C172.5,7.4 171.7,8.4 171.7,9.4 Z M176.1,11.4 L177.4,11.8 C177,13.2 175.7,14.2 173.9,14.2 C171.8,14.2 170,12.7 170,10.1 C170,7.7 171.7,6 173.7,6 C176.1,6 177.4,7.6 177.4,10 C177.4,10.2 177.4,10.4 177.4,10.5 L171.6,10.5 C171.6,11.9 172.6,12.8 173.9,12.8 C175.2,12.9 175.8,12.2 176.1,11.4 Z M190.1,6.3 L187,14 L185.5,14 L182.4,6.3 L184.1,6.3 L186.3,12.2 L188.5,6.3 L190.1,6.3 L190.1,6.3 Z M193.1,14 L191.6,14 L191.6,6.3 L193.1,6.3 L193.1,14 Z M191.3,3.4 C191.3,2.8 191.8,2.3 192.4,2.3 C193,2.3 193.5,2.8 193.5,3.4 C193.5,4 193,4.5 192.4,4.5 C191.8,4.5 191.3,4 191.3,3.4 Z M195,12 L196.4,11.5 C196.5,12.3 197.1,12.9 198.2,12.9 C199,12.9 199.5,12.4 199.5,11.9 C199.5,11.4 199.1,11.1 198.5,10.9 L197.2,10.6 C196,10.3 195.3,9.5 195.3,8.4 C195.3,7.1 196.5,6 198,6 C200.1,6 200.8,7.4 200.9,8.1 L199.6,8.6 C199.5,8.2 199.2,7.3 198,7.3 C197.2,7.3 196.7,7.8 196.7,8.3 C196.7,8.8 197,9.1 197.6,9.2 L198.8,9.5 C200.2,9.8 200.9,10.7 200.9,11.8 C200.9,12.9 200,14.2 198.1,14.2 C196.1,14.2 195.2,12.9 195,12 Z M204.5,14 L203,14 L203,6.3 L204.5,6.3 L204.5,14 Z M202.7,3.4 C202.7,2.8 203.2,2.3 203.8,2.3 C204.4,2.3 204.9,2.8 204.9,3.4 C204.9,4 204.4,4.5 203.8,4.5 C203.2,4.5 202.7,4 202.7,3.4 Z M209.2,3.9 L209.2,6.3 L210.9,6.3 L210.9,7.7 L209.2,7.7 L209.2,11.7 C209.2,12.4 209.5,12.8 210.3,12.8 C210.5,12.8 210.8,12.8 210.9,12.7 L210.9,14 C210.8,14 210.4,14.1 209.9,14.1 C208.6,14.1 207.8,13.3 207.8,11.9 L207.8,7.7 L206.3,7.7 L206.3,6.3 L206.7,6.3 C207.5,6.3 207.9,5.8 207.9,5.1 L207.9,3.9 L209.2,3.9 Z M212.3,12 L213.7,11.5 C213.8,12.3 214.4,12.9 215.5,12.9 C216.3,12.9 216.8,12.4 216.8,11.9 C216.8,11.4 216.4,11.1 215.8,10.9 L214.5,10.6 C213.3,10.3 212.6,9.5 212.6,8.4 C212.6,7.1 213.8,6 215.3,6 C217.4,6 218.1,7.4 218.2,8.1 L216.9,8.6 C216.8,8.2 216.5,7.3 215.3,7.3 C214.5,7.3 214,7.8 214,8.3 C214,8.8 214.3,9.1 214.9,9.2 L216.1,9.5 C217.5,9.8 218.2,10.7 218.2,11.8 C218.2,12.9 217.3,14.2 215.4,14.2 C213.3,14.2 212.4,12.9 212.3,12 Z M227.7,12.9 C229,12.9 230.1,11.9 230.1,10.1 C230.1,8.3 229,7.4 227.7,7.4 C226.4,7.4 225.3,8.4 225.3,10.1 C225.3,11.9 226.4,12.9 227.7,12.9 Z M227.7,6.1 C230,6.1 231.6,7.8 231.6,10.2 C231.6,12.6 230,14.3 227.7,14.3 C225.4,14.3 223.8,12.6 223.8,10.2 C223.7,7.8 225.4,6.1 227.7,6.1 Z M235.1,14 L233.6,14 L233.6,2.4 L235.1,2.4 L235.1,14 Z M238.6,10.1 C238.6,11.7 239.4,12.9 240.9,12.9 C242.3,12.9 243.1,11.7 243.1,10.1 C243.1,8.5 242.3,7.4 240.9,7.4 C239.5,7.4 238.6,8.5 238.6,10.1 Z M243.1,13 L243.1,12.9 C242.7,13.6 241.9,14.3 240.7,14.3 C238.4,14.3 237.1,12.5 237.1,10.2 C237.1,8 238.6,6.2 240.7,6.2 C242.1,6.2 242.8,6.9 243.1,7.5 L243.1,2.5 L244.6,2.5 L244.6,12.7 C244.6,13.4 244.7,14 244.7,14.1 L243.2,14.1 C243.2,13.8 243.1,13.4 243.1,13 Z M248.2,9.4 L252.4,9.4 C252.4,8.3 251.6,7.4 250.3,7.4 C249,7.4 248.3,8.4 248.2,9.4 Z M252.6,11.4 L253.9,11.8 C253.5,13.2 252.2,14.2 250.4,14.2 C248.3,14.2 246.5,12.7 246.5,10.1 C246.5,7.7 248.2,6 250.2,6 C252.6,6 253.9,7.6 253.9,10 C253.9,10.2 253.9,10.4 253.9,10.5 L248.1,10.5 C248.1,11.9 249.1,12.8 250.4,12.8 C251.7,12.9 252.4,12.2 252.6,11.4 Z M260.2,6.2 L260.2,7.8 C260,7.8 259.8,7.8 259.5,7.8 C258.2,7.8 257.4,8.5 257.4,10.2 L257.4,14 L256,14 L256,6.3 L257.5,6.3 L257.5,7.6 C258.1,6.4 259,6.1 259.8,6.1 C260,6.2 260.2,6.2 260.2,6.2 Z M268,3.9 L268,6.3 L269.7,6.3 L269.7,7.7 L268,7.7 L268,11.7 C268,12.4 268.3,12.8 269.1,12.8 C269.3,12.8 269.6,12.8 269.7,12.7 L269.7,14 C269.6,14 269.2,14.1 268.7,14.1 C267.4,14.1 266.6,13.3 266.6,11.9 L266.6,7.7 L265,7.7 L265,6.3 L265.4,6.3 C266.2,6.3 266.6,5.8 266.6,5.1 L266.6,3.9 L268,3.9 Z M273.2,9.5 L273.2,14 L271.7,14 L271.7,2.4 L273.2,2.4 L273.2,7.2 C273.8,6.4 274.7,6.1 275.5,6.1 C277.3,6.1 278.3,7.4 278.3,9.1 L278.3,14 L276.8,14 L276.8,9.4 C276.8,8.3 276.4,7.5 275,7.5 C273.9,7.4 273.3,8.3 273.2,9.5 Z M280.3,11.9 C280.3,10.5 281.3,9.8 282.6,9.6 L284.7,9.3 C285.2,9.2 285.3,9 285.3,8.7 C285.3,7.9 284.8,7.3 283.6,7.3 C282.5,7.3 282,8 281.9,8.9 L280.5,8.6 C280.7,7.1 282,6.1 283.7,6.1 C286,6.1 286.9,7.4 286.9,8.9 L286.9,12.8 C286.9,13.5 287,13.9 287,14.1 L285.5,14.1 C285.5,13.9 285.4,13.6 285.4,13.1 C285.1,13.6 284.3,14.4 282.9,14.4 C281.3,14.2 280.3,13.2 280.3,11.9 Z M283.1,13 C284.3,13 285.3,12.4 285.3,10.7 L285.3,10.3 L282.9,10.7 C282.3,10.8 281.8,11.2 281.8,11.9 C281.9,12.4 282.3,13 283.1,13 Z M290.8,9.6 L290.8,14 L289.3,14 L289.3,6.3 L290.8,6.3 L290.8,7.4 C291.4,6.4 292.3,6.1 293.2,6.1 C295,6.1 296,7.4 296,9.1 L296,14 L294.5,14 L294.5,9.4 C294.5,8.3 294.1,7.5 292.7,7.5 C291.4,7.4 290.8,8.4 290.8,9.6 Z" id="Automatically-delete" fill="#0A0A47"></path>
                        <g id="Group-4">
                            <circle id="Oval-2" fill="#4D98F8" cx="9" cy="9" r="9"></circle>
                            <circle id="Oval-2-Copy" fill="#FFFFFF" cx="9" cy="9" r="3"></circle>
                        </g>
                    </g>
                    <g id="Group">
                        <g id="Group-4_1_" stroke="#979797">
                            <circle id="Oval-2_1_" cx="9" cy="9" r="9"></circle>
                        </g>
                        <path d="M36.5,14 L32.7,8.8 L31,10.6 L31,14 L29.4,14 L29.4,2.7 L31,2.7 L31,8.5 L36.3,2.7 L38.4,2.7 L33.7,7.8 L38.5,14.1 L36.5,14.1 L36.5,14 Z M40.5,9.4 L44.7,9.4 C44.7,8.3 43.9,7.4 42.6,7.4 C41.3,7.4 40.5,8.4 40.5,9.4 Z M44.9,11.4 L46.2,11.8 C45.8,13.2 44.5,14.2 42.7,14.2 C40.6,14.2 38.8,12.7 38.8,10.1 C38.8,7.7 40.5,6 42.5,6 C44.9,6 46.2,7.6 46.2,10 C46.2,10.2 46.2,10.4 46.2,10.5 L40.4,10.5 C40.4,11.9 41.4,12.8 42.7,12.8 C44,12.9 44.6,12.2 44.9,11.4 Z M49.2,9.4 L53.4,9.4 C53.4,8.3 52.6,7.4 51.3,7.4 C50,7.4 49.3,8.4 49.2,9.4 Z M53.6,11.4 L54.9,11.8 C54.5,13.2 53.2,14.2 51.4,14.2 C49.3,14.2 47.5,12.7 47.5,10.1 C47.5,7.7 49.2,6 51.2,6 C53.6,6 54.9,7.6 54.9,10 C54.9,10.2 54.9,10.4 54.9,10.5 L49.1,10.5 C49.1,11.9 50.1,12.8 51.4,12.8 C52.7,12.9 53.3,12.2 53.6,11.4 Z M58.5,17 L57,17 L57,6.3 L58.5,6.3 L58.5,7.5 C58.9,6.7 59.8,6.1 61.1,6.1 C63.4,6.1 64.6,7.9 64.6,10.1 C64.6,12.4 63.3,14.2 61,14.2 C59.8,14.2 58.9,13.6 58.5,13 L58.5,17 L58.5,17 Z M63,10.1 C63,8.6 62.1,7.4 60.7,7.4 C59.3,7.4 58.4,8.6 58.4,10.1 C58.4,11.7 59.3,12.8 60.7,12.8 C62.1,12.9 63,11.7 63,10.1 Z M77.2,6.3 L74.1,14 L72.6,14 L69.5,6.3 L71.2,6.3 L73.4,12.2 L75.6,6.3 L77.2,6.3 L77.2,6.3 Z M80.2,14 L78.7,14 L78.7,6.3 L80.2,6.3 L80.2,14 Z M78.4,3.4 C78.4,2.8 78.9,2.3 79.5,2.3 C80.1,2.3 80.6,2.8 80.6,3.4 C80.6,4 80.1,4.5 79.5,4.5 C78.9,4.5 78.4,4 78.4,3.4 Z M82.1,12 L83.5,11.5 C83.6,12.3 84.2,12.9 85.3,12.9 C86.1,12.9 86.6,12.4 86.6,11.9 C86.6,11.4 86.2,11.1 85.6,10.9 L84.3,10.6 C83.1,10.3 82.4,9.5 82.4,8.4 C82.4,7.1 83.6,6 85.1,6 C87.2,6 87.9,7.4 88,8.1 L86.7,8.6 C86.6,8.2 86.3,7.3 85.1,7.3 C84.3,7.3 83.8,7.8 83.8,8.3 C83.8,8.8 84.1,9.1 84.7,9.2 L85.9,9.5 C87.3,9.8 88,10.7 88,11.8 C88,12.9 87.1,14.2 85.2,14.2 C83.1,14.2 82.2,12.9 82.1,12 Z M91.6,14 L90.1,14 L90.1,6.3 L91.6,6.3 L91.6,14 Z M89.8,3.4 C89.8,2.8 90.3,2.3 90.9,2.3 C91.5,2.3 92,2.8 92,3.4 C92,4 91.5,4.5 90.9,4.5 C90.3,4.5 89.8,4 89.8,3.4 Z M96.3,3.9 L96.3,6.3 L98,6.3 L98,7.7 L96.3,7.7 L96.3,11.7 C96.3,12.4 96.6,12.8 97.4,12.8 C97.6,12.8 97.9,12.8 98,12.7 L98,14 C97.9,14 97.5,14.1 97,14.1 C95.7,14.1 94.9,13.3 94.9,11.9 L94.9,7.7 L93.4,7.7 L93.4,6.3 L93.8,6.3 C94.6,6.3 95,5.8 95,5.1 L95,3.9 L96.3,3.9 Z M99.4,12 L100.8,11.5 C100.9,12.3 101.5,12.9 102.6,12.9 C103.4,12.9 103.9,12.4 103.9,11.9 C103.9,11.4 103.5,11.1 102.9,10.9 L101.6,10.6 C100.4,10.3 99.7,9.5 99.7,8.4 C99.7,7.1 100.9,6 102.4,6 C104.5,6 105.2,7.4 105.3,8.1 L104,8.6 C103.9,8.2 103.6,7.3 102.4,7.3 C101.6,7.3 101.1,7.8 101.1,8.3 C101.1,8.8 101.4,9.1 102,9.2 L103.2,9.5 C104.6,9.8 105.3,10.7 105.3,11.8 C105.3,12.9 104.4,14.2 102.5,14.2 C100.4,14.2 99.5,12.9 99.4,12 Z M116.5,13.1 C116.1,13.9 115.1,14.3 114.2,14.3 C112.4,14.3 111.3,13 111.3,11.2 L111.3,6.4 L112.8,6.4 L112.8,11 C112.8,12.1 113.3,13 114.5,13 C115.7,13 116.3,12.2 116.3,11 L116.3,6.4 L117.8,6.4 L117.8,12.7 C117.8,13.3 117.8,13.9 117.9,14.1 L116.5,14.1 C116.6,13.8 116.5,13.4 116.5,13.1 Z M122.1,9.6 L122.1,14 L120.6,14 L120.6,6.3 L122.1,6.3 L122.1,7.4 C122.7,6.4 123.6,6.1 124.5,6.1 C126.3,6.1 127.3,7.4 127.3,9.1 L127.3,14 L125.8,14 L125.8,9.4 C125.8,8.3 125.4,7.5 124,7.5 C122.7,7.4 122.1,8.4 122.1,9.6 Z M131.7,3.9 L131.7,6.3 L133.4,6.3 L133.4,7.7 L131.7,7.7 L131.7,11.7 C131.7,12.4 132,12.8 132.8,12.8 C133,12.8 133.3,12.8 133.4,12.7 L133.4,14 C133.3,14 132.9,14.1 132.4,14.1 C131.1,14.1 130.3,13.3 130.3,11.9 L130.3,7.7 L128.8,7.7 L128.8,6.3 L129.2,6.3 C130,6.3 130.4,5.8 130.4,5.1 L130.4,3.9 L131.7,3.9 Z M136.9,14 L135.4,14 L135.4,6.3 L136.9,6.3 L136.9,14 Z M135.1,3.4 C135.1,2.8 135.6,2.3 136.2,2.3 C136.8,2.3 137.3,2.8 137.3,3.4 C137.3,4 136.8,4.5 136.2,4.5 C135.6,4.5 135.1,4 135.1,3.4 Z M141,14 L139.5,14 L139.5,2.4 L141,2.4 L141,14 Z M149.8,3.9 L149.8,6.3 L151.5,6.3 L151.5,7.7 L149.8,7.7 L149.8,11.7 C149.8,12.4 150.1,12.8 150.9,12.8 C151.1,12.8 151.4,12.8 151.5,12.7 L151.5,14 C151.4,14 151,14.1 150.5,14.1 C149.2,14.1 148.4,13.3 148.4,11.9 L148.4,7.7 L146.9,7.7 L146.9,6.3 L147.3,6.3 C148.1,6.3 148.5,5.8 148.5,5.1 L148.5,3.9 L149.8,3.9 Z M155,9.5 L155,14 L153.5,14 L153.5,2.4 L155,2.4 L155,7.2 C155.6,6.4 156.5,6.1 157.3,6.1 C159.1,6.1 160.1,7.4 160.1,9.1 L160.1,14 L158.6,14 L158.6,9.4 C158.6,8.3 158.2,7.5 156.8,7.5 C155.6,7.4 155,8.3 155,9.5 Z M163.5,9.4 L167.7,9.4 C167.7,8.3 166.9,7.4 165.6,7.4 C164.4,7.4 163.6,8.4 163.5,9.4 Z M168,11.4 L169.3,11.8 C168.9,13.2 167.6,14.2 165.8,14.2 C163.7,14.2 161.9,12.7 161.9,10.1 C161.9,7.7 163.6,6 165.6,6 C168,6 169.3,7.6 169.3,10 C169.3,10.2 169.3,10.4 169.3,10.5 L163.5,10.5 C163.5,11.9 164.5,12.8 165.8,12.8 C167.1,12.9 167.7,12.2 168,11.4 Z M174.9,11.9 C174.9,10.5 175.9,9.8 177.2,9.6 L179.3,9.3 C179.8,9.2 179.9,9 179.9,8.7 C179.9,7.9 179.4,7.3 178.2,7.3 C177.1,7.3 176.6,8 176.5,8.9 L175.1,8.6 C175.3,7.1 176.6,6.1 178.3,6.1 C180.6,6.1 181.5,7.4 181.5,8.9 L181.5,12.8 C181.5,13.5 181.6,13.9 181.6,14.1 L180,14.1 C180,13.9 179.9,13.6 179.9,13.1 C179.6,13.6 178.8,14.4 177.4,14.4 C175.9,14.2 174.9,13.2 174.9,11.9 Z M177.7,13 C178.9,13 179.9,12.4 179.9,10.7 L179.9,10.3 L177.5,10.7 C176.9,10.8 176.4,11.2 176.4,11.9 C176.4,12.4 176.9,13 177.7,13 Z M187,7.5 C185.8,7.5 184.7,8.4 184.7,10.2 C184.7,12 185.8,12.9 187.1,12.9 C188.5,12.9 189.1,11.9 189.2,11.3 L190.5,11.9 C190.1,13 189,14.3 187,14.3 C184.8,14.3 183.1,12.5 183.1,10.2 C183.1,7.8 184.8,6.1 187,6.1 C189,6.1 190.1,7.4 190.4,8.5 L189,9.1 C188.9,8.3 188.4,7.5 187,7.5 Z M195.5,7.5 C194.3,7.5 193.2,8.4 193.2,10.2 C193.2,12 194.3,12.9 195.6,12.9 C197,12.9 197.6,11.9 197.7,11.3 L199,11.9 C198.6,13 197.5,14.3 195.5,14.3 C193.3,14.3 191.6,12.5 191.6,10.2 C191.6,7.8 193.3,6.1 195.5,6.1 C197.5,6.1 198.6,7.4 198.9,8.5 L197.5,9.1 C197.4,8.3 196.8,7.5 195.5,7.5 Z M204.1,12.9 C205.4,12.9 206.5,11.9 206.5,10.1 C206.5,8.3 205.4,7.4 204.1,7.4 C202.8,7.4 201.7,8.4 201.7,10.1 C201.7,11.9 202.8,12.9 204.1,12.9 Z M204.1,6.1 C206.4,6.1 208,7.8 208,10.2 C208,12.6 206.4,14.3 204.1,14.3 C201.8,14.3 200.2,12.6 200.2,10.2 C200.1,7.8 201.8,6.1 204.1,6.1 Z M215,13.1 C214.6,13.9 213.6,14.3 212.7,14.3 C210.9,14.3 209.8,13 209.8,11.2 L209.8,6.4 L211.3,6.4 L211.3,11 C211.3,12.1 211.8,13 213,13 C214.2,13 214.8,12.2 214.8,11 L214.8,6.4 L216.3,6.4 L216.3,12.7 C216.3,13.3 216.3,13.9 216.4,14.1 L215,14.1 C215,13.8 215,13.4 215,13.1 Z M220.5,9.6 L220.5,14 L219,14 L219,6.3 L220.5,6.3 L220.5,7.4 C221.1,6.4 222,6.1 222.9,6.1 C224.7,6.1 225.7,7.4 225.7,9.1 L225.7,14 L224.2,14 L224.2,9.4 C224.2,8.3 223.8,7.5 222.4,7.5 C221.1,7.4 220.5,8.4 220.5,9.6 Z M230.1,3.9 L230.1,6.3 L231.8,6.3 L231.8,7.7 L230.1,7.7 L230.1,11.7 C230.1,12.4 230.4,12.8 231.2,12.8 C231.4,12.8 231.7,12.8 231.8,12.7 L231.8,14 C231.7,14 231.3,14.1 230.8,14.1 C229.5,14.1 228.7,13.3 228.7,11.9 L228.7,7.7 L227.2,7.7 L227.2,6.3 L227.6,6.3 C228.4,6.3 228.8,5.8 228.8,5.1 L228.8,3.9 L230.1,3.9 Z M239.4,14 L237.9,14 L237.9,6.3 L239.4,6.3 L239.4,14 Z M237.6,3.4 C237.6,2.8 238.1,2.3 238.7,2.3 C239.3,2.3 239.8,2.8 239.8,3.4 C239.8,4 239.3,4.5 238.7,4.5 C238.1,4.5 237.6,4 237.6,3.4 Z M241.3,12 L242.7,11.5 C242.8,12.3 243.4,12.9 244.5,12.9 C245.3,12.9 245.8,12.4 245.8,11.9 C245.8,11.4 245.4,11.1 244.8,10.9 L243.5,10.6 C242.3,10.3 241.6,9.5 241.6,8.4 C241.6,7.1 242.8,6 244.3,6 C246.4,6 247.1,7.4 247.2,8.1 L245.9,8.6 C245.8,8.2 245.5,7.3 244.3,7.3 C243.5,7.3 243,7.8 243,8.3 C243,8.8 243.3,9.1 243.9,9.2 L245.1,9.5 C246.5,9.8 247.2,10.7 247.2,11.8 C247.2,12.9 246.3,14.2 244.4,14.2 C242.4,14.2 241.5,12.9 241.3,12 Z M256.7,7.5 C255.5,7.5 254.4,8.4 254.4,10.2 C254.4,12 255.5,12.9 256.8,12.9 C258.2,12.9 258.8,11.9 258.9,11.3 L260.2,11.9 C259.8,13 258.7,14.3 256.7,14.3 C254.5,14.3 252.8,12.5 252.8,10.2 C252.8,7.8 254.5,6.1 256.7,6.1 C258.7,6.1 259.8,7.4 260.1,8.5 L258.7,9.1 C258.5,8.3 258,7.5 256.7,7.5 Z M263.5,14 L262,14 L262,2.4 L263.5,2.4 L263.5,14 Z M269.4,12.9 C270.7,12.9 271.8,11.9 271.8,10.1 C271.8,8.3 270.7,7.4 269.4,7.4 C268.1,7.4 267,8.4 267,10.1 C267,11.9 268.1,12.9 269.4,12.9 Z M269.4,6.1 C271.7,6.1 273.3,7.8 273.3,10.2 C273.3,12.6 271.7,14.3 269.4,14.3 C267.1,14.3 265.5,12.6 265.5,10.2 C265.5,7.8 267.1,6.1 269.4,6.1 Z M274.6,12 L276,11.5 C276.1,12.3 276.7,12.9 277.8,12.9 C278.6,12.9 279.1,12.4 279.1,11.9 C279.1,11.4 278.7,11.1 278.1,10.9 L276.8,10.6 C275.6,10.3 274.9,9.5 274.9,8.4 C274.9,7.1 276.1,6 277.6,6 C279.7,6 280.4,7.4 280.5,8.1 L279.2,8.6 C279.1,8.2 278.8,7.3 277.6,7.3 C276.8,7.3 276.3,7.8 276.3,8.3 C276.3,8.8 276.6,9.1 277.2,9.2 L278.4,9.5 C279.8,9.8 280.5,10.7 280.5,11.8 C280.5,12.9 279.6,14.2 277.7,14.2 C275.6,14.2 274.7,12.9 274.6,12 Z M283.5,9.4 L287.7,9.4 C287.7,8.3 286.9,7.4 285.6,7.4 C284.4,7.4 283.6,8.4 283.5,9.4 Z M288,11.4 L289.3,11.8 C288.9,13.2 287.6,14.2 285.8,14.2 C283.7,14.2 281.9,12.7 281.9,10.1 C281.9,7.7 283.6,6 285.6,6 C288,6 289.3,7.6 289.3,10 C289.3,10.2 289.3,10.4 289.3,10.5 L283.5,10.5 C283.5,11.9 284.5,12.8 285.8,12.8 C287.1,12.9 287.7,12.2 288,11.4 Z M292.2,10.1 C292.2,11.7 293,12.9 294.5,12.9 C295.9,12.9 296.7,11.7 296.7,10.1 C296.7,8.5 295.9,7.4 294.5,7.4 C293.1,7.4 292.2,8.5 292.2,10.1 Z M296.7,13 L296.7,12.9 C296.3,13.6 295.5,14.3 294.3,14.3 C292,14.3 290.7,12.5 290.7,10.2 C290.7,8 292.2,6.2 294.3,6.2 C295.7,6.2 296.4,6.9 296.7,7.5 L296.7,2.5 L298.2,2.5 L298.2,12.7 C298.2,13.4 298.3,14 298.3,14.1 L296.8,14.1 C296.7,13.8 296.7,13.4 296.7,13 Z" id="Keep-visits-until-th" fill="#0A0A47"></path>
                    </g>
                </g>
            </g>
            <path d="M44.8,46 L42.3,41.1 L41,41.1 L41,46 L38.5,46 L38.5,33.2 L43.5,33.2 C46,33.2 47.6,34.9 47.6,37.1 C47.6,38.9 46.6,40.2 44.9,40.7 L47.6,45.9 L44.8,45.9 L44.8,46 Z M41,38.9 L43,38.9 C44.3,38.9 45,38.2 45,37.1 C45,36 44.3,35.3 43,35.3 L41,35.3 L41,38.9 Z M51.1,40.6 L55.1,40.6 C55.1,39.7 54.5,38.9 53.1,38.9 C51.8,38.8 51.1,39.8 51.1,40.6 Z M55.3,42.9 L57.3,43.5 C56.8,45 55.4,46.3 53.3,46.3 C50.9,46.3 48.7,44.6 48.7,41.6 C48.7,38.8 50.8,36.9 53.1,36.9 C55.8,36.9 57.5,38.6 57.5,41.5 C57.5,41.8 57.5,42.2 57.5,42.2 L51,42.2 C51.1,43.4 52,44.2 53.2,44.2 C54.4,44.2 55,43.7 55.3,42.9 Z M62.3,34.5 L62.3,37.1 L64.1,37.1 L64.1,39.2 L62.3,39.2 L62.3,42.9 C62.3,43.7 62.7,43.9 63.3,43.9 C63.6,43.9 63.9,43.9 64,43.8 L64,45.8 C63.8,45.9 63.4,46 62.7,46 C61,46 59.9,45 59.9,43.3 L59.9,39.2 L58.3,39.2 L58.3,37.1 L58.8,37.1 C59.7,37.1 60.2,36.5 60.2,35.7 L60.2,34.5 L62.3,34.5 Z M67.9,40.6 L71.9,40.6 C71.9,39.7 71.3,38.9 69.9,38.9 C68.6,38.8 67.9,39.8 67.9,40.6 Z M72,42.9 L74,43.5 C73.6,45 72.1,46.3 70,46.3 C67.6,46.3 65.4,44.6 65.4,41.6 C65.4,38.8 67.5,36.9 69.8,36.9 C72.5,36.9 74.2,38.6 74.2,41.5 C74.2,41.8 74.2,42.2 74.2,42.2 L67.9,42.2 C68,43.4 68.9,44.2 70.1,44.2 C71.1,44.2 71.8,43.7 72,42.9 Z M78.5,40.9 L78.5,46 L76.1,46 L76.1,37.1 L78.4,37.1 L78.4,38.2 C78.9,37.3 80,36.9 81,36.9 C83.2,36.9 84.2,38.5 84.2,40.4 L84.2,46 L81.8,46 L81.8,40.8 C81.8,39.8 81.3,39 80.2,39 C79.1,39.1 78.5,39.9 78.5,40.9 Z M89.7,34.5 L89.7,37.1 L91.5,37.1 L91.5,39.2 L89.7,39.2 L89.7,42.9 C89.7,43.7 90.1,43.9 90.7,43.9 C91,43.9 91.3,43.9 91.4,43.8 L91.4,45.8 C91.2,45.9 90.8,46 90,46 C88.3,46 87.2,45 87.2,43.3 L87.2,39.2 L85.6,39.2 L85.6,37.1 L86,37.1 C86.9,37.1 87.4,36.5 87.4,35.7 L87.4,34.5 L89.7,34.5 Z M95.9,46 L93.5,46 L93.5,37.1 L95.9,37.1 L95.9,46 Z M93.2,34.2 C93.2,33.4 93.9,32.7 94.7,32.7 C95.5,32.7 96.2,33.4 96.2,34.2 C96.2,35 95.6,35.7 94.7,35.7 C93.9,35.7 93.2,35 93.2,34.2 Z M102.5,44.1 C103.7,44.1 104.7,43.3 104.7,41.6 C104.7,39.9 103.6,39.1 102.5,39.1 C101.4,39.1 100.3,39.9 100.3,41.6 C100.3,43.2 101.4,44.1 102.5,44.1 Z M102.5,36.9 C105.1,36.9 107.1,38.9 107.1,41.6 C107.1,44.3 105.1,46.3 102.5,46.3 C99.9,46.3 97.9,44.3 97.9,41.6 C97.9,38.8 99.9,36.9 102.5,36.9 Z M111.5,40.9 L111.5,46 L109.1,46 L109.1,37.1 L111.4,37.1 L111.4,38.2 C111.9,37.3 113,36.9 114,36.9 C116.2,36.9 117.2,38.5 117.2,40.4 L117.2,46 L114.8,46 L114.8,40.8 C114.8,39.8 114.3,39 113.2,39 C112.1,39.1 111.5,39.9 111.5,40.9 Z M126.6,49.4 L124.2,49.4 L124.2,37.1 L126.5,37.1 L126.5,38.2 C126.9,37.5 127.9,36.9 129.2,36.9 C131.8,36.9 133.3,38.9 133.3,41.5 C133.3,44.2 131.6,46.2 129.1,46.2 C127.9,46.2 127,45.7 126.5,45.1 L126.5,49.4 L126.6,49.4 Z M131,41.6 C131,40 130,39.1 128.8,39.1 C127.6,39.1 126.6,40 126.6,41.6 C126.6,43.2 127.6,44.1 128.8,44.1 C130,44.1 131,43.2 131,41.6 Z M137,40.6 L141,40.6 C141,39.7 140.4,38.9 139,38.9 C137.8,38.8 137.1,39.8 137,40.6 Z M141.2,42.9 L143.2,43.5 C142.8,45 141.3,46.3 139.2,46.3 C136.8,46.3 134.6,44.6 134.6,41.6 C134.6,38.8 136.7,36.9 139,36.9 C141.7,36.9 143.4,38.6 143.4,41.5 C143.4,41.8 143.4,42.2 143.4,42.2 L137,42.2 C137.1,43.4 138,44.2 139.2,44.2 C140.3,44.2 140.9,43.7 141.2,42.9 Z M150.7,37.1 L150.7,39.5 C150.4,39.4 150.2,39.4 150,39.4 C148.8,39.4 147.7,40 147.7,41.9 L147.7,46 L145.3,46 L145.3,37.1 L147.6,37.1 L147.6,38.4 C148.1,37.2 149.4,37 150.1,37 C150.4,37.1 150.5,37.1 150.7,37.1 Z M154.9,46 L152.5,46 L152.5,37.1 L154.9,37.1 L154.9,46 Z M152.2,34.2 C152.2,33.4 152.9,32.7 153.7,32.7 C154.5,32.7 155.2,33.4 155.2,34.2 C155.2,35 154.6,35.7 153.7,35.7 C152.9,35.7 152.2,35 152.2,34.2 Z M161.5,44.1 C162.7,44.1 163.7,43.3 163.7,41.6 C163.7,39.9 162.6,39.1 161.5,39.1 C160.4,39.1 159.3,39.9 159.3,41.6 C159.2,43.2 160.3,44.1 161.5,44.1 Z M161.5,36.9 C164.1,36.9 166.1,38.9 166.1,41.6 C166.1,44.3 164.1,46.3 161.5,46.3 C158.9,46.3 156.9,44.3 156.9,41.6 C156.8,38.8 158.8,36.9 161.5,36.9 Z M176.5,33 L176.5,44.4 C176.5,45 176.5,45.6 176.6,46 L174.3,46 C174.3,45.8 174.2,45.4 174.2,45 C173.8,45.7 172.9,46.2 171.7,46.2 C169.2,46.2 167.4,44.2 167.4,41.5 C167.4,38.9 169.1,36.9 171.6,36.9 C173.1,36.9 173.8,37.5 174.1,38 L174.1,33 L176.5,33 Z M169.8,41.6 C169.8,43.2 170.7,44.1 172,44.1 C173.2,44.1 174.2,43.2 174.2,41.6 C174.2,40 173.2,39.1 172,39.1 C170.8,39.1 169.8,40 169.8,41.6 Z" id="Retention-period" fill="#0A0A47"></path>
            <path d="M46.3,77 L45.1,73.8 L40.1,73.8 L38.9,77 L37.2,77 L41.7,65.7 L43.5,65.7 L48,77 L46.3,77 Z M42.5,67.3 L40.6,72.4 L44.5,72.4 L42.5,67.3 Z M54.2,76.1 C53.8,76.9 52.8,77.3 51.9,77.3 C50.1,77.3 49,76 49,74.2 L49,69.4 L50.5,69.4 L50.5,74 C50.5,75.1 51,76 52.2,76 C53.4,76 54,75.2 54,74 L54,69.4 L55.5,69.4 L55.5,75.7 C55.5,76.3 55.5,76.9 55.6,77.1 L54.2,77.1 C54.2,76.8 54.2,76.4 54.2,76.1 Z M60.2,66.9 L60.2,69.3 L61.9,69.3 L61.9,70.7 L60.2,70.7 L60.2,74.7 C60.2,75.4 60.5,75.8 61.3,75.8 C61.5,75.8 61.8,75.8 61.9,75.7 L61.9,77 C61.8,77 61.4,77.1 60.9,77.1 C59.6,77.1 58.8,76.3 58.8,74.9 L58.8,70.7 L57.3,70.7 L57.3,69.3 L57.7,69.3 C58.5,69.3 58.9,68.8 58.9,68.1 L58.9,66.9 L60.2,66.9 L60.2,66.9 Z M67.2,75.9 C68.5,75.9 69.6,74.9 69.6,73.1 C69.6,71.3 68.5,70.4 67.2,70.4 C65.9,70.4 64.8,71.4 64.8,73.1 C64.8,74.9 65.9,75.9 67.2,75.9 Z M67.2,69.1 C69.5,69.1 71.1,70.8 71.1,73.2 C71.1,75.6 69.5,77.3 67.2,77.3 C64.9,77.3 63.3,75.6 63.3,73.2 C63.2,70.8 64.9,69.1 67.2,69.1 Z M74.6,77 L73.1,77 L73.1,69.3 L74.5,69.3 L74.5,70.3 C75,69.5 75.9,69.1 76.8,69.1 C77.8,69.1 78.7,69.6 79.1,70.6 C79.7,69.5 80.7,69.1 81.7,69.1 C83,69.1 84.4,70 84.4,72 L84.4,77 L82.9,77 L82.9,72.2 C82.9,71.2 82.4,70.4 81.3,70.4 C80.2,70.4 79.5,71.2 79.5,72.3 L79.5,77 L78,77 L78,72.2 C78,71.2 77.5,70.4 76.4,70.4 C75.3,70.4 74.6,71.2 74.6,72.4 L74.6,77 Z M86.4,74.9 C86.4,73.5 87.4,72.8 88.7,72.6 L90.8,72.3 C91.3,72.2 91.4,72 91.4,71.7 C91.4,70.9 90.9,70.3 89.7,70.3 C88.6,70.3 88.1,71 88,71.9 L86.6,71.6 C86.8,70.1 88.1,69.1 89.8,69.1 C92.1,69.1 93,70.4 93,71.9 L93,75.8 C93,76.5 93.1,76.9 93.1,77.1 L91.6,77.1 C91.6,76.9 91.5,76.6 91.5,76.1 C91.2,76.6 90.4,77.4 89,77.4 C87.4,77.2 86.4,76.2 86.4,74.9 Z M89.1,76 C90.3,76 91.3,75.4 91.3,73.7 L91.3,73.3 L88.9,73.7 C88.3,73.8 87.8,74.2 87.8,74.9 C87.9,75.4 88.4,76 89.1,76 Z M97.3,66.9 L97.3,69.3 L99,69.3 L99,70.7 L97.3,70.7 L97.3,74.7 C97.3,75.4 97.6,75.8 98.4,75.8 C98.6,75.8 98.9,75.8 99,75.7 L99,77 C98.9,77 98.5,77.1 98,77.1 C96.7,77.1 95.9,76.3 95.9,74.9 L95.9,70.7 L94.4,70.7 L94.4,69.3 L94.8,69.3 C95.6,69.3 96,68.8 96,68.1 L96,66.9 L97.3,66.9 L97.3,66.9 Z M102.5,77 L101,77 L101,69.3 L102.5,69.3 L102.5,77 Z M100.7,66.4 C100.7,65.8 101.2,65.3 101.8,65.3 C102.4,65.3 102.9,65.8 102.9,66.4 C102.9,67 102.4,67.5 101.8,67.5 C101.2,67.5 100.7,67 100.7,66.4 Z M108.3,70.5 C107.1,70.5 106,71.4 106,73.2 C106,75 107.1,75.9 108.4,75.9 C109.8,75.9 110.4,74.9 110.5,74.3 L111.8,74.9 C111.4,76 110.3,77.3 108.3,77.3 C106.1,77.3 104.4,75.5 104.4,73.2 C104.4,70.8 106.1,69.1 108.3,69.1 C110.3,69.1 111.4,70.4 111.7,71.5 L110.3,72.1 C110.2,71.3 109.7,70.5 108.3,70.5 Z M113.1,74.9 C113.1,73.5 114.1,72.8 115.4,72.6 L117.5,72.3 C118,72.2 118.1,72 118.1,71.7 C118.1,70.9 117.6,70.3 116.4,70.3 C115.3,70.3 114.8,71 114.7,71.9 L113.3,71.6 C113.5,70.1 114.8,69.1 116.5,69.1 C118.8,69.1 119.7,70.4 119.7,71.9 L119.7,75.8 C119.7,76.5 119.8,76.9 119.8,77.1 L118.3,77.1 C118.3,76.9 118.2,76.6 118.2,76.1 C117.9,76.6 117.1,77.4 115.7,77.4 C114.1,77.2 113.1,76.2 113.1,74.9 Z M115.9,76 C117.1,76 118.1,75.4 118.1,73.7 L118.1,73.3 L115.7,73.7 C115.1,73.8 114.6,74.2 114.6,74.9 C114.6,75.4 115.1,76 115.9,76 Z M123.5,77 L122,77 L122,65.4 L123.5,65.4 L123.5,77 Z M127.6,77 L126.1,77 L126.1,65.4 L127.6,65.4 L127.6,77 Z M132.2,80.2 L130.6,80.2 L132.5,76.1 L129.2,69.3 L130.9,69.3 L133.3,74.6 L135.6,69.3 L137.2,69.3 L132.2,80.2 Z M143.6,73.1 C143.6,74.7 144.4,75.9 145.9,75.9 C147.3,75.9 148.1,74.7 148.1,73.1 C148.1,71.5 147.3,70.4 145.9,70.4 C144.5,70.4 143.6,71.5 143.6,73.1 Z M148.1,76 L148.1,75.9 C147.7,76.6 146.9,77.3 145.7,77.3 C143.4,77.3 142.1,75.5 142.1,73.2 C142.1,71 143.6,69.2 145.7,69.2 C147.1,69.2 147.8,69.9 148.1,70.5 L148.1,65.5 L149.6,65.5 L149.6,75.7 C149.6,76.4 149.7,77 149.7,77.1 L148.2,77.1 C148.2,76.8 148.1,76.4 148.1,76 Z M153.2,72.4 L157.4,72.4 C157.4,71.3 156.6,70.4 155.3,70.4 C154,70.4 153.2,71.4 153.2,72.4 Z M157.6,74.4 L158.9,74.8 C158.5,76.2 157.2,77.2 155.4,77.2 C153.3,77.2 151.5,75.7 151.5,73.1 C151.5,70.7 153.2,69 155.2,69 C157.6,69 158.9,70.6 158.9,73 C158.9,73.2 158.9,73.4 158.9,73.5 L153.1,73.5 C153.1,74.9 154.1,75.8 155.4,75.8 C156.7,75.9 157.3,75.2 157.6,74.4 Z M162.4,77 L160.9,77 L160.9,65.4 L162.4,65.4 L162.4,77 Z M166,72.4 L170.2,72.4 C170.2,71.3 169.4,70.4 168.1,70.4 C166.9,70.4 166.1,71.4 166,72.4 Z M170.5,74.4 L171.8,74.8 C171.4,76.2 170.1,77.2 168.3,77.2 C166.2,77.2 164.4,75.7 164.4,73.1 C164.4,70.7 166.1,69 168.1,69 C170.5,69 171.8,70.6 171.8,73 C171.8,73.2 171.8,73.4 171.8,73.5 L166,73.5 C166,74.9 167,75.8 168.3,75.8 C169.5,75.9 170.2,75.2 170.5,74.4 Z M175.8,66.9 L175.8,69.3 L177.5,69.3 L177.5,70.7 L175.8,70.7 L175.8,74.7 C175.8,75.4 176.1,75.8 176.9,75.8 C177.1,75.8 177.4,75.8 177.5,75.7 L177.5,77 C177.4,77 177,77.1 176.5,77.1 C175.2,77.1 174.4,76.3 174.4,74.9 L174.4,70.7 L172.9,70.7 L172.9,69.3 L173.3,69.3 C174.1,69.3 174.5,68.8 174.5,68.1 L174.5,66.9 L175.8,66.9 L175.8,66.9 Z M180.4,72.4 L184.6,72.4 C184.6,71.3 183.8,70.4 182.5,70.4 C181.2,70.4 180.5,71.4 180.4,72.4 Z M184.8,74.4 L186.1,74.8 C185.7,76.2 184.4,77.2 182.6,77.2 C180.5,77.2 178.7,75.7 178.7,73.1 C178.7,70.7 180.4,69 182.4,69 C184.8,69 186.1,70.6 186.1,73 C186.1,73.2 186.1,73.4 186.1,73.5 L180.3,73.5 C180.3,74.9 181.3,75.8 182.6,75.8 C183.9,75.9 184.6,75.2 184.8,74.4 Z M198.8,69.3 L195.7,77 L194.2,77 L191.1,69.3 L192.8,69.3 L195,75.2 L197.2,69.3 L198.8,69.3 Z M201.8,77 L200.3,77 L200.3,69.3 L201.8,69.3 L201.8,77 Z M200,66.4 C200,65.8 200.5,65.3 201.1,65.3 C201.7,65.3 202.2,65.8 202.2,66.4 C202.2,67 201.7,67.5 201.1,67.5 C200.5,67.5 200,67 200,66.4 Z M203.7,75 L205.1,74.5 C205.2,75.3 205.8,75.9 206.9,75.9 C207.7,75.9 208.2,75.4 208.2,74.9 C208.2,74.4 207.8,74.1 207.2,73.9 L205.9,73.6 C204.7,73.3 204,72.5 204,71.4 C204,70.1 205.2,69 206.7,69 C208.8,69 209.5,70.4 209.6,71.1 L208.3,71.6 C208.2,71.2 207.9,70.3 206.7,70.3 C205.9,70.3 205.4,70.8 205.4,71.3 C205.4,71.8 205.7,72.1 206.3,72.2 L207.5,72.5 C208.9,72.8 209.6,73.7 209.6,74.8 C209.6,75.9 208.7,77.2 206.8,77.2 C204.7,77.2 203.8,75.9 203.7,75 Z M213.2,77 L211.7,77 L211.7,69.3 L213.2,69.3 L213.2,77 Z M211.4,66.4 C211.4,65.8 211.9,65.3 212.5,65.3 C213.1,65.3 213.6,65.8 213.6,66.4 C213.6,67 213.1,67.5 212.5,67.5 C211.9,67.5 211.4,67 211.4,66.4 Z M217.8,66.9 L217.8,69.3 L219.5,69.3 L219.5,70.7 L217.8,70.7 L217.8,74.7 C217.8,75.4 218.1,75.8 218.9,75.8 C219.1,75.8 219.4,75.8 219.5,75.7 L219.5,77 C219.4,77 219,77.1 218.5,77.1 C217.2,77.1 216.4,76.3 216.4,74.9 L216.4,70.7 L214.9,70.7 L214.9,69.3 L215.3,69.3 C216.1,69.3 216.5,68.8 216.5,68.1 L216.5,66.9 L217.8,66.9 L217.8,66.9 Z M220.9,75 L222.3,74.5 C222.4,75.3 223,75.9 224.1,75.9 C224.9,75.9 225.4,75.4 225.4,74.9 C225.4,74.4 225,74.1 224.4,73.9 L223.1,73.6 C221.9,73.3 221.2,72.5 221.2,71.4 C221.2,70.1 222.4,69 223.9,69 C226,69 226.7,70.4 226.8,71.1 L225.5,71.6 C225.4,71.2 225.1,70.3 223.9,70.3 C223.1,70.3 222.6,70.8 222.6,71.3 C222.6,71.8 222.9,72.1 223.5,72.2 L224.7,72.5 C226.1,72.8 226.8,73.7 226.8,74.8 C226.8,75.9 225.9,77.2 224,77.2 C221.9,77.2 221,75.9 220.9,75 Z M232.5,74.9 C232.5,73.5 233.5,72.8 234.8,72.6 L236.9,72.3 C237.4,72.2 237.5,72 237.5,71.7 C237.5,70.9 237,70.3 235.8,70.3 C234.7,70.3 234.2,71 234.1,71.9 L232.7,71.6 C232.9,70.1 234.2,69.1 235.9,69.1 C238.2,69.1 239.1,70.4 239.1,71.9 L239.1,75.8 C239.1,76.5 239.2,76.9 239.2,77.1 L237.7,77.1 C237.7,76.9 237.6,76.6 237.6,76.1 C237.3,76.6 236.5,77.4 235.1,77.4 C233.5,77.2 232.5,76.2 232.5,74.9 Z M235.3,76 C236.5,76 237.5,75.4 237.5,73.7 L237.5,73.3 L235.1,73.7 C234.5,73.8 234,74.2 234,74.9 C234,75.4 234.5,76 235.3,76 Z M245.3,70.7 L243.4,70.7 L243.4,77 L241.8,77 L241.8,70.7 L240.4,70.7 L240.4,69.3 L241.8,69.3 L241.8,68 C241.8,66.3 242.9,65.4 244.3,65.4 C244.8,65.4 245.1,65.5 245.2,65.6 L245.2,66.9 C245.1,66.9 244.9,66.8 244.5,66.8 C244,66.8 243.3,67.1 243.3,68.1 L243.3,69.3 L245.2,69.3 L245.2,70.7 L245.3,70.7 Z M249,66.9 L249,69.3 L250.7,69.3 L250.7,70.7 L249,70.7 L249,74.7 C249,75.4 249.3,75.8 250.1,75.8 C250.3,75.8 250.6,75.8 250.7,75.7 L250.7,77 C250.6,77 250.2,77.1 249.7,77.1 C248.4,77.1 247.6,76.3 247.6,74.9 L247.6,70.7 L246,70.7 L246,69.3 L246.4,69.3 C247.2,69.3 247.6,68.8 247.6,68.1 L247.6,66.9 L249,66.9 L249,66.9 Z M253.6,72.4 L257.8,72.4 C257.8,71.3 257,70.4 255.7,70.4 C254.4,70.4 253.7,71.4 253.6,72.4 Z M258,74.4 L259.3,74.8 C258.9,76.2 257.6,77.2 255.8,77.2 C253.7,77.2 251.9,75.7 251.9,73.1 C251.9,70.7 253.6,69 255.6,69 C258,69 259.3,70.6 259.3,73 C259.3,73.2 259.3,73.4 259.3,73.5 L253.5,73.5 C253.5,74.9 254.5,75.8 255.8,75.8 C257.1,75.9 257.7,75.2 258,74.4 Z M265.6,69.2 L265.6,70.8 C265.4,70.8 265.2,70.8 264.9,70.8 C263.6,70.8 262.8,71.5 262.8,73.2 L262.8,77.1 L261.3,77.1 L261.3,69.4 L262.8,69.4 L262.8,70.7 C263.4,69.5 264.3,69.2 265.1,69.2 C265.3,69.2 265.5,69.2 265.6,69.2 Z M270.9,74.9 C270.9,73.5 271.9,72.8 273.2,72.6 L275.3,72.3 C275.8,72.2 275.9,72 275.9,71.7 C275.9,70.9 275.4,70.3 274.2,70.3 C273.1,70.3 272.6,71 272.5,71.9 L271.1,71.6 C271.3,70.1 272.6,69.1 274.3,69.1 C276.6,69.1 277.5,70.4 277.5,71.9 L277.5,75.8 C277.5,76.5 277.6,76.9 277.6,77.1 L276,77.1 C276,76.9 275.9,76.6 275.9,76.1 C275.6,76.6 274.8,77.4 273.4,77.4 C271.9,77.2 270.9,76.2 270.9,74.9 Z M273.6,76 C274.8,76 275.8,75.4 275.8,73.7 L275.8,73.3 L273.4,73.7 C272.8,73.8 272.3,74.2 272.3,74.9 C272.4,75.4 272.9,76 273.6,76 Z M283.3,77.4 L284.8,77.1 C284.9,78.2 285.7,79 286.9,79 C288.5,79 289.3,78.2 289.3,76.5 L289.3,75.4 C288.9,76.1 288.1,76.7 286.9,76.7 C284.9,76.7 283.4,75.1 283.4,73 C283.4,70.9 284.8,69.3 286.9,69.3 C288.1,69.3 288.9,69.7 289.3,70.5 L289.3,69.4 L290.8,69.4 L290.8,76.5 C290.8,78.5 289.8,80.4 286.9,80.4 C284.9,80.3 283.4,79.1 283.3,77.4 Z M287,75.4 C288.3,75.4 289.2,74.4 289.2,72.9 C289.2,71.4 288.3,70.4 287,70.4 C285.7,70.4 284.8,71.4 284.8,72.9 C284.8,74.4 285.7,75.4 287,75.4 Z M294.6,77 L293.1,77 L293.1,69.3 L294.6,69.3 L294.6,77 Z M292.8,66.4 C292.8,65.8 293.3,65.3 293.9,65.3 C294.5,65.3 295,65.8 295,66.4 C295,67 294.5,67.5 293.9,67.5 C293.3,67.5 292.8,67 292.8,66.4 Z M303.8,69.3 L300.7,77 L299.2,77 L296.1,69.3 L297.8,69.3 L300,75.2 L302.2,69.3 L303.8,69.3 Z M306.1,72.4 L310.3,72.4 C310.3,71.3 309.5,70.4 308.2,70.4 C306.9,70.4 306.1,71.4 306.1,72.4 Z M310.5,74.4 L311.8,74.8 C311.4,76.2 310.1,77.2 308.3,77.2 C306.2,77.2 304.4,75.7 304.4,73.1 C304.4,70.7 306.1,69 308.1,69 C310.5,69 311.8,70.6 311.8,73 C311.8,73.2 311.8,73.4 311.8,73.5 L306,73.5 C306,74.9 307,75.8 308.3,75.8 C309.6,75.9 310.2,75.2 310.5,74.4 Z M315.3,72.6 L315.3,77 L313.8,77 L313.8,69.3 L315.3,69.3 L315.3,70.4 C315.9,69.4 316.8,69.1 317.7,69.1 C319.5,69.1 320.5,70.4 320.5,72.1 L320.5,77 L319,77 L319,72.4 C319,71.3 318.6,70.5 317.2,70.5 C315.9,70.4 315.3,71.4 315.3,72.6 Z M328.4,72.6 L328.4,77 L326.9,77 L326.9,69.3 L328.4,69.3 L328.4,70.4 C329,69.4 329.9,69.1 330.8,69.1 C332.6,69.1 333.6,70.4 333.6,72.1 L333.6,77 L332,77 L332,72.4 C332,71.3 331.6,70.5 330.2,70.5 C329,70.4 328.4,71.4 328.4,72.6 Z M340.9,76.1 C340.5,76.9 339.5,77.3 338.6,77.3 C336.8,77.3 335.7,76 335.7,74.2 L335.7,69.4 L337.2,69.4 L337.2,74 C337.2,75.1 337.7,76 338.9,76 C340.1,76 340.7,75.2 340.7,74 L340.7,69.4 L342.2,69.4 L342.2,75.7 C342.2,76.3 342.2,76.9 342.3,77.1 L340.9,77.1 C340.9,76.8 340.9,76.4 340.9,76.1 Z M346.4,77 L344.9,77 L344.9,69.3 L346.3,69.3 L346.3,70.3 C346.8,69.5 347.7,69.1 348.6,69.1 C349.6,69.1 350.5,69.6 350.9,70.6 C351.5,69.5 352.5,69.1 353.5,69.1 C354.8,69.1 356.2,70 356.2,72 L356.2,77 L354.7,77 L354.7,72.2 C354.7,71.2 354.2,70.4 353.1,70.4 C352,70.4 351.3,71.2 351.3,72.3 L351.3,77 L349.8,77 L349.8,72.2 C349.8,71.2 349.3,70.4 348.2,70.4 C347.1,70.4 346.4,71.2 346.4,72.4 L346.4,77 L346.4,77 Z M360.2,77 L358.7,77 L358.7,65.4 L360.2,65.4 L360.2,70.4 C360.6,69.7 361.5,69.1 362.7,69.1 C365,69.1 366.2,70.9 366.2,73.1 C366.2,75.4 364.9,77.2 362.6,77.2 C361.5,77.2 360.6,76.7 360.1,75.9 L360.1,77 L360.2,77 Z M364.7,73.1 C364.7,71.4 363.8,70.4 362.4,70.4 C361.1,70.4 360.1,71.4 360.1,73.1 C360.1,74.8 361.1,75.9 362.4,75.9 C363.8,75.9 364.7,74.8 364.7,73.1 Z M369.2,72.4 L373.4,72.4 C373.4,71.3 372.6,70.4 371.3,70.4 C370,70.4 369.3,71.4 369.2,72.4 Z M373.6,74.4 L374.9,74.8 C374.5,76.2 373.2,77.2 371.4,77.2 C369.3,77.2 367.5,75.7 367.5,73.1 C367.5,70.7 369.2,69 371.2,69 C373.6,69 374.9,70.6 374.9,73 C374.9,73.2 374.9,73.4 374.9,73.5 L369.1,73.5 C369.1,74.9 370.1,75.8 371.4,75.8 C372.7,75.9 373.4,75.2 373.6,74.4 Z M381.2,69.2 L381.2,70.8 C381,70.8 380.8,70.8 380.5,70.8 C379.2,70.8 378.4,71.5 378.4,73.2 L378.4,77.1 L377,77.1 L377,69.4 L378.5,69.4 L378.5,70.7 C379.1,69.5 380,69.2 380.8,69.2 C381,69.2 381.2,69.2 381.2,69.2 Z M390.3,75.9 C391.6,75.9 392.7,74.9 392.7,73.1 C392.7,71.3 391.6,70.4 390.3,70.4 C389,70.4 387.9,71.4 387.9,73.1 C387.9,74.9 389,75.9 390.3,75.9 Z M390.3,69.1 C392.6,69.1 394.2,70.8 394.2,73.2 C394.2,75.6 392.6,77.3 390.3,77.3 C388,77.3 386.4,75.6 386.4,73.2 C386.3,70.8 387.9,69.1 390.3,69.1 Z M400,70.7 L398.1,70.7 L398.1,77 L396.5,77 L396.5,70.7 L395.1,70.7 L395.1,69.3 L396.5,69.3 L396.5,68 C396.5,66.3 397.6,65.4 399,65.4 C399.5,65.4 399.8,65.5 399.9,65.6 L399.9,66.9 C399.8,66.9 399.6,66.8 399.2,66.8 C398.7,66.8 398,67.1 398,68.1 L398,69.3 L399.9,69.3 L399.9,70.7 L400,70.7 Z M406.7,73.1 C406.7,74.7 407.5,75.9 409,75.9 C410.4,75.9 411.2,74.7 411.2,73.1 C411.2,71.5 410.4,70.4 409,70.4 C407.6,70.4 406.7,71.5 406.7,73.1 Z M411.2,76 L411.2,75.9 C410.8,76.6 410,77.3 408.8,77.3 C406.5,77.3 405.2,75.5 405.2,73.2 C405.2,71 406.7,69.2 408.8,69.2 C410.2,69.2 410.9,69.9 411.2,70.5 L411.2,65.5 L412.7,65.5 L412.7,75.7 C412.7,76.4 412.8,77 412.8,77.1 L411.3,77.1 C411.2,76.8 411.2,76.4 411.2,76 Z M414.8,74.9 C414.8,73.5 415.8,72.8 417.1,72.6 L419.2,72.3 C419.7,72.2 419.8,72 419.8,71.7 C419.8,70.9 419.3,70.3 418.1,70.3 C417,70.3 416.5,71 416.4,71.9 L415,71.6 C415.2,70.1 416.5,69.1 418.2,69.1 C420.5,69.1 421.4,70.4 421.4,71.9 L421.4,75.8 C421.4,76.5 421.5,76.9 421.5,77.1 L420,77.1 C420,76.9 419.9,76.6 419.9,76.1 C419.6,76.6 418.8,77.4 417.4,77.4 C415.8,77.2 414.8,76.2 414.8,74.9 Z M417.5,76 C418.7,76 419.7,75.4 419.7,73.7 L419.7,73.3 L417.3,73.7 C416.7,73.8 416.2,74.2 416.2,74.9 C416.3,75.4 416.8,76 417.5,76 Z M425.4,80.2 L423.8,80.2 L425.7,76.1 L422.4,69.3 L424.1,69.3 L426.5,74.6 L428.8,69.3 L430.4,69.3 L425.4,80.2 Z M431,75 L432.4,74.5 C432.5,75.3 433.1,75.9 434.2,75.9 C435,75.9 435.5,75.4 435.5,74.9 C435.5,74.4 435.1,74.1 434.5,73.9 L433.2,73.6 C432,73.3 431.3,72.5 431.3,71.4 C431.3,70.1 432.5,69 434,69 C436.1,69 436.8,70.4 436.9,71.1 L435.6,71.6 C435.5,71.2 435.2,70.3 434,70.3 C433.2,70.3 432.7,70.8 432.7,71.3 C432.7,71.8 433,72.1 433.6,72.2 L434.8,72.5 C436.2,72.8 436.9,73.7 436.9,74.8 C436.9,75.9 436,77.2 434.1,77.2 C432.1,77.2 431.2,75.9 431,75 Z M39.8,102 L38.3,102 L38.3,94.3 L39.8,94.3 L39.8,102 Z M37.9,91.4 C37.9,90.8 38.4,90.3 39,90.3 C39.6,90.3 40.1,90.8 40.1,91.4 C40.1,92 39.6,92.5 39,92.5 C38.4,92.5 37.9,92 37.9,91.4 Z M43.9,97.6 L43.9,102 L42.4,102 L42.4,94.3 L43.9,94.3 L43.9,95.4 C44.5,94.4 45.4,94.1 46.3,94.1 C48.1,94.1 49.1,95.4 49.1,97.1 L49.1,102 L47.6,102 L47.6,97.4 C47.6,96.3 47.2,95.5 45.8,95.5 C44.5,95.4 43.9,96.4 43.9,97.6 Z M58.8,100.9 C60.1,100.9 61.2,99.9 61.2,98.1 C61.2,96.3 60.1,95.4 58.8,95.4 C57.5,95.4 56.4,96.4 56.4,98.1 C56.4,99.9 57.5,100.9 58.8,100.9 Z M58.8,94.1 C61.1,94.1 62.7,95.8 62.7,98.2 C62.7,100.6 61.1,102.3 58.8,102.3 C56.5,102.3 54.9,100.6 54.9,98.2 C54.9,95.8 56.5,94.1 58.8,94.1 Z M69,94.2 L69,95.8 C68.8,95.8 68.6,95.8 68.3,95.8 C67,95.8 66.2,96.5 66.2,98.2 L66.2,102.1 L64.7,102.1 L64.7,94.4 L66.2,94.4 L66.2,95.7 C66.8,94.5 67.7,94.2 68.5,94.2 C68.7,94.2 68.9,94.2 69,94.2 Z M71.5,98.1 C71.5,99.7 72.3,100.9 73.8,100.9 C75.2,100.9 76,99.7 76,98.1 C76,96.5 75.2,95.4 73.8,95.4 C72.3,95.4 71.5,96.5 71.5,98.1 Z M75.9,101 L75.9,100.9 C75.5,101.6 74.7,102.3 73.5,102.3 C71.2,102.3 69.9,100.5 69.9,98.2 C69.9,96 71.4,94.2 73.5,94.2 C74.9,94.2 75.6,94.9 75.9,95.5 L75.9,90.5 L77.4,90.5 L77.4,100.7 C77.4,101.4 77.5,102 77.5,102.1 L76,102.1 C76,101.8 75.9,101.4 75.9,101 Z M81,97.4 L85.2,97.4 C85.2,96.3 84.4,95.4 83.1,95.4 C81.8,95.4 81.1,96.4 81,97.4 Z M85.4,99.4 L86.7,99.8 C86.3,101.2 85,102.2 83.2,102.2 C81.1,102.2 79.3,100.7 79.3,98.1 C79.3,95.7 81,94 83,94 C85.4,94 86.7,95.6 86.7,98 C86.7,98.2 86.7,98.4 86.7,98.5 L80.9,98.5 C80.9,99.9 81.9,100.8 83.2,100.8 C84.5,100.9 85.1,100.2 85.4,99.4 Z M93,94.2 L93,95.8 C92.8,95.8 92.6,95.8 92.3,95.8 C91,95.8 90.2,96.5 90.2,98.2 L90.2,102.1 L88.7,102.1 L88.7,94.4 L90.2,94.4 L90.2,95.7 C90.8,94.5 91.7,94.2 92.5,94.2 C92.7,94.2 92.9,94.2 93,94.2 Z M100.8,91.9 L100.8,94.3 L102.5,94.3 L102.5,95.7 L100.8,95.7 L100.8,99.7 C100.8,100.4 101.1,100.8 101.9,100.8 C102.1,100.8 102.4,100.8 102.5,100.7 L102.5,102 C102.4,102 102,102.1 101.5,102.1 C100.2,102.1 99.4,101.3 99.4,99.9 L99.4,95.7 L97.9,95.7 L97.9,94.3 L98.3,94.3 C99.1,94.3 99.5,93.8 99.5,93.1 L99.5,91.9 L100.8,91.9 L100.8,91.9 Z M107.7,100.9 C109,100.9 110.1,99.9 110.1,98.1 C110.1,96.3 109,95.4 107.7,95.4 C106.4,95.4 105.3,96.4 105.3,98.1 C105.3,99.9 106.4,100.9 107.7,100.9 Z M107.7,94.1 C110,94.1 111.6,95.8 111.6,98.2 C111.6,100.6 110,102.3 107.7,102.3 C105.4,102.3 103.8,100.6 103.8,98.2 C103.8,95.8 105.4,94.1 107.7,94.1 Z M120.9,95.5 C119.7,95.5 118.6,96.4 118.6,98.2 C118.6,100 119.7,100.9 121,100.9 C122.4,100.9 123,99.9 123.1,99.3 L124.4,99.9 C124,101 122.9,102.3 120.9,102.3 C118.7,102.3 117,100.5 117,98.2 C117,95.8 118.7,94.1 120.9,94.1 C122.9,94.1 124,95.4 124.3,96.5 L122.9,97.1 C122.8,96.3 122.2,95.5 120.9,95.5 Z M129.4,100.9 C130.7,100.9 131.8,99.9 131.8,98.1 C131.8,96.3 130.7,95.4 129.4,95.4 C128.1,95.4 127,96.4 127,98.1 C127,99.9 128.1,100.9 129.4,100.9 Z M129.4,94.1 C131.7,94.1 133.3,95.8 133.3,98.2 C133.3,100.6 131.7,102.3 129.4,102.3 C127.1,102.3 125.5,100.6 125.5,98.2 C125.5,95.8 127.1,94.1 129.4,94.1 Z M136.8,102 L135.3,102 L135.3,94.3 L136.7,94.3 L136.7,95.3 C137.2,94.5 138.1,94.1 139,94.1 C140,94.1 140.9,94.6 141.3,95.6 C141.9,94.5 142.9,94.1 143.9,94.1 C145.2,94.1 146.6,95 146.6,97 L146.6,102 L145.1,102 L145.1,97.2 C145.1,96.2 144.6,95.4 143.5,95.4 C142.4,95.4 141.7,96.2 141.7,97.3 L141.7,102 L140.2,102 L140.2,97.2 C140.2,96.2 139.7,95.4 138.6,95.4 C137.5,95.4 136.8,96.2 136.8,97.4 L136.8,102 Z M150.6,105 L149.1,105 L149.1,94.3 L150.6,94.3 L150.6,95.5 C151,94.7 151.9,94.1 153.2,94.1 C155.5,94.1 156.7,95.9 156.7,98.1 C156.7,100.4 155.4,102.2 153.1,102.2 C151.9,102.2 151,101.6 150.6,101 L150.6,105 Z M155.1,98.1 C155.1,96.6 154.2,95.4 152.8,95.4 C151.4,95.4 150.5,96.6 150.5,98.1 C150.5,99.7 151.4,100.8 152.8,100.8 C154.3,100.9 155.1,99.7 155.1,98.1 Z M160.2,102 L158.7,102 L158.7,90.4 L160.2,90.4 L160.2,102 Z M164.7,105.2 L163,105.2 L164.9,101.1 L161.6,94.3 L163.3,94.3 L165.7,99.6 L168,94.3 L169.6,94.3 L164.7,105.2 Z M176.7,102 L175.2,102 L175.2,94.3 L176.6,94.3 L176.6,95.3 C177.1,94.5 178,94.1 178.9,94.1 C179.9,94.1 180.8,94.6 181.2,95.6 C181.8,94.5 182.8,94.1 183.8,94.1 C185.1,94.1 186.5,95 186.5,97 L186.5,102 L185,102 L185,97.2 C185,96.2 184.5,95.4 183.4,95.4 C182.3,95.4 181.6,96.2 181.6,97.3 L181.6,102 L180.1,102 L180.1,97.2 C180.1,96.2 179.6,95.4 178.5,95.4 C177.4,95.4 176.7,96.2 176.7,97.4 L176.7,102 Z M192.3,100.9 C193.6,100.9 194.7,99.9 194.7,98.1 C194.7,96.3 193.6,95.4 192.3,95.4 C191,95.4 189.9,96.4 189.9,98.1 C189.9,99.9 191,100.9 192.3,100.9 Z M192.3,94.1 C194.6,94.1 196.2,95.8 196.2,98.2 C196.2,100.6 194.6,102.3 192.3,102.3 C190,102.3 188.4,100.6 188.4,98.2 C188.4,95.8 190,94.1 192.3,94.1 Z M202.5,94.2 L202.5,95.8 C202.3,95.8 202.1,95.8 201.8,95.8 C200.5,95.8 199.7,96.5 199.7,98.2 L199.7,102.1 L198.2,102.1 L198.2,94.4 L199.7,94.4 L199.7,95.7 C200.3,94.5 201.2,94.2 202,94.2 C202.2,94.2 202.4,94.2 202.5,94.2 Z M205.1,97.4 L209.3,97.4 C209.3,96.3 208.5,95.4 207.2,95.4 C205.9,95.4 205.1,96.4 205.1,97.4 Z M209.5,99.4 L210.8,99.8 C210.4,101.2 209.1,102.2 207.3,102.2 C205.2,102.2 203.4,100.7 203.4,98.1 C203.4,95.7 205.1,94 207.1,94 C209.5,94 210.8,95.6 210.8,98 C210.8,98.2 210.8,98.4 210.8,98.5 L205,98.5 C205,99.9 206,100.8 207.3,100.8 C208.6,100.9 209.2,100.2 209.5,99.4 Z M217.9,97.4 L222.1,97.4 C222.1,96.3 221.3,95.4 220,95.4 C218.7,95.4 217.9,96.4 217.9,97.4 Z M222.3,99.4 L223.6,99.8 C223.2,101.2 221.9,102.2 220.1,102.2 C218,102.2 216.2,100.7 216.2,98.1 C216.2,95.7 217.9,94 219.9,94 C222.3,94 223.6,95.6 223.6,98 C223.6,98.2 223.6,98.4 223.6,98.5 L217.8,98.5 C217.8,99.9 218.8,100.8 220.1,100.8 C221.4,100.9 222,100.2 222.3,99.4 Z M225.1,99.9 C225.1,98.5 226.1,97.8 227.4,97.6 L229.5,97.3 C230,97.2 230.1,97 230.1,96.7 C230.1,95.9 229.6,95.3 228.4,95.3 C227.3,95.3 226.8,96 226.7,96.9 L225.3,96.6 C225.5,95.1 226.8,94.1 228.5,94.1 C230.8,94.1 231.7,95.4 231.7,96.9 L231.7,100.8 C231.7,101.5 231.8,101.9 231.8,102.1 L230.3,102.1 C230.3,101.9 230.2,101.6 230.2,101.1 C229.9,101.6 229.1,102.4 227.7,102.4 C226.1,102.2 225.1,101.2 225.1,99.9 Z M227.9,101 C229.1,101 230.1,100.4 230.1,98.7 L230.1,98.3 L227.7,98.7 C227.1,98.8 226.6,99.2 226.6,99.9 C226.7,100.4 227.1,101 227.9,101 Z M233.3,100 L234.7,99.5 C234.8,100.3 235.4,100.9 236.5,100.9 C237.3,100.9 237.8,100.4 237.8,99.9 C237.8,99.4 237.4,99.1 236.8,98.9 L235.5,98.6 C234.3,98.3 233.6,97.5 233.6,96.4 C233.6,95.1 234.8,94 236.3,94 C238.4,94 239.1,95.4 239.2,96.1 L237.9,96.6 C237.8,96.2 237.5,95.3 236.3,95.3 C235.5,95.3 235,95.8 235,96.3 C235,96.8 235.3,97.1 235.9,97.2 L237.1,97.5 C238.5,97.8 239.2,98.7 239.2,99.8 C239.2,100.9 238.3,102.2 236.4,102.2 C234.3,102.2 233.4,100.9 233.3,100 Z M242.8,102 L241.3,102 L241.3,94.3 L242.8,94.3 L242.8,102 Z M241,91.4 C241,90.8 241.5,90.3 242.1,90.3 C242.7,90.3 243.2,90.8 243.2,91.4 C243.2,92 242.7,92.5 242.1,92.5 C241.5,92.5 241,92 241,91.4 Z M246.9,102 L245.4,102 L245.4,90.4 L246.9,90.4 L246.9,102 Z M251.5,105.2 L249.9,105.2 L251.8,101.1 L248.5,94.3 L250.2,94.3 L252.6,99.6 L254.9,94.3 L256.5,94.3 L251.5,105.2 Z M266.4,94.3 L268,94.3 L270,100.1 L271.7,94.3 L273.3,94.3 L270.8,102 L269.2,102 L267.2,96.1 L265.2,102 L263.6,102 L261.1,94.3 L262.7,94.3 L264.4,100.1 L266.4,94.3 Z M276.3,102 L274.8,102 L274.8,94.3 L276.3,94.3 L276.3,102 Z M274.4,91.4 C274.4,90.8 274.9,90.3 275.5,90.3 C276.1,90.3 276.6,90.8 276.6,91.4 C276.6,92 276.1,92.5 275.5,92.5 C274.9,92.5 274.4,92 274.4,91.4 Z M280.9,91.9 L280.9,94.3 L282.6,94.3 L282.6,95.7 L280.9,95.7 L280.9,99.7 C280.9,100.4 281.2,100.8 282,100.8 C282.2,100.8 282.5,100.8 282.6,100.7 L282.6,102 C282.5,102 282.1,102.1 281.6,102.1 C280.3,102.1 279.5,101.3 279.5,99.9 L279.5,95.7 L278,95.7 L278,94.3 L278.4,94.3 C279.2,94.3 279.6,93.8 279.6,93.1 L279.6,91.9 L280.9,91.9 L280.9,91.9 Z M286.1,97.5 L286.1,102 L284.6,102 L284.6,90.4 L286.1,90.4 L286.1,95.2 C286.7,94.4 287.6,94.1 288.4,94.1 C290.2,94.1 291.2,95.4 291.2,97.1 L291.2,102 L289.7,102 L289.7,97.4 C289.7,96.3 289.3,95.5 287.9,95.5 C286.8,95.4 286.2,96.3 286.1,97.5 Z M299.2,105 L297.7,105 L297.7,94.3 L299.2,94.3 L299.2,95.5 C299.6,94.7 300.5,94.1 301.8,94.1 C304.1,94.1 305.3,95.9 305.3,98.1 C305.3,100.4 304,102.2 301.7,102.2 C300.5,102.2 299.6,101.6 299.2,101 L299.2,105 Z M303.8,98.1 C303.8,96.6 302.9,95.4 301.5,95.4 C300.1,95.4 299.2,96.6 299.2,98.1 C299.2,99.7 300.1,100.8 301.5,100.8 C302.9,100.9 303.8,99.7 303.8,98.1 Z M311.6,94.2 L311.6,95.8 C311.4,95.8 311.2,95.8 310.9,95.8 C309.6,95.8 308.8,96.5 308.8,98.2 L308.8,102.1 L307.3,102.1 L307.3,94.4 L308.8,94.4 L308.8,95.7 C309.4,94.5 310.3,94.2 311.1,94.2 C311.3,94.2 311.5,94.2 311.6,94.2 Z M314.7,102 L313.2,102 L313.2,94.3 L314.7,94.3 L314.7,102 Z M312.9,91.4 C312.9,90.8 313.4,90.3 314,90.3 C314.6,90.3 315.1,90.8 315.1,91.4 C315.1,92 314.6,92.5 314,92.5 C313.4,92.5 312.9,92 312.9,91.4 Z M323.9,94.3 L320.8,102 L319.3,102 L316.2,94.3 L317.9,94.3 L320.1,100.2 L322.3,94.3 L323.9,94.3 Z M324.8,99.9 C324.8,98.5 325.8,97.8 327.1,97.6 L329.2,97.3 C329.7,97.2 329.8,97 329.8,96.7 C329.8,95.9 329.3,95.3 328.1,95.3 C327,95.3 326.5,96 326.4,96.9 L325,96.6 C325.2,95.1 326.5,94.1 328.2,94.1 C330.5,94.1 331.4,95.4 331.4,96.9 L331.4,100.8 C331.4,101.5 331.5,101.9 331.5,102.1 L330,102.1 C330,101.9 329.9,101.6 329.9,101.1 C329.6,101.6 328.8,102.4 327.4,102.4 C325.9,102.2 324.8,101.2 324.8,99.9 Z M327.6,101 C328.8,101 329.8,100.4 329.8,98.7 L329.8,98.3 L327.4,98.7 C326.8,98.8 326.3,99.2 326.3,99.9 C326.4,100.4 326.9,101 327.6,101 Z M337,95.5 C335.8,95.5 334.7,96.4 334.7,98.2 C334.7,100 335.8,100.9 337.1,100.9 C338.5,100.9 339.1,99.9 339.2,99.3 L340.5,99.9 C340.1,101 339,102.3 337,102.3 C334.8,102.3 333.1,100.5 333.1,98.2 C333.1,95.8 334.8,94.1 337,94.1 C339,94.1 340.1,95.4 340.4,96.5 L339,97.1 C338.9,96.3 338.3,95.5 337,95.5 Z M344.1,105.2 L342.5,105.2 L344.4,101.1 L341.1,94.3 L342.8,94.3 L345.2,99.6 L347.5,94.3 L349.1,94.3 L344.1,105.2 Z M359,94.2 L359,95.8 C358.8,95.8 358.6,95.8 358.3,95.8 C357,95.8 356.2,96.5 356.2,98.2 L356.2,102.1 L354.7,102.1 L354.7,94.4 L356.2,94.4 L356.2,95.7 C356.8,94.5 357.7,94.2 358.5,94.2 C358.7,94.2 358.9,94.2 359,94.2 Z M361.5,97.4 L365.7,97.4 C365.7,96.3 364.9,95.4 363.6,95.4 C362.4,95.4 361.6,96.4 361.5,97.4 Z M366,99.4 L367.3,99.8 C366.9,101.2 365.6,102.2 363.8,102.2 C361.7,102.2 359.9,100.7 359.9,98.1 C359.9,95.7 361.6,94 363.6,94 C366,94 367.3,95.6 367.3,98 C367.3,98.2 367.3,98.4 367.3,98.5 L361.5,98.5 C361.5,99.9 362.5,100.8 363.8,100.8 C365,100.9 365.7,100.2 366,99.4 Z M368.7,102.4 L370.2,102.1 C370.3,103.2 371.1,104 372.3,104 C373.9,104 374.7,103.2 374.7,101.5 L374.7,100.4 C374.3,101.1 373.5,101.7 372.3,101.7 C370.3,101.7 368.8,100.1 368.8,98 C368.8,95.9 370.2,94.3 372.3,94.3 C373.5,94.3 374.3,94.7 374.7,95.5 L374.7,94.4 L376.2,94.4 L376.2,101.5 C376.2,103.5 375.2,105.4 372.3,105.4 C370.3,105.3 368.9,104.1 368.7,102.4 Z M372.5,100.4 C373.8,100.4 374.7,99.4 374.7,97.9 C374.7,96.4 373.8,95.4 372.5,95.4 C371.2,95.4 370.3,96.4 370.3,97.9 C370.3,99.4 371.1,100.4 372.5,100.4 Z M383.6,101.1 C383.2,101.9 382.2,102.3 381.3,102.3 C379.5,102.3 378.4,101 378.4,99.2 L378.4,94.4 L379.9,94.4 L379.9,99 C379.9,100.1 380.4,101 381.6,101 C382.8,101 383.4,100.2 383.4,99 L383.4,94.4 L384.9,94.4 L384.9,100.7 C384.9,101.3 384.9,101.9 385,102.1 L383.6,102.1 C383.6,101.8 383.6,101.4 383.6,101.1 Z M389.1,102 L387.6,102 L387.6,90.4 L389.1,90.4 L389.1,102 Z M391.3,99.9 C391.3,98.5 392.3,97.8 393.6,97.6 L395.7,97.3 C396.2,97.2 396.3,97 396.3,96.7 C396.3,95.9 395.8,95.3 394.6,95.3 C393.5,95.3 393,96 392.9,96.9 L391.5,96.6 C391.7,95.1 393,94.1 394.7,94.1 C397,94.1 397.9,95.4 397.9,96.9 L397.9,100.8 C397.9,101.5 398,101.9 398,102.1 L396.5,102.1 C396.5,101.9 396.4,101.6 396.4,101.1 C396.1,101.6 395.3,102.4 393.9,102.4 C392.3,102.2 391.3,101.2 391.3,99.9 Z M394,101 C395.2,101 396.2,100.4 396.2,98.7 L396.2,98.3 L393.8,98.7 C393.2,98.8 392.7,99.2 392.7,99.9 C392.8,100.4 393.3,101 394,101 Z M402.2,91.9 L402.2,94.3 L403.9,94.3 L403.9,95.7 L402.2,95.7 L402.2,99.7 C402.2,100.4 402.5,100.8 403.3,100.8 C403.5,100.8 403.8,100.8 403.9,100.7 L403.9,102 C403.8,102 403.4,102.1 402.9,102.1 C401.6,102.1 400.8,101.3 400.8,99.9 L400.8,95.7 L399.3,95.7 L399.3,94.3 L399.7,94.3 C400.5,94.3 400.9,93.8 400.9,93.1 L400.9,91.9 L402.2,91.9 L402.2,91.9 Z M407.4,102 L405.9,102 L405.9,94.3 L407.4,94.3 L407.4,102 Z M405.6,91.4 C405.6,90.8 406.1,90.3 406.7,90.3 C407.3,90.3 407.8,90.8 407.8,91.4 C407.8,92 407.3,92.5 406.7,92.5 C406,92.5 405.6,92 405.6,91.4 Z M413.3,100.9 C414.6,100.9 415.7,99.9 415.7,98.1 C415.7,96.3 414.6,95.4 413.3,95.4 C412,95.4 410.9,96.4 410.9,98.1 C410.9,99.9 412,100.9 413.3,100.9 Z M413.3,94.1 C415.6,94.1 417.2,95.8 417.2,98.2 C417.2,100.6 415.6,102.3 413.3,102.3 C411,102.3 409.4,100.6 409.4,98.2 C409.4,95.8 411,94.1 413.3,94.1 Z M420.7,97.6 L420.7,102 L419.2,102 L419.2,94.3 L420.7,94.3 L420.7,95.4 C421.3,94.4 422.2,94.1 423.1,94.1 C424.9,94.1 425.9,95.4 425.9,97.1 L425.9,102 L424.4,102 L424.4,97.4 C424.4,96.3 424,95.5 422.6,95.5 C421.3,95.4 420.7,96.4 420.7,97.6 Z M427.5,100 L428.9,99.5 C429,100.3 429.6,100.9 430.7,100.9 C431.5,100.9 432,100.4 432,99.9 C432,99.4 431.6,99.1 431,98.9 L429.7,98.6 C428.5,98.3 427.8,97.5 427.8,96.4 C427.8,95.1 429,94 430.5,94 C432.6,94 433.3,95.4 433.4,96.1 L432.1,96.6 C432,96.2 431.7,95.3 430.5,95.3 C429.7,95.3 429.2,95.8 429.2,96.3 C429.2,96.8 429.5,97.1 430.1,97.2 L431.3,97.5 C432.7,97.8 433.4,98.7 433.4,99.8 C433.4,100.9 432.5,102.2 430.6,102.2 C428.6,102.2 427.7,100.9 427.5,100 Z" id="Automatically-delete_1_" fill-opacity="0.5" fill="#0A0A47"></path>
            <g id="Btn-blue" transform="translate(37.000000, 237.000000)">
                <g id="Group-2-Copy_1_">
                    <path d="M124,0 L25,0 C11.2,0 0,11.2 0,25 L0,25 C0,38.8 11.2,50 25,50 L124,50 C137.8,50 149,38.8 149,25 L149,25 C149,11.2 137.8,0 124,0 Z" id="Rectangle-Copy" fill="#0A0A47"></path>
                    <g id="Savechanges" fill-rule="nonzero">
                        <use fill="#000000" xlink:href="#path-3"></use>
                        <use fill="#FFFFFF" xlink:href="#path-3"></use>
                    </g>
                </g>
            </g>
            <g id="Group-3" transform="translate(347.000000, 164.000000)">
                <path d="M25,0.5 L82,0.5 C95.5,0.5 106.5,11.5 106.5,25 L106.5,25 C106.5,38.5 95.5,49.5 82,49.5 L25,49.5 C11.5,49.5 0.5,38.5 0.5,25 L0.5,25 C0.5,11.5 11.5,0.5 25,0.5 Z" id="Rectangle-3" stroke-opacity="0.1" stroke="#0A0A47"></path>
                <path d="M85,27 L89.6,27 C90.2,27 90.6,27.4 90.6,28 C90.6,28.2 90.5,28.5 90.4,28.6 L88.1,31.3 C87.7,31.7 87.1,31.8 86.7,31.4 C86.7,31.4 86.6,31.3 86.6,31.3 L84.3,28.6 C83.9,28.2 84,27.6 84.4,27.2 C84.5,27.1 84.8,27 85,27 Z" id="Rectangle_1_" fill="#0A0A47"></path>
                <path d="M89.6,24.7 L85,24.7 C84.4,24.7 84,24.3 84,23.7 C84,23.5 84.1,23.2 84.2,23.1 L86.5,20.4 C86.9,20 87.5,19.9 87.9,20.3 C87.9,20.3 88,20.4 88,20.4 L90.3,23.1 C90.7,23.5 90.6,24.1 90.2,24.5 C90.1,24.6 89.9,24.7 89.6,24.7 Z" id="Rectangle-Copy_1_" fill="#0A0A47"></path>
                <g id="Group" transform="translate(29.000000, 17.000000)" fill="#0A0A47" fill-rule="nonzero">
                    <path d="M3.3,12.4 L3.3,5.1 L0.8,5.1 L0.8,4 C2.2,4 3.2,3.2 3.5,2 L4.9,2 L4.9,12.4 L3.3,12.4 Z" id="Path"></path>
                    <path d="M16.7,11.2 C16.3,11.9 15.5,12.6 14.3,12.6 C12,12.6 10.7,10.8 10.7,8.5 C10.7,6.3 12.2,4.5 14.3,4.5 C15.7,4.5 16.4,5.2 16.7,5.8 L16.7,0.8 L18.2,0.8 L18.2,11 C18.2,11.7 18.3,12.3 18.3,12.4 L16.8,12.4 C16.8,12.2 16.7,11.8 16.7,11.4 L16.7,11.2 Z M14.5,11.3 C15.9,11.3 16.7,10.1 16.7,8.5 C16.7,6.9 15.9,5.8 14.5,5.8 C13.1,5.8 12.2,6.9 12.2,8.5 C12.2,10.1 13.1,11.3 14.5,11.3 Z" id="Shape"></path>
                    <path d="M22.6,8 L24.7,7.7 C25.2,7.6 25.3,7.4 25.3,7.1 C25.3,6.3 24.8,5.7 23.6,5.7 C22.5,5.7 22,6.4 21.9,7.3 L20.4,7 C20.6,5.5 21.9,4.5 23.6,4.5 C25.9,4.5 26.8,5.8 26.8,7.3 L26.8,11.2 C26.8,11.9 26.9,12.3 26.9,12.5 L25.4,12.5 C25.4,12.3 25.3,12 25.3,11.5 C25,12 24.2,12.8 22.8,12.8 C21.2,12.8 20.2,11.7 20.2,10.5 C20.3,9 21.3,8.2 22.6,8 Z M25.3,9.1 L25.3,8.7 L22.9,9.1 C22.3,9.2 21.8,9.6 21.8,10.3 C21.8,10.9 22.3,11.4 23,11.4 C24.3,11.4 25.3,10.8 25.3,9.1 Z" id="Shape"></path>
                    <polygon id="Path" points="29.2 15.6 31.1 11.5 27.8 4.6 29.5 4.6 32 10 34.3 4.7 35.9 4.7 30.9 15.6"></polygon>
                </g>
            </g>
        </g>
    </g>
</svg>