<svg width="225" height="284" viewBox="0 0 225 284" fill="none" xmlns="http://www.w3.org/2000/svg">
<mask id="mask0" mask-type="alpha" maskUnits="userSpaceOnUse" x="0" y="-32" width="225" height="316">
<rect y="-32" width="225" height="316" fill="url(#paint0_linear)"/>
</mask>
<g mask="url(#mask0)">
<path fill-rule="evenodd" clip-rule="evenodd" d="M236 279.873V278.853C233.855 278.094 231.715 277.321 229.58 276.533C226.916 275.564 224.25 274.606 221.66 273.676L221.03 273.45L221.017 273.446L221.016 273.445C195.624 264.328 173.694 256.454 157.157 240.887C138.581 223.311 133.802 208.143 129.856 191.548C125.562 172.988 119.171 155.965 110.86 140.95C98.2 118.171 79.208 95.602 60.57 74.606C52.085 65.084 43.898 56.916 37.009 50.181C33.379 46.639 30.043 43.091 29.099 38.619C28.3637 35.1421 27.9048 31.5963 27.4612 28.1682L27.46 28.159C26.94 24.138 26.402 19.98 25.41 15.738C23.198 6.226 20.427 -3.257 17.543 -12.942C17.1444 -14.2927 16.7459 -15.6974 16.3572 -17.0674L16.245 -17.463L16.2404 -17.4792C14.9399 -22.062 13.614 -26.734 11.941 -31H10.934C12.659 -26.675 14.017 -21.885 15.347 -17.192C15.771 -15.695 16.21 -14.148 16.648 -12.66C19.528 -2.988 22.296 6.478 24.5 15.963C25.48 20.157 26.016 24.289 26.532 28.286L26.5322 28.2873C26.9791 31.7389 27.4411 35.3064 28.184 38.824C29.185 43.565 32.625 47.234 36.365 50.882C43.243 57.605 51.415 65.76 59.882 75.259C78.482 96.213 97.433 118.733 110.049 141.429C118.315 156.363 124.674 173.302 128.947 191.776C132.931 208.529 137.757 223.841 156.527 241.6C164.156 248.781 173.361 254.789 185.497 260.504C196.317 265.599 208.171 269.856 220.723 274.363L220.781 274.384C223.549 275.377 226.41 276.404 229.268 277.443C231.494 278.266 233.738 279.075 236 279.873ZM-223.746 -31H-224.239C-223.059 -28.101 -222.048 -25.052 -221.662 -21.66C-221.32 -18.603 -221.719 -15.33 -222.757 -12.68C-223.576 -10.592 -225.181 -7.88 -228.179 -6.827C-230.236 -6.11926 -232.495 -5.97492 -234.678 -5.83534L-234.699 -5.834L-234.748 -5.83087L-234.749 -5.83086L-234.749 -5.83085L-234.749 -5.83084L-234.749 -5.83083C-235.396 -5.78983 -236.064 -5.74752 -236.703 -5.69C-239.862 -5.403 -243.221 -5.792 -246.972 -6.881C-248.876 -7.43412 -250.789 -8.1547 -252.639 -8.85166L-252.648 -8.855L-252.686 -8.86934C-253.471 -9.16487 -254.281 -9.46965 -255.078 -9.757L-255.367 -9.861C-257.426 -10.607 -259.555 -11.376 -261.533 -11.027C-262.606 -10.85 -263.503 -10.213 -264.2 -9.134C-265.294 -7.436 -265.726 -4.93 -265.726 -2.4C-265.726 -0.577999 -265.501 1.255 -265.139 2.806C-264.081 7.42315 -261.752 11.8369 -259.499 16.107L-259.499 16.1071L-259.489 16.126C-258.594 17.822 -257.669 19.576 -256.833 21.321C-255 25.1364 -253.651 29.0203 -252.222 33.1316L-252.21 33.166C-251.949 33.92 -251.682 34.686 -251.408 35.466C-251.023 36.561 -250.631 37.664 -250.235 38.776C-248.918 42.479 -247.556 46.309 -246.341 50.196C-243.253 60.371 -239.794 74.229 -239.346 82.608C-239.136 87.3779 -240.367 89.9059 -241.558 92.3518L-241.558 92.352C-242.115 93.495 -242.64 94.573 -243.007 95.848C-243.424 97.368 -243.697 99.008 -242.454 102.361C-241.948 103.721 -241.176 105.363 -240.09 107.385C-238.236 110.835 -236.03 114.513 -233.895 118.074L-233.894 118.074L-233.894 118.074L-233.894 118.075L-233.893 118.076L-233.852 118.145C-233.287 119.085 -232.723 120.027 -232.163 120.966C-225.753 131.804 -217.477 143.964 -209.472 155.724C-206.638 159.888 -203.962 163.82 -201.431 167.601C-197.585 173.399 -193.235 179.996 -190.286 184.93C-188.198 188.421 -186.689 191.298 -185.23 194.076L-185.23 194.077L-185.206 194.122L-185.059 194.402L-185.057 194.405L-185.057 194.406C-184.288 195.87 -183.553 197.268 -182.729 198.761C-178.936 205.603 -174.599 212.041 -168.666 219.639C-164.099 225.493 -157.076 233.654 -147.792 243.894C-140.842 251.571 -134.201 258.621 -127.491 265.446C-115.995 277.156 -105.403 287.056 -96.008 294.871C-91.838 298.338 -88.181 301.179 -84.916 303.579C-84.2011 304.039 -83.5191 304.547 -82.8372 305.055C-82.0844 305.615 -81.3317 306.176 -80.535 306.672L-80.534 306.71C-76.7335 309.344 -73.5132 311.371 -70.6263 313.188L-70.575 313.22L-70.465 313.033H-70.466C-71.692 312.184 -72.975 311.275 -74.322 310.295L-74.3104 310.302L-74.322 310.294C-74.0497 310.469 -73.7806 310.642 -73.5144 310.812L-73.1579 311.039L-72.6943 311.334C-72.4038 311.518 -72.1046 311.708 -71.8061 311.896L-71.4281 312.135L-71.11 312.335C-72.1838 311.658 -73.2548 310.977 -74.323 310.291C-79.783 306.779 -86.507 302.168 -95.723 294.504C-105.107 286.699 -115.688 276.809 -127.172 265.111C-134.083 258.072 -140.848 250.891 -147.461 243.571C-156.738 233.34 -163.753 225.187 -168.312 219.342C-174.229 211.765 -178.554 205.345 -182.335 198.526C-183.208 196.943 -183.985 195.463 -184.807 193.896L-184.814 193.883L-184.814 193.883L-184.814 193.882C-186.281 191.087 -187.798 188.196 -189.9 184.681C-192.854 179.74 -197.208 173.135 -201.057 167.333C-203.723 163.363 -206.404 159.403 -209.1 155.453L-209.119 155.426C-217.113 143.68 -225.378 131.537 -231.775 120.72C-232.335 119.78 -232.899 118.838 -233.465 117.898L-233.49 117.856C-235.628 114.291 -237.838 110.606 -239.692 107.158C-240.766 105.156 -241.532 103.532 -242.028 102.194C-243.222 98.975 -242.966 97.416 -242.569 95.98C-242.215 94.748 -241.699 93.687 -241.151 92.563L-241.151 92.5626C-239.935 90.0647 -238.677 87.4808 -238.891 82.585C-239.342 74.16 -242.811 60.258 -245.907 50.055C-247.126 46.157 -248.489 42.322 -249.808 38.615C-250.475 36.7492 -251.132 34.8802 -251.781 33.008L-251.782 33.0057C-253.218 28.8695 -254.575 24.9633 -256.425 21.112C-257.232 19.4272 -258.12 17.7405 -258.983 16.1017L-258.983 16.101L-259.089 15.9L-259.089 15.8999C-261.331 11.6519 -263.649 7.25996 -264.696 2.695C-265.542 -0.910999 -265.628 -6.07 -263.821 -8.874C-263.198 -9.839 -262.405 -10.408 -261.458 -10.564C-259.594 -10.892 -257.52 -10.1421 -255.515 -9.4171L-255.515 -9.417L-255.227 -9.312C-254.419 -9.021 -253.597 -8.712 -252.802 -8.412L-252.793 -8.40857L-252.793 -8.40849C-250.935 -7.70858 -249.014 -6.98507 -247.093 -6.427C-243.288 -5.322 -239.876 -4.927 -236.662 -5.221C-236.03 -5.27738 -235.396 -5.31864 -234.727 -5.36223L-234.727 -5.36224L-234.669 -5.366C-232.449 -5.506 -230.155 -5.652 -228.033 -6.382C-225.531 -7.262 -223.561 -9.378 -222.335 -12.505C-221.269 -15.225 -220.859 -18.582 -221.211 -21.715C-221.595 -25.095 -222.584 -28.125 -223.746 -31ZM-225.772 -31H-226.24C-225.602 -29.034 -225.116 -26.977 -224.915 -24.775C-224.415 -19.222 -226.594 -12.432 -231.607 -10.775C-233.843 -10.05 -236.298 -9.9933 -238.675 -9.93844L-238.694 -9.938L-238.717 -9.93749L-238.717 -9.93748H-238.717C-239.382 -9.92267 -240.01 -9.90866 -240.638 -9.88C-243.773 -9.735 -247.148 -10.245 -250.954 -11.441C-252.794 -12.018 -254.641 -12.738 -256.428 -13.435L-256.473 -13.4526L-256.474 -13.4529C-257.342 -13.7913 -258.238 -14.1408 -259.12 -14.468L-259.299 -14.534C-261.419 -15.322 -263.609 -16.135 -265.663 -15.816C-266.747 -15.658 -267.663 -15.041 -268.383 -13.982C-269.568 -12.24 -270.033 -9.57 -270.033 -6.947C-270.033 -5.433 -269.878 -3.933 -269.615 -2.639C-268.662 2.175 -266.218 6.781 -263.853 11.237L-263.836 11.2698L-263.836 11.27L-263.835 11.2701L-263.835 11.2703L-263.835 11.2708L-263.835 11.2712C-262.9 13.0326 -261.934 14.8537 -261.076 16.663C-259.394 20.1886 -258.172 23.7599 -256.878 27.5399L-256.878 27.5401L-256.869 27.567C-256.619 28.299 -256.364 29.042 -256.102 29.8C-255.794 30.6865 -255.481 31.5797 -255.167 32.4784L-255.017 32.906C-253.725 36.589 -252.389 40.398 -251.208 44.276C-248.435 53.664 -245.061 67.733 -244.683 76.486C-244.509 81.4868 -245.897 83.9758 -247.239 86.3813L-247.24 86.383L-247.243 86.3887L-247.243 86.3888C-247.839 87.4576 -248.402 88.4672 -248.819 89.67C-249.299 91.117 -249.633 92.693 -248.461 96.016C-247.976 97.386 -247.211 99.079 -246.186 101.051C-244.631 104.043 -242.828 107.187 -241.083 110.231L-241.083 110.231L-241.026 110.331C-240.463 111.311 -239.9 112.294 -239.341 113.277C-233.205 124.16 -225.2 136.397 -217.457 148.233L-217.297 148.478C-214.511 152.737 -211.876 156.767 -209.405 160.62C-200.905 173.87 -196.923 181.546 -192.708 189.672L-192.328 190.403C-188.54 197.579 -184.112 204.358 -177.973 212.387C-172.127 220.042 -163.411 230.08 -157.129 237.154C-150.229 244.937 -143.631 252.078 -136.957 258.989C-125.519 270.849 -114.962 280.861 -105.583 288.746C-101.536 292.146 -97.992 294.927 -94.834 297.268C-93.0474 298.427 -91.4074 299.446 -89.8701 300.401L-89.8624 300.406L-89.8593 300.408L-89.8547 300.411L-89.8535 300.412L-89.8531 300.412L-89.8511 300.413L-89.8495 300.414L-89.8471 300.416L-89.771 300.463L-89.7711 300.463L-89.77 300.464L-89.948 300.768C-86.371 303.238 -83.338 305.138 -80.613 306.844L-80.5356 306.711C-82.0104 305.689 -83.4707 304.646 -84.916 303.582H-84.913L-84.917 303.58C-90.122 300.217 -96.533 295.76 -105.302 288.39C-114.67 280.515 -125.215 270.514 -136.643 258.664C-143.313 251.758 -149.907 244.621 -156.803 236.844C-163.08 229.775 -171.788 219.745 -177.626 212.102C-183.749 204.095 -188.164 197.334 -191.939 190.184L-192.317 189.454L-192.325 189.438L-192.325 189.438C-196.542 181.31 -200.529 173.626 -209.035 160.365C-211.447 156.605 -214.016 152.678 -216.727 148.531L-216.728 148.529L-217.091 147.975L-217.14 147.9L-217.141 147.899L-217.141 147.899C-224.862 136.092 -232.843 123.89 -238.959 113.043C-239.519 112.06 -240.083 111.076 -240.645 110.096C-242.407 107.025 -244.229 103.848 -245.797 100.831C-246.812 98.878 -247.569 97.204 -248.046 95.856C-249.168 92.673 -248.854 91.183 -248.402 89.819C-247.999 88.656 -247.445 87.662 -246.858 86.611L-246.853 86.6015C-245.482 84.1405 -244.065 81.5954 -244.242 76.465C-244.622 67.668 -248.005 53.555 -250.787 44.138C-251.97 40.2521 -253.307 36.442 -254.6 32.7568L-254.603 32.748L-254.741 32.3548C-255.059 31.4455 -255.376 30.5417 -255.688 29.644C-255.95 28.887 -256.204 28.144 -256.454 27.412L-256.458 27.4C-257.758 23.6014 -258.986 20.0113 -260.682 16.458C-261.551 14.63 -262.525 12.792 -263.468 11.015C-265.817 6.589 -268.245 2.013 -269.185 -2.734C-269.882 -6.177 -269.815 -11.084 -268.024 -13.722C-267.378 -14.672 -266.564 -15.226 -265.603 -15.365C-263.661 -15.6677 -261.525 -14.8756 -259.459 -14.1093L-259.453 -14.107L-259.275 -14.041C-258.468 -13.7417 -257.648 -13.4228 -256.85 -13.1123L-256.849 -13.1123L-256.589 -13.011C-254.796 -12.311 -252.94 -11.588 -251.088 -11.006C-247.232 -9.796 -243.809 -9.279 -240.622 -9.426C-239.999 -9.45568 -239.372 -9.46971 -238.71 -9.48453L-238.689 -9.485C-236.276 -9.539 -233.781 -9.595 -231.477 -10.342C-226.243 -12.073 -223.963 -19.092 -224.473 -24.818C-224.672 -27.008 -225.147 -29.05 -225.772 -31ZM-228.093 -31H-228.536C-228.35 -30.117 -228.204 -29.214 -228.114 -28.284C-227.828 -25.337 -228.347 -22.2 -229.535 -19.678C-230.455 -17.726 -232.196 -15.228 -235.269 -14.415C-237.603 -13.81 -240.143 -13.84 -242.601 -13.869L-242.601 -13.869L-242.673 -13.8698C-243.275 -13.8765 -243.844 -13.8829 -244.416 -13.88C-247.561 -13.86 -250.953 -14.474 -254.786 -15.758C-256.493 -16.3304 -258.21 -17.0194 -259.872 -17.6863L-259.872 -17.6864L-259.921 -17.706C-260.948 -18.1226 -261.98 -18.5283 -263.016 -18.923L-263.124 -18.964L-263.126 -18.9649C-265.192 -19.7447 -267.534 -20.6289 -269.635 -20.311C-270.789 -20.151 -271.758 -19.498 -272.515 -18.376C-273.707 -16.607 -274.177 -13.956 -274.177 -11.346C-274.177 -9.757 -274.002 -8.184 -273.712 -6.836C-272.749 -2.28 -270.428 2.055 -268.182 6.248L-268.164 6.28229L-268.164 6.28237L-268.164 6.28245L-268.164 6.28252C-267.329 7.84182 -266.466 9.4548 -265.688 11.053C-263.798 14.922 -262.493 18.718 -260.983 23.116L-260.528 24.438C-260.241 25.2698 -259.949 26.1061 -259.656 26.9479L-259.655 26.9523L-259.654 26.9555L-259.618 27.058C-258.23 31.044 -256.795 35.167 -255.56 39.388C-252.814 49.065 -249.92 62.501 -249.643 70.701C-249.509 75.966 -251.083 78.445 -252.605 80.841C-253.173 81.735 -253.709 82.58 -254.149 83.553C-254.763 84.963 -255.193 86.387 -254.231 89.529C-253.77 91.024 -253.003 92.834 -251.886 95.062C-250.254 98.318 -248.368 101.732 -246.544 105.032L-246.41 105.275L-246.407 105.28L-246.406 105.282C-245.985 106.045 -245.563 106.809 -245.144 107.574C-239.508 117.917 -232.214 129.506 -225.159 140.715L-225.136 140.751C-222.383 145.125 -219.783 149.256 -217.357 153.194C-209.647 165.697 -205.974 173.07 -202.086 180.874L-202.08 180.886L-200.963 183.126C-197.568 189.794 -193.377 196.448 -187.771 204.066C-181.553 212.526 -172.431 223.286 -165.873 230.82C-159.034 238.692 -152.475 245.924 -145.823 252.931C-137.999 261.185 -126.221 273.102 -114.542 283.008C-110.6 286.351 -107.154 289.077 -104.092 291.363C-104.827 290.884 -105.592 290.375 -106.496 289.763L-106.505 289.756C-107.65 289.071 -108.787 288.374 -109.918 287.665C-108.69 288.432 -107.558 289.118 -106.504 289.755C-110.786 286.845 -116.009 282.972 -122.564 277.371C-134.222 267.404 -145.954 255.363 -153.741 247.016C-160.355 239.941 -166.875 232.624 -173.672 224.647C-180.167 217.039 -189.232 206.132 -195.532 197.377C-201.165 189.561 -205.322 182.797 -208.614 176.091C-209.085 175.113 -209.544 174.153 -209.998 173.201L-209.999 173.199L-210 173.197L-210.417 172.324C-213.902 165.015 -217.194 158.112 -223.897 146.758C-226.32 142.649 -228.952 138.306 -231.734 133.714L-231.944 133.368C-238.36 122.784 -244.994 111.84 -250.162 102.033L-251.374 99.759C-253.378 96.007 -255.45 92.127 -257.148 88.522C-258.144 86.408 -258.808 84.702 -259.175 83.302C-259.943 80.3695 -259.326 79.2014 -258.73 78.0726L-258.73 78.072L-258.71 78.037C-258.274 77.2357 -257.759 76.521 -257.214 75.7648L-257.214 75.7647L-257.214 75.7643L-257.211 75.76L-257.21 75.7589C-255.634 73.5692 -253.849 71.0882 -253.824 65.876C-253.876 57.249 -256.783 43.262 -259.639 33.226C-260.806 29.2614 -262.147 25.4102 -263.444 21.6835L-263.444 21.6833L-263.444 21.6831L-263.444 21.6828L-263.453 21.657L-264.025 20.015C-264.186 19.55 -264.344 19.0907 -264.5 18.6358L-264.5 18.6354C-264.57 18.4311 -264.64 18.2277 -264.71 18.025L-264.711 18.0212L-264.711 18.0212C-266.061 14.0896 -267.336 10.3758 -269.107 6.763C-269.937 5.066 -270.86 3.363 -271.754 1.718C-274.02 -2.456 -276.363 -6.772 -277.304 -11.298C-278.185 -15.449 -277.687 -19.978 -276.092 -22.311C-275.379 -23.354 -274.477 -23.951 -273.405 -24.091C-271.275 -24.389 -268.843 -23.441 -266.698 -22.604L-266.486 -22.521C-265.514 -22.143 -264.524 -21.738 -263.568 -21.345C-261.944 -20.68 -260.264 -19.993 -258.59 -19.402C-254.598 -17.996 -251.25 -17.295 -248.055 -17.197C-247.276 -17.1733 -246.489 -17.1876 -245.73 -17.2015L-245.702 -17.202L-245.685 -17.2023C-244.763 -17.2192 -243.81 -17.2367 -242.862 -17.187C-241.702 -17.126 -240.181 -17.096 -238.691 -17.404C-232.985 -18.608 -230.332 -25.294 -230.72 -31H-231.143C-230.621 -23.602 -234.683 -18.694 -238.773 -17.831C-240.216 -17.533 -241.704 -17.563 -242.84 -17.621C-243.808 -17.673 -244.774 -17.655 -245.708 -17.637L-245.792 -17.6355C-246.53 -17.6219 -247.291 -17.6079 -248.041 -17.631C-251.193 -17.729 -254.501 -18.422 -258.452 -19.814C-260.117 -20.401 -261.792 -21.086 -263.411 -21.749C-264.369 -22.142 -265.36 -22.547 -266.336 -22.927L-266.548 -23.009C-268.74 -23.865 -271.225 -24.833 -273.46 -24.521C-274.652 -24.366 -275.653 -23.706 -276.437 -22.559C-277.664 -20.763 -278.147 -18.078 -278.147 -15.463C-278.147 -13.957 -277.987 -12.476 -277.717 -11.202C-276.762 -6.612 -274.404 -2.267 -272.122 1.935L-272.104 1.96737L-272.104 1.96767C-271.219 3.59952 -270.304 5.28621 -269.484 6.965C-267.726 10.5508 -266.455 14.2494 -265.111 18.1645L-265.111 18.1646L-265.107 18.175L-264.977 18.5542C-264.795 19.0846 -264.611 19.6222 -264.422 20.167L-263.85 21.81L-263.823 21.8872L-263.823 21.8873L-263.823 21.8873C-262.534 25.5913 -261.202 29.4214 -260.043 33.354C-256.113 47.165 -254.283 59.897 -254.245 65.881C-254.269 70.9468 -255.936 73.263 -257.546 75.5011L-257.548 75.504C-258.103 76.274 -258.626 77.001 -259.078 77.829L-259.098 77.868C-259.705 79.015 -260.394 80.318 -259.582 83.421C-259.207 84.847 -258.534 86.579 -257.527 88.716C-255.825 92.3298 -253.753 96.2101 -251.748 99.9639L-251.743 99.974C-251.338 100.732 -250.933 101.49 -250.532 102.246C-245.363 112.053 -238.734 122.991 -232.321 133.571L-232.301 133.603L-232.275 133.646C-229.425 138.348 -226.731 142.791 -224.257 146.987C-217.564 158.325 -214.276 165.219 -210.795 172.518L-210.45 173.241C-209.971 174.245 -209.488 175.256 -208.991 176.288C-205.687 183.018 -201.518 189.803 -195.871 197.64C-189.563 206.407 -180.489 217.324 -173.989 224.937C-167.187 232.919 -160.663 240.24 -154.045 247.32C-146.249 255.674 -134.507 267.728 -122.832 277.707C-118.9 281.068 -115.444 283.807 -112.384 286.092C-112.761 285.846 -113.148 285.592 -113.543 285.328L-113.516 285.28L-114.368 284.775L-114.384 284.765C-118.546 281.946 -123.641 278.163 -130.079 272.631C-141.696 262.646 -153.356 250.534 -161.089 242.133C-168.454 234.148 -175.614 225.947 -182.979 217.06C-192.339 205.789 -199.379 196.744 -203.899 190.178C-209.129 182.601 -213.074 175.969 -215.959 169.906C-216.939 167.83 -217.741 165.964 -218.59 163.988C-219.558 161.732 -220.56 159.4 -221.85 156.738C-224.07 152.159 -227.341 146.231 -230.547 140.506C-232.915 136.325 -235.509 131.88 -238.251 127.18L-238.251 127.18L-238.252 127.178L-238.469 126.807L-238.516 126.726C-244.868 115.842 -251.431 104.594 -256.416 94.629C-256.807 93.859 -257.221 93.0559 -257.646 92.2327L-257.841 91.856C-260.28 87.136 -263.043 81.789 -263.932 78.32C-264.727 75.253 -264.025 74.05 -263.462 73.087C-262.987 72.2996 -262.43 71.6072 -261.841 70.8751L-261.841 70.875L-261.822 70.851C-260.067 68.673 -258.077 66.202 -258.073 60.57C-258.132 53.062 -260.348 40.007 -263.464 28.823C-264.685 24.579 -266.119 20.488 -267.507 16.531L-267.991 15.149L-268.451 13.831C-269.915 9.621 -271.181 5.986 -273.023 2.319C-273.825 0.716 -274.717 -0.896 -275.58 -2.455L-275.583 -2.45953C-277.867 -6.59012 -280.228 -10.8606 -281.142 -15.355C-281.981 -19.412 -281.454 -23.855 -279.861 -26.162C-279.122 -27.232 -278.186 -27.843 -277.075 -27.982C-274.887 -28.2765 -272.401 -27.3052 -270.206 -26.4472L-270.195 -26.443L-270.085 -26.4C-268.965 -25.962 -267.828 -25.49 -266.728 -25.032C-265.071 -24.342 -263.358 -23.629 -261.648 -23.014C-257.867 -21.654 -254.684 -20.924 -251.631 -20.714C-250.679 -20.649 -249.719 -20.629 -248.791 -20.611L-248.649 -20.608C-247.743 -20.5891 -246.809 -20.5696 -245.881 -20.504C-244.381 -20.397 -243.234 -20.423 -242.161 -20.586C-239.488 -21.002 -237.153 -22.679 -235.586 -25.313C-234.6 -26.968 -233.963 -28.948 -233.723 -31H-234.14C-234.727 -26.247 -237.543 -21.732 -242.223 -21.005C-243.266 -20.846 -244.387 -20.821 -245.857 -20.926C-246.843 -20.996 -247.831 -21.016 -248.787 -21.035C-249.728 -21.0463 -250.668 -21.0803 -251.607 -21.137C-254.622 -21.343 -257.77 -22.067 -261.515 -23.415C-263.211 -24.0251 -264.914 -24.7336 -266.562 -25.4186L-266.562 -25.4187L-266.577 -25.425C-267.679 -25.884 -268.818 -26.358 -269.942 -26.797L-270.052 -26.84L-270.066 -26.8454C-272.305 -27.7211 -274.841 -28.7124 -277.129 -28.402C-278.356 -28.249 -279.389 -27.578 -280.197 -26.408C-281.453 -24.59 -281.952 -21.938 -281.952 -19.338C-281.952 -17.916 -281.802 -16.51 -281.545 -15.267C-280.619 -10.705 -278.24 -6.403 -275.938 -2.243L-275.918 -2.20594L-275.917 -2.20585C-275.064 -0.662397 -274.182 0.932699 -273.391 2.515C-271.564 6.15186 -270.304 9.76977 -268.845 13.9572L-268.845 13.9573L-268.839 13.975C-268.742 14.255 -268.644 14.5367 -268.545 14.8208C-268.49 14.9781 -268.435 15.1361 -268.38 15.295L-267.896 16.677C-266.51 20.627 -265.078 24.713 -263.861 28.943C-260.756 40.093 -258.545 53.1 -258.488 60.572C-258.493 66.047 -260.347 68.3503 -262.139 70.5775L-262.141 70.58C-262.747 71.332 -263.318 72.041 -263.816 72.865C-264.558 74.136 -265.109 75.432 -264.333 78.429C-263.432 81.9435 -260.658 87.3113 -258.21 92.0488L-258.207 92.055L-258.058 92.3431C-257.617 93.1971 -257.188 94.0291 -256.784 94.824C-251.781 104.826 -245.194 116.112 -238.824 127.026C-236 131.862 -233.334 136.43 -230.904 140.719C-227.703 146.437 -224.434 152.359 -222.221 156.929C-220.947 159.554 -219.955 161.861 -218.998 164.09L-218.968 164.159C-218.118 166.139 -217.315 168.009 -216.329 170.092C-213.434 176.177 -209.479 182.827 -204.236 190.423C-199.706 197.001 -192.66 206.055 -183.292 217.336C-175.922 226.228 -168.758 234.434 -161.389 242.426C-153.646 250.835 -141.976 262.959 -130.342 272.957C-126.418 276.33 -122.991 279.053 -119.968 281.307C-120.436 281 -120.903 280.691 -121.368 280.38L-121.065 280.583L-121.244 280.913C-121.378 280.836 -121.513 280.758 -121.65 280.677L-121.723 280.635C-119.031 282.449 -116.748 283.835 -114.747 285.027C-116.512 283.827 -118.251 282.588 -119.962 281.311L-119.951 281.318C-118.244 282.592 -116.509 283.829 -114.747 285.026C-111.684 287.106 -109.125 288.663 -106.909 290.003L-106.904 290.007C-103.683 292.202 -100.991 293.855 -98.669 295.28L-98.655 295.255C-95.3607 297.514 -92.5567 299.255 -90.0243 300.828L-90.0215 300.83L-90.0196 300.831L-90.0173 300.832L-90.014 300.834L-90.0125 300.835L-89.995 300.846L-89.95 300.768C-91.5977 299.629 -93.2263 298.462 -94.835 297.269C-99.8 294.049 -105.918 289.742 -114.266 282.663C-125.93 272.769 -137.696 260.863 -145.513 252.618C-152.163 245.616 -158.716 238.388 -165.551 230.522C-172.104 222.992 -181.218 212.244 -187.426 203.795C-193.017 196.197 -197.196 189.564 -200.579 182.919L-201.695 180.681C-205.589 172.864 -209.267 165.481 -216.991 152.953C-219.403 149.04 -221.985 144.937 -224.717 140.596L-224.722 140.589L-224.723 140.586L-224.773 140.507C-231.832 129.292 -239.131 117.695 -244.767 107.354C-245.168 106.624 -245.57 105.896 -245.971 105.169L-246.169 104.811L-246.269 104.629L-246.27 104.629C-248.058 101.388 -249.904 98.0452 -251.501 94.857C-252.607 92.652 -253.365 90.864 -253.818 89.393C-254.808 86.16 -254.224 84.817 -253.756 83.741C-253.332 82.8029 -252.806 81.975 -252.25 81.0981L-252.243 81.087C-250.757 78.748 -249.075 76.097 -249.211 70.688C-249.489 62.447 -252.391 48.966 -255.146 39.261C-256.385 35.026 -257.822 30.898 -259.212 26.907C-259.518 26.029 -259.822 25.155 -260.122 24.287L-260.575 22.967L-260.576 22.9648L-260.576 22.9644C-262.092 18.5545 -263.4 14.7462 -265.302 10.853C-266.084 9.24716 -266.95 7.62949 -267.788 6.06559L-267.788 6.0655L-267.805 6.033L-267.81 6.0239C-270.038 1.86074 -272.342 -2.44227 -273.29 -6.931C-274.205 -11.175 -273.741 -15.775 -272.16 -18.12C-271.477 -19.135 -270.608 -19.723 -269.577 -19.868C-267.58 -20.168 -265.391 -19.342 -263.274 -18.542L-263.166 -18.502C-262.137 -18.114 -261.091 -17.694 -260.079 -17.287L-260.013 -17.2607C-258.351 -16.5938 -256.634 -15.9054 -254.919 -15.331C-251.043 -14.031 -247.607 -13.411 -244.415 -13.431C-243.85 -13.4329 -243.284 -13.4266 -242.687 -13.4199H-242.687H-242.686H-242.686H-242.686L-242.608 -13.419H-242.608C-240.123 -13.39 -237.554 -13.36 -235.164 -13.979C-231.93 -14.835 -230.108 -17.443 -229.148 -19.479C-227.927 -22.073 -227.392 -25.299 -227.683 -28.329C-227.772 -29.243 -227.913 -30.132 -228.093 -31ZM-238.393 -31H-238.824C-239.139 -30.08 -239.544 -29.207 -240.04 -28.42C-241.54 -26.036 -243.733 -24.523 -246.21 -24.158C-248.567 -23.8161 -251.072 -24.0579 -253.496 -24.2919L-253.497 -24.292C-254.157 -24.356 -254.84 -24.422 -255.495 -24.472C-258.776 -24.727 -262.285 -25.599 -266.537 -27.216C-267.789 -27.696 -269.092 -28.3 -270.47 -28.94C-272.05 -29.673 -273.651 -30.414 -275.237 -31H-276.508C-274.57 -30.387 -272.584 -29.468 -270.633 -28.563L-270.566 -28.5321C-269.206 -27.9015 -267.92 -27.3052 -266.676 -26.829C-262.386 -25.197 -258.843 -24.317 -255.525 -24.059C-254.872 -24.009 -254.222 -23.947 -253.533 -23.879C-251.087 -23.643 -248.556 -23.399 -246.153 -23.749C-243.559 -24.13 -241.269 -25.709 -239.703 -28.195C-239.16 -29.06 -238.724 -30.005 -238.393 -31ZM-282.447 -31H-283.097C-283.41 -30.7154 -283.689 -30.3956 -283.929 -30.047C-285.196 -28.223 -285.7 -25.572 -285.7 -22.992C-285.7 -21.62 -285.558 -20.266 -285.31 -19.068C-284.383 -14.4892 -281.939 -10.1822 -279.576 -6.01723L-279.576 -6.0172L-279.574 -6.014C-278.648 -4.383 -277.691 -2.696 -276.841 -1.021C-275.143 2.316 -273.903 5.824 -272.591 9.539L-272.127 10.849L-271.667 12.143C-270.277 16.043 -268.841 20.076 -267.632 24.273C-264.472 35.618 -262.352 48.844 -262.472 56.433C-262.616 61.7623 -264.577 63.946 -266.473 66.0566L-266.477 66.061L-266.499 66.0852C-267.042 66.6902 -267.556 67.2636 -268.024 67.908L-268.024 67.9085C-268.707 68.8764 -269.557 70.0805 -268.902 73.146C-268.608 74.512 -268.004 76.25 -267.106 78.31C-265.803 81.3018 -264.22 84.4975 -262.689 87.5886L-262.676 87.614C-262.226 88.521 -261.776 89.429 -261.333 90.332C-256.717 99.835 -250.718 110.476 -244.916 120.767C-241.994 125.949 -239.235 130.842 -236.758 135.404C-233.94 140.656 -230.778 146.638 -228.704 151.176C-227.616 153.553 -226.747 155.682 -225.907 157.739L-225.907 157.739L-225.867 157.838L-225.847 157.886C-224.989 159.992 -224.176 161.985 -223.144 164.236C-220.315 170.376 -216.366 177.16 -211.073 184.978C-206.556 191.664 -199.298 201.162 -190.083 212.443C-182.734 221.457 -175.591 229.761 -168.241 237.831C-160.508 246.34 -148.841 258.596 -137.181 268.664C-132.935 272.327 -129.295 275.202 -126.133 277.525C-124.561 278.503 -122.971 279.454 -121.366 280.378C-125.456 277.63 -130.492 273.896 -136.924 268.346C-148.57 258.293 -160.224 246.049 -167.95 237.548C-175.294 229.483 -182.433 221.184 -189.777 212.176C-198.984 200.903 -206.235 191.417 -210.744 184.739C-216.026 176.939 -219.964 170.174 -222.783 164.057C-223.8 161.839 -224.605 159.866 -225.453 157.788L-225.453 157.787L-225.454 157.787L-225.499 157.676C-226.351 155.583 -227.233 153.42 -228.342 150.998C-230.422 146.449 -233.586 140.461 -236.408 135.201C-238.888 130.635 -241.648 125.739 -244.57 120.556L-244.61 120.485C-250.395 110.222 -256.376 99.6143 -260.975 90.144C-261.339 89.4034 -261.706 88.6621 -262.073 87.9207L-262.319 87.424L-262.344 87.3727C-263.87 84.2937 -265.445 81.1125 -266.74 78.139C-267.627 76.103 -268.222 74.392 -268.51 73.055C-269.127 70.171 -268.368 69.097 -267.7 68.152C-267.242 67.5214 -266.731 66.9521 -266.191 66.3497L-266.191 66.3495L-266.191 66.3495L-266.19 66.3493L-266.19 66.3492L-266.19 66.3492L-266.19 66.349L-266.19 66.3489L-266.19 66.3487L-266.182 66.34L-266.181 66.3386C-264.324 64.272 -262.219 61.9288 -262.07 56.44C-261.944 48.814 -264.075 35.537 -267.247 24.155C-268.459 19.9459 -269.896 15.9105 -271.286 12.0089L-271.29 11.998L-271.75 10.703L-272.215 9.394C-273.531 5.666 -274.775 2.144 -276.486 -1.216C-277.322 -2.86386 -278.26 -4.51842 -279.168 -6.12066L-279.168 -6.12099L-279.228 -6.226C-281.577 -10.363 -284.004 -14.641 -284.918 -19.156C-285.738 -23.133 -285.197 -27.514 -283.603 -29.809C-283.259 -30.303 -282.873 -30.7 -282.447 -31ZM-289.004 -31H-289.402C-289.726 -29.737 -289.87 -28.366 -289.87 -27.016C-289.87 -25.688 -289.732 -24.381 -289.494 -23.226C-288.581 -18.724 -286.138 -14.53 -283.774 -10.476C-282.938 -9.04 -282.073 -7.554 -281.293 -6.085C-279.32 -2.377 -277.96 1.376 -276.386 5.722L-276.009 6.76L-275.991 6.80918C-274.472 10.9959 -272.901 15.3238 -271.621 19.871C-268.676 30.675 -266.732 43.551 -266.892 51.183C-267.063 56.767 -269.172 58.908 -271.211 60.977C-271.724 61.498 -272.208 61.99 -272.664 62.538L-272.724 62.611L-272.726 62.6129C-273.493 63.5594 -274.364 64.6329 -273.896 67.446C-273.656 68.879 -273.038 70.781 -272.059 73.098C-270.71 76.2902 -269.083 79.6911 -267.509 82.982L-267.509 82.9825L-267.484 83.034L-267.278 83.4647C-266.966 84.1181 -266.653 84.7714 -266.344 85.424C-262.113 94.412 -256.684 104.407 -251.432 114.074C-248.419 119.619 -245.574 124.858 -243.062 129.704C-240.424 134.859 -237.729 140.212 -235.886 144.443C-234.844 146.828 -234.018 148.97 -233.221 151.036L-233.221 151.037L-233.221 151.038L-233.221 151.038L-233.166 151.18C-232.328 153.361 -231.461 155.615 -230.367 158.085C-227.634 164.222 -223.583 171.353 -218.325 179.282C-214.205 185.506 -207.836 194.065 -199.392 204.721C-192.328 213.665 -185.005 222.402 -177.434 230.921C-169.206 240.196 -156.809 253.497 -144.478 264.186C-139.543 268.462 -135.457 271.631 -132.002 274.086C-130.813 274.93 -129.702 275.69 -128.654 276.381C-125.962 278.158 -123.702 279.486 -121.729 280.63C-123.219 279.626 -124.688 278.591 -126.135 277.527L-126.137 277.526C-130.577 274.746 -136.306 270.742 -144.228 263.877C-156.542 253.204 -168.928 239.916 -177.148 230.649C-184.715 222.136 -192.032 213.405 -199.091 204.467C-207.528 193.819 -213.891 185.269 -218.003 179.056C-223.25 171.145 -227.291 164.034 -230.013 157.918C-231.103 155.458 -231.93 153.308 -232.805 151.032L-232.823 150.984C-233.633 148.882 -234.469 146.71 -235.53 144.277C-237.377 140.037 -240.076 134.677 -242.718 129.515C-245.232 124.663 -248.078 119.423 -251.092 113.875C-256.34 104.215 -261.767 94.225 -265.992 85.246L-267.133 82.856L-267.196 82.7247C-268.756 79.4616 -270.367 76.0936 -271.7 72.937C-272.667 70.649 -273.276 68.777 -273.511 67.377C-273.948 64.746 -273.173 63.791 -272.424 62.869L-272.366 62.797C-271.926 62.2687 -271.451 61.7857 -270.947 61.2747L-270.947 61.2745L-270.947 61.2744L-270.937 61.264L-270.933 61.2604C-268.939 59.2343 -266.679 56.9376 -266.502 51.194C-266.342 43.525 -268.292 30.6 -271.246 19.761C-272.534 15.1845 -274.112 10.8385 -275.638 6.6342L-275.644 6.619L-276.02 5.581L-276.026 5.56563C-277.603 1.21215 -278.966 -2.54939 -280.95 -6.277C-281.708 -7.7069 -282.546 -9.14521 -283.358 -10.5413L-283.358 -10.5413L-283.358 -10.5416L-283.44 -10.682C-285.787 -14.708 -288.213 -18.872 -289.112 -23.308C-289.59 -25.621 -289.656 -28.541 -289.004 -31ZM-293.77 -31H-294.142C-294.14 -29.6395 -293.989 -28.2833 -293.69 -26.956C-292.706 -22.6258 -290.284 -18.5982 -287.942 -14.7035L-287.938 -14.696C-287.044 -13.21 -286.12 -11.673 -285.292 -10.146C-283.397 -6.661 -282.082 -3.108 -280.56 1.007L-280.265 1.802L-280.259 1.81738L-280.259 1.81742C-278.751 5.88663 -277.191 10.0946 -275.925 14.545C-272.988 25.209 -271.072 38.573 -271.369 46.32C-271.639 51.8497 -273.845 53.8808 -275.979 55.8457L-275.979 55.846L-275.988 55.8545C-276.563 56.3834 -277.106 56.883 -277.613 57.451L-277.614 57.4525C-278.38 58.3362 -279.333 59.4356 -278.828 62.4C-278.628 63.565 -278.188 65.045 -277.516 66.8C-276.317 69.9373 -274.698 73.4353 -273.132 76.8205L-273.117 76.852L-272.956 77.1999L-272.955 77.2024C-272.58 78.0141 -272.207 78.8206 -271.842 79.618C-267.912 88.3117 -262.854 97.9942 -257.961 107.361L-257.952 107.378L-257.94 107.401L-257.94 107.401L-257.94 107.402L-257.939 107.404L-257.938 107.405C-254.936 113.151 -252.101 118.578 -249.63 123.574C-247.204 128.542 -244.485 134.215 -242.705 138.614C-241.839 140.753 -241.131 142.712 -240.447 144.607L-240.445 144.613L-240.422 144.676C-239.641 146.834 -238.834 149.066 -237.806 151.511C-230.74 168.446 -210.316 197.201 -184.509 226.553C-168.889 244.401 -157.219 255.184 -151.653 260.025C-145.983 264.955 -141.52 268.343 -137.648 270.965C-136.982 271.416 -136.332 271.845 -135.698 272.255C-133.202 273.865 -130.929 275.184 -128.688 276.449L-128.653 276.382C-129.7 275.691 -130.813 274.932 -132.001 274.087C-137.141 271.029 -142.919 267.106 -151.409 259.727C-164.359 248.466 -177.529 233.945 -184.227 226.29C-210.009 196.969 -230.405 168.256 -237.457 151.357C-238.488 148.904 -239.262 146.763 -240.082 144.497L-240.089 144.477C-240.775 142.577 -241.486 140.613 -242.355 138.465C-244.14 134.054 -246.862 128.374 -249.292 123.398C-251.769 118.39 -254.61 112.951 -257.618 107.194L-257.638 107.156C-262.525 97.8018 -267.577 88.1302 -271.498 79.454C-271.917 78.54 -272.344 77.614 -272.775 76.684L-272.789 76.6532L-272.789 76.653C-274.353 73.2747 -275.969 69.7834 -277.163 66.658C-277.825 64.928 -278.26 63.473 -278.455 62.334C-278.928 59.5553 -278.08 58.5779 -277.333 57.7172L-277.332 57.716C-276.838 57.161 -276.299 56.665 -275.728 56.14C-273.637 54.216 -271.268 52.034 -270.99 46.339C-270.693 38.555 -272.615 25.139 -275.56 14.438C-276.832 9.97083 -278.394 5.756 -279.904 1.67994L-279.91 1.664L-280.205 0.868C-281.733 -3.26 -283.053 -6.826 -284.961 -10.336C-285.776 -11.8389 -286.681 -13.3465 -287.559 -14.8074L-287.615 -14.901C-289.943 -18.771 -292.35 -22.774 -293.32 -27.044C-293.618 -28.3416 -293.769 -29.6686 -293.77 -31ZM-297.66 -31H-298V-30.8405C-296.984 -26.6543 -294.568 -22.7728 -292.231 -19.017L-292.228 -19.012C-291.355 -17.61 -290.452 -16.159 -289.642 -14.721C-287.605 -11.1213 -286.192 -7.40761 -284.556 -3.10806L-284.556 -3.10796L-284.556 -3.107L-284.385 -2.655C-282.808 1.485 -281.292 5.562 -280.065 9.931C-277.339 19.947 -275.559 32.947 -275.832 40.841C-276.092 46.8242 -278.505 48.8685 -280.839 50.8452L-280.84 50.846L-280.844 50.8493L-280.844 50.8494C-281.327 51.2582 -281.782 51.6442 -282.224 52.068L-282.307 52.15C-283.168 52.997 -284.144 53.958 -283.877 56.613C-283.738 57.976 -283.239 59.796 -282.393 62.023C-281.269 64.9811 -279.847 68.1838 -278.472 71.2833L-278.451 71.33L-278.321 71.6218L-278.32 71.6253L-278.318 71.6287C-277.971 72.4107 -277.624 73.1909 -277.284 73.968C-273.626 82.39 -268.91 91.78 -264.35 100.859C-261.352 106.826 -258.522 112.462 -256.083 117.632C-252.166 125.934 -250.036 131.789 -247.976 137.452C-247.079 139.916 -246.152 142.462 -245.092 145.178C-242.337 152.081 -238.026 160.128 -232.277 169.093C-227.849 176.01 -221.373 185.038 -213.031 195.923C-205.808 205.363 -198.723 214.076 -191.371 222.565C-184.684 230.305 -171.53 244.975 -158.556 256.282C-152.06 261.942 -147.096 265.57 -142.893 268.26C-148.398 265.337 -154.698 261.628 -164.907 252.733C-178.599 240.804 -192.393 225.103 -199.397 216.805C-206.062 208.931 -212.484 200.885 -219.03 192.205C-227.66 180.778 -234.756 170.658 -239.553 162.94C-244.911 154.333 -248.95 146.564 -251.555 139.852C-252.794 136.596 -253.804 133.624 -254.78 130.75L-254.781 130.749L-254.795 130.707C-256.573 125.475 -258.413 120.064 -261.715 112.631C-264.212 107.018 -267.198 100.825 -270.361 94.27C-274.742 85.186 -279.271 75.794 -282.741 67.401C-283.109 66.534 -283.479 65.6684 -283.853 64.804L-283.857 64.7946L-283.857 64.7945C-285.898 60.0568 -288.21 54.6899 -288.474 51.526C-288.699 48.9272 -287.736 48.0831 -286.804 47.2662L-286.804 47.266L-286.686 47.161C-286.292 46.823 -285.886 46.505 -285.457 46.17L-285.454 46.1675C-283.035 44.2731 -280.293 42.1262 -279.961 35.819C-279.601 27.495 -281.351 14.28 -284.123 4.396C-285.35 0.154999 -286.883 -3.838 -288.479 -7.896C-290.229 -12.348 -291.729 -16.029 -293.794 -19.509C-294.573 -20.8252 -295.432 -22.1562 -296.264 -23.4443L-296.284 -23.476C-296.859 -24.3656 -297.438 -25.2621 -298 -26.1679V-25.4853C-297.532 -24.7415 -297.056 -24.0039 -296.582 -23.271C-295.746 -21.978 -294.882 -20.64 -294.1 -19.319C-292.05 -15.862 -290.554 -12.194 -288.81 -7.759C-287.219 -3.709 -285.688 0.274 -284.467 4.499C-281.704 14.348 -279.96 27.512 -280.318 35.799C-280.642 41.935 -283.2 43.938 -285.674 45.874L-285.712 45.9041C-286.113 46.2186 -286.526 46.5427 -286.917 46.878L-287.037 46.983L-287.039 46.985C-287.993 47.8225 -289.073 48.7713 -288.831 51.556C-288.562 54.7779 -286.242 60.1624 -284.192 64.9207L-284.179 64.952L-284.062 65.2248C-283.718 66.0216 -283.383 66.8 -283.069 67.547C-279.598 75.9394 -275.071 85.3279 -270.693 94.4082L-270.681 94.433L-270.614 94.5723C-267.479 101.075 -264.517 107.217 -262.041 112.783C-258.744 120.202 -256.908 125.604 -255.133 130.828L-255.104 130.912L-255.104 130.913C-254.13 133.777 -253.123 136.74 -251.887 139.987C-249.272 146.723 -245.223 154.512 -239.853 163.138C-235.05 170.865 -227.947 180.995 -219.311 192.431C-212.761 201.117 -206.335 209.17 -199.665 217.047C-192.655 225.354 -178.848 241.071 -165.138 253.015C-154.598 262.197 -148.21 265.871 -142.569 268.846L-142.426 268.556C-140.018 270.078 -137.855 271.299 -135.789 272.429L-135.7 272.255C-136.335 271.845 -136.985 271.416 -137.651 270.965C-142.916 267.993 -149.054 264.065 -158.321 255.992C-171.276 244.7 -184.418 230.044 -191.097 222.312C-198.445 213.829 -205.525 205.12 -212.743 195.688C-221.079 184.811 -227.549 175.792 -231.972 168.884C-237.708 159.939 -242.008 151.914 -244.752 145.034C-245.812 142.325 -246.738 139.781 -247.633 137.319L-247.637 137.307C-249.7 131.64 -251.834 125.777 -255.754 117.467C-258.192 112.301 -261.018 106.673 -264.011 100.715L-264.012 100.713L-264.026 100.685C-268.584 91.61 -273.297 82.226 -276.951 73.812C-277.263 73.1022 -277.58 72.3884 -277.896 71.6739L-277.897 71.6733L-277.898 71.671L-277.898 71.6698L-278.119 71.172L-278.129 71.1498L-278.129 71.149C-279.507 68.0482 -280.932 64.8417 -282.054 61.885C-282.887 59.691 -283.38 57.904 -283.514 56.575C-283.762 54.1111 -282.898 53.2565 -282.062 52.4311L-282.057 52.426L-281.975 52.346C-281.542 51.931 -281.089 51.547 -280.61 51.141L-280.61 51.1407C-278.325 49.2058 -275.735 47.0127 -275.467 40.858C-275.193 32.928 -276.979 19.879 -279.714 9.828C-280.945 5.442 -282.465 1.356 -284.044 -2.792L-284.216 -3.244C-285.857 -7.558 -287.275 -11.284 -289.327 -14.91C-290.142 -16.356 -291.047 -17.81 -291.922 -19.215C-294.257 -22.967 -296.67 -26.845 -297.66 -31ZM-298 -23.4733V-22.8068C-296.178 -19.7428 -294.83 -16.5607 -293.277 -12.764C-291.6 -8.667 -289.988 -4.624 -288.706 -0.204C-285.919 9.722 -284.268 23.312 -284.866 31.408C-285.363 37.258 -287.978 39.1503 -290.507 40.98L-290.508 40.981C-290.938 41.291 -291.381 41.611 -291.801 41.945L-291.861 41.995L-291.864 41.9973C-292.875 42.8218 -294.021 43.7557 -293.804 46.595C-293.72 47.688 -293.414 49.074 -292.894 50.715C-291.85 54.0189 -290.24 57.8768 -288.683 61.6078L-288.683 61.608L-288.477 62.1019C-288.156 62.8711 -287.838 63.6327 -287.531 64.38C-284.485 71.8874 -280.637 80.1758 -276.916 88.1912L-276.894 88.238C-273.824 94.85 -270.925 101.094 -268.524 106.767C-265.409 114.117 -263.689 119.544 -262.026 124.792C-261.071 127.806 -260.083 130.922 -258.846 134.35C-256.423 140.929 -252.547 148.691 -247.326 157.422C-241.034 167.977 -231.966 180.577 -225.467 189.289C-218.874 198.146 -212.494 206.242 -205.964 214.039C-198.976 222.408 -185.208 238.229 -171.508 250.153C-160.91 259.379 -154.373 263.01 -149.076 265.689L-148.924 265.368C-154.202 262.698 -160.719 259.08 -171.286 249.88C-184.968 237.973 -198.722 222.167 -205.704 213.806C-212.229 206.014 -218.605 197.924 -225.194 189.073C-231.689 180.368 -240.749 167.778 -247.034 157.236C-252.242 148.524 -256.109 140.781 -258.524 134.225C-259.747 130.836 -260.726 127.748 -261.673 124.762L-261.673 124.762L-261.699 124.681L-261.7 124.679C-263.365 119.422 -265.087 113.987 -268.209 106.623C-270.613 100.944 -273.513 94.698 -276.584 88.084L-276.628 87.9883C-280.341 79.99 -284.176 71.7261 -287.214 64.241C-287.514 63.5112 -287.824 62.7699 -288.136 62.0205L-288.367 61.467C-289.922 57.744 -291.528 53.894 -292.567 50.604C-293.078 48.991 -293.379 47.632 -293.461 46.568C-293.661 43.918 -292.638 43.083 -291.649 42.278L-291.589 42.23C-291.199 41.9193 -290.799 41.6294 -290.379 41.3243L-290.378 41.324L-290.312 41.276L-290.311 41.2754C-287.837 39.4865 -285.034 37.4593 -284.522 31.44C-283.922 23.305 -285.579 9.66 -288.376 -0.302C-289.664 -4.742 -291.279 -8.794 -292.96 -12.901C-294.6 -16.9108 -296.014 -20.2382 -298 -23.4733ZM-298 -19.0029V-18.1527C-297.844 -17.7904 -297.687 -17.4223 -297.527 -17.048C-296.009 -13.49 -294.278 -9.316 -292.97 -4.836C-290.238 4.811 -288.687 18.278 -289.361 26.488C-289.912 32.4336 -292.63 34.2951 -295.257 36.0947L-295.259 36.096L-295.339 36.151L-295.339 36.1511C-295.792 36.4618 -296.259 36.7819 -296.697 37.118L-296.726 37.14C-297.163 37.4829 -297.624 37.846 -298 38.3641V38.9991C-297.625 38.2775 -297.069 37.8409 -296.524 37.413L-296.498 37.391C-296.041 37.043 -295.572 36.721 -295.075 36.381C-292.505 34.621 -289.595 32.628 -289.029 26.515C-288.351 18.266 -289.909 4.745 -292.649 -4.939C-293.964 -9.439 -295.699 -13.624 -297.222 -17.192C-297.486 -17.8119 -297.745 -18.4148 -298 -19.0029ZM-298 44.3216V45.6154C-297.124 48.6581 -295.653 52.2974 -294.299 55.646C-293.934 56.548 -293.579 57.426 -293.249 58.263C-290.349 65.762 -286.653 74.062 -283.077 82.089L-283.044 82.1633C-279.836 89.3658 -276.807 96.168 -274.384 102.282C-271.724 109.012 -270.222 114.137 -268.77 119.095L-268.77 119.096C-267.862 122.198 -266.923 125.406 -265.711 128.957C-263.292 135.911 -259.246 144.227 -253.686 153.673C-249.083 161.513 -242.307 171.616 -233.546 183.698C-226.408 193.562 -219.4 202.622 -212.126 211.398C-205.151 219.838 -191.401 235.775 -177.689 247.688C-167.015 256.963 -160.549 260.428 -155.328 262.948L-155.186 262.634C-160.389 260.124 -166.83 256.671 -177.473 247.422C-191.167 235.525 -204.903 219.604 -211.872 211.172C-219.142 202.402 -226.145 193.347 -233.279 183.489C-242.033 171.415 -248.802 161.324 -253.4 153.492C-258.95 144.065 -262.985 135.771 -265.396 128.84C-266.605 125.298 -267.543 122.093 -268.45 118.994L-268.45 118.993L-268.453 118.982C-269.906 114.021 -271.409 108.889 -274.074 102.149C-276.508 96.007 -279.551 89.175 -282.773 81.942C-286.347 73.919 -290.043 65.622 -292.938 58.13C-293.271 57.292 -293.626 56.412 -293.991 55.51L-294 55.4867C-295.531 51.6969 -297.212 47.5359 -298 44.3216ZM-298 30.3688C-295.919 28.7728 -294.014 26.4793 -293.531 21.682C-292.779 13.327 -294.247 -0.0679989 -296.947 -9.477C-297.275 -10.5837 -297.628 -11.6661 -298 -12.725V-11.7201C-297.741 -10.9518 -297.493 -10.1716 -297.259 -9.379C-294.569 -0.00699997 -293.106 13.333 -293.856 21.651C-294.313 26.1962 -296.016 28.3906 -298 29.9543V30.3688ZM-298 54.7425V53.8149C-295.376 60.8216 -292.065 68.5559 -288.863 76.037L-288.806 76.1697C-285.684 83.4666 -282.736 90.3577 -280.401 96.573C-277.901 103.225 -276.526 108.336 -275.196 113.28C-274.256 116.774 -273.284 120.386 -271.927 124.481C-269.51 131.62 -265.274 140.478 -259.675 150.098C-255.339 157.562 -249.302 166.768 -241.217 178.245C-233.602 189.068 -225.985 199.099 -217.929 208.909C-206.081 223.383 -193.533 236.669 -183.501 245.359C-172.752 254.673 -166.37 257.961 -161.23 260.313L-161.362 260.62C-166.521 258.259 -172.93 254.958 -183.71 245.615C-193.755 236.915 -206.318 223.614 -218.178 209.125C-226.239 199.309 -233.86 189.273 -241.48 178.443C-249.57 166.958 -255.614 157.743 -259.955 150.271C-265.565 140.632 -269.811 131.751 -272.235 124.591C-273.595 120.487 -274.569 116.869 -275.51 113.37L-275.517 113.345C-276.843 108.418 -278.214 103.321 -280.704 96.695C-283.051 90.449 -286.019 83.515 -289.161 76.175C-292.242 68.9759 -295.425 61.5417 -298 54.7425ZM-298 16.6733C-297.715 13.4336 -297.73 9.61114 -298 5.6182V16.6733ZM-298 62.7166C-296.985 65.2214 -295.953 67.7355 -294.932 70.2206L-294.924 70.241C-291.71 78.067 -288.675 85.458 -286.356 92.08C-284.171 98.326 -282.961 103.252 -281.791 108.018C-280.89 111.69 -279.957 115.488 -278.588 119.829C-276.246 127.1 -272.132 136.012 -266.692 145.605C-256.89 162.992 -241.512 185.175 -225.556 204.942C-218.524 213.707 -204.636 230.25 -190.623 242.59C-179.582 252.313 -172.783 255.93 -167.083 258.39L-167.203 258.688C-172.928 256.219 -179.752 252.589 -190.826 242.837C-204.857 230.48 -218.759 213.92 -225.797 205.15C-241.764 185.37 -257.152 163.17 -266.962 145.768C-272.413 136.157 -276.536 127.222 -278.885 119.93C-280.254 115.59 -281.185 111.797 -282.086 108.131L-282.094 108.097C-283.262 103.339 -284.47 98.42 -286.65 92.189C-288.964 85.5799 -291.995 78.1977 -295.205 70.3819L-295.211 70.368C-296.138 68.1103 -297.076 65.8289 -298 63.5522V62.7166ZM-298 72.0958V72.9342C-295.971 78.1722 -294.054 83.3088 -292.565 87.908C-290.667 93.782 -289.615 98.529 -288.599 103.119L-288.588 103.167C-287.741 106.992 -286.863 110.951 -285.499 115.519C-283.288 122.779 -279.402 131.517 -273.952 141.492C-268.965 150.646 -261.585 162.342 -252.612 175.312C-246.123 184.705 -239.812 193.278 -233.319 201.517C-226.244 210.524 -212.226 227.556 -197.839 240.427C-185.934 251.077 -178.543 254.853 -172.884 257.141L-172.774 256.851C-178.409 254.571 -185.771 250.811 -197.641 240.192C-212.011 227.335 -226.015 210.32 -233.085 201.322C-239.575 193.086 -245.882 184.519 -252.366 175.131C-261.334 162.168 -268.708 150.483 -273.689 141.338C-279.052 131.522 -283.037 122.562 -285.212 115.425C-286.578 110.851 -287.456 106.885 -288.305 103.05L-288.309 103.033L-288.309 103.032C-289.326 98.4398 -290.377 93.6895 -292.279 87.809C-293.838 82.9915 -295.866 77.5878 -298 72.0958ZM-298 84.4117V85.4744C-296.654 90.2676 -295.851 94.3502 -295.072 98.317L-295.069 98.3306C-294.233 102.58 -293.368 106.976 -291.842 112.19C-289.595 119.694 -285.477 129.07 -279.93 139.303C-275.211 148.03 -268.548 158.798 -260.125 171.307C-253.124 181.717 -246.202 191.274 -238.965 200.521C-231.897 209.579 -217.888 226.691 -203.478 239.522C-191.441 250.239 -184.062 253.85 -178.433 255.969L-178.333 255.685C-183.939 253.575 -191.286 249.978 -203.288 239.294C-217.681 226.479 -231.676 209.382 -238.738 200.331C-245.971 191.089 -252.888 181.539 -259.885 171.135C-268.302 158.633 -274.961 147.874 -279.676 139.155C-285.212 128.941 -289.323 119.585 -291.564 112.102C-293.087 106.896 -293.951 102.504 -294.786 98.257C-295.619 94.017 -296.479 89.6442 -298 84.4117ZM-298 108.734V109.72C-295.724 117.208 -291.837 126.22 -286.679 135.943C-276.356 155.517 -260.94 178.903 -244.385 200.105C-237.342 209.174 -223.378 226.287 -208.981 239.019C-196.766 249.821 -189.146 253.314 -183.874 255.151L-183.784 254.877C-189.034 253.049 -196.621 249.569 -208.799 238.799C-223.179 226.082 -237.131 208.984 -244.167 199.924C-260.712 178.734 -276.117 155.364 -286.433 135.804C-291.791 125.702 -295.775 116.375 -298 108.734ZM-298 122.766L-298 123.426C-296.675 126.347 -295.211 129.378 -293.62 132.492C-288.677 142.192 -281.68 153.992 -272.826 167.562C-265.941 178.129 -259.087 187.858 -251.875 197.302C-244.447 207.059 -229.72 225.421 -214.531 238.767C-202.152 249.647 -194.511 252.984 -189.237 254.673L-189.157 254.407C-194.406 252.724 -202.014 249.402 -214.356 238.555C-229.527 225.223 -244.242 206.878 -251.663 197.128C-258.871 187.69 -265.721 177.967 -272.603 167.404C-281.452 153.843 -288.443 142.053 -293.382 132.361C-295.07 129.058 -296.614 125.849 -298 122.766ZM-298 133.713L-298 134.28C-287.887 153.567 -274.17 175.028 -259.136 195.053C-245.969 212.691 -231.698 228.663 -219.983 238.873C-207.469 249.786 -199.81 252.961 -194.536 254.508L-194.465 254.251C-199.714 252.711 -207.34 249.549 -219.815 238.668C-231.517 228.469 -245.774 212.512 -258.93 194.888C-274.069 174.722 -287.872 153.101 -298 133.713ZM-298 143.77L-298 144.274C-294.892 149.734 -291.396 155.586 -287.528 161.798C-280.117 173.712 -272.686 184.64 -264.808 195.207C-251.619 212.961 -237.302 228.991 -225.525 239.186C-212.68 250.312 -204.697 253.334 -199.81 254.638L-199.748 254.391C-204.613 253.091 -212.561 250.082 -225.367 238.989C-237.131 228.807 -251.435 212.791 -264.612 195.051C-272.485 184.491 -279.913 173.568 -287.32 161.659C-291.275 155.308 -294.841 149.334 -298 143.77ZM-298 153.928L-298 154.397C-289.786 168.218 -280.291 182.478 -270.318 195.868C-257.146 213.652 -242.82 229.665 -231.011 239.802C-218.011 250.97 -209.981 253.842 -205.071 255.03L-205.017 254.792C-209.904 253.609 -217.899 250.749 -230.86 239.613C-242.656 229.488 -256.97 213.489 -270.13 195.718C-280.179 182.224 -289.744 167.848 -298 153.928ZM-298 163.738L-298 164.22C-291.727 174.299 -284.907 184.406 -277.747 194.194C-269.96 204.894 -254.434 224.994 -237.951 239.394C-227.3 248.704 -218.526 253.872 -210.342 255.657L-210.296 255.429C-218.442 253.652 -227.183 248.499 -237.806 239.215C-254.272 224.83 -269.786 204.745 -277.568 194.053C-284.712 184.285 -291.626 174.008 -298 163.738ZM-298 173.573L-298 173.972C-293.885 180.314 -289.598 186.6 -285.211 192.71C-277.412 203.628 -261.811 224.182 -244.956 239.167C-233.727 249.155 -224.137 254.821 -215.639 256.487L-215.599 256.269C-224.059 254.61 -233.616 248.961 -244.815 238.999C-261.655 224.027 -277.244 203.488 -285.038 192.578C-289.487 186.382 -293.832 180.005 -298 173.573ZM-298 183.339L-298 183.706C-295.681 187.133 -293.317 190.529 -290.917 193.882C-283.125 204.813 -267.529 225.379 -250.617 240.312C-239.249 250.355 -229.555 255.972 -220.98 257.482L-220.945 257.274C-229.483 255.77 -239.145 250.169 -250.485 240.151C-267.382 225.232 -282.966 204.681 -290.753 193.758C-293.21 190.326 -295.628 186.848 -298 183.339ZM-298 192.99L-298 193.327C-297.568 193.938 -297.134 194.547 -296.7 195.155C-288.916 206.095 -273.322 226.67 -256.348 241.559C-244.842 251.657 -235.037 257.234 -226.374 258.605L-226.344 258.408C-234.97 257.042 -244.744 251.481 -256.222 241.406C-273.181 226.531 -288.765 205.97 -296.545 195.037C-297.031 194.357 -297.516 193.674 -298 192.99ZM-298 202.437L-298 202.747C-289.101 214.712 -276.088 230.721 -262.153 242.867C-250.509 253.025 -240.593 258.568 -231.835 259.817L-231.809 259.631C-240.531 258.388 -250.419 252.857 -262.035 242.724C-276.034 230.522 -289.103 214.415 -298 202.437ZM-298 211.632V211.882C-295.819 214.654 -293.631 217.346 -291.46 219.929C-283.324 229.612 -275.44 237.777 -268.032 244.197C-256.414 254.274 -246.096 259.953 -237.365 261.076L-237.343 260.899C-246.042 259.78 -256.33 254.115 -267.923 244.061C-273.958 238.832 -284.712 228.537 -298 211.632ZM-298 220.391L-298 220.624C-297.858 220.794 -297.715 220.964 -297.573 221.133C-289.42 230.833 -281.512 239.009 -274.066 245.436C-262.284 255.618 -251.822 261.305 -242.97 262.339L-242.951 262.173C-251.772 261.143 -262.206 255.469 -273.964 245.308C-279.069 240.901 -287.523 232.903 -298 220.391ZM-298 228.675L-298 228.902C-291.828 235.792 -285.822 241.756 -280.083 246.688C-268.179 256.93 -257.603 262.608 -248.648 263.564L-248.633 263.41C-257.557 262.457 -268.106 256.79 -279.988 246.567C-284.079 243.051 -290.312 237.244 -298 228.675ZM-298 236.438V236.641C-295.15 239.579 -292.22 242.43 -289.232 245.129C-282.095 251.581 -275.307 256.529 -269.055 259.835C-263.757 262.638 -258.825 264.277 -254.398 264.707L-254.385 264.565C-258.795 264.135 -263.711 262.502 -268.992 259.708C-275.233 256.406 -282.012 251.465 -289.141 245.021C-292.161 242.293 -295.121 239.41 -298 236.438ZM-298 243.53L-298 243.709C-297.127 244.53 -296.249 245.339 -295.365 246.135C-288.201 252.594 -281.373 257.547 -275.072 260.858C-269.693 263.684 -264.693 265.322 -260.211 265.728L-260.199 265.595C-272.494 264.485 -286.063 254.345 -295.281 246.035C-296.193 245.214 -297.1 244.378 -298 243.53ZM-298 249.881V250.037C-288.941 257.66 -277.023 265.657 -266.077 266.585L-266.069 266.464C-277.014 265.537 -288.946 257.511 -298 249.881ZM-298 255.379L-298 255.513C-289.977 261.411 -280.679 266.54 -271.983 267.237L-271.974 267.128C-280.671 266.43 -289.976 261.286 -298 255.379ZM-298 259.943L-298 260.058C-291.503 264.083 -284.537 267.144 -277.914 267.65L-277.907 267.552C-284.53 267.045 -291.501 263.976 -298 259.943ZM-298 263.463L-298 263.554C-292.046 266.454 -287.339 267.532 -283.848 267.788L-283.842 267.701C-288.486 267.36 -293.297 265.767 -298 263.463ZM-298 265.794L-298 265.874C-294.751 266.969 -292.009 267.464 -289.765 267.622L-289.76 267.546C-292.004 267.388 -294.748 266.892 -298 265.794ZM-298 266.794L-298 266.859C-297.16 266.989 -296.374 267.074 -295.64 267.124L-295.637 267.06C-296.371 267.01 -297.159 266.925 -298 266.794ZM-271.014 -31C-270.7 -30.876 -270.386 -30.754 -270.072 -30.634C-265.981 -29.077 -262.59 -28.194 -259.402 -27.858C-258.79 -27.793 -258.152 -27.718 -257.533 -27.643L-257.509 -27.6401C-255.007 -27.341 -252.419 -27.0318 -249.947 -27.274C-247.392 -27.528 -245.147 -28.918 -243.545 -31H-244.05C-245.571 -29.141 -247.64 -27.907 -249.984 -27.675C-252.423 -27.435 -254.998 -27.743 -257.488 -28.043L-257.603 -28.0567C-258.186 -28.1265 -258.784 -28.198 -259.362 -28.259C-262.508 -28.591 -265.859 -29.462 -269.905 -31H-271.014ZM-257.726 -31C-256.281 -30.852 -254.833 -30.78 -253.419 -30.908C-253.182 -30.929 -252.948 -30.96 -252.717 -31H-257.726ZM-111.898 286.407C-111.211 286.852 -110.552 287.269 -109.918 287.665C-110.58 287.25 -111.241 286.831 -111.898 286.407ZM-111.898 286.407C-111.993 286.346 -112.088 286.285 -112.184 286.222L-112.384 286.092L-112.382 286.095C-112.221 286.199 -112.06 286.303 -111.898 286.407ZM18.174 -31C19.159 -28.236 20.059 -25.383 20.947 -22.564C21.4307 -21.0137 21.9237 -19.4664 22.426 -17.922C25.899 -7.39 28.986 2.102 31.606 11.624C32.7805 15.8684 33.5529 20.1118 34.2997 24.2152L34.2999 24.2166L34.31 24.272L34.3117 24.2815C35.0042 28.0885 35.7198 32.0232 36.745 35.867C38.1096 40.989 42.3018 44.9842 45.365 47.9035L45.3652 47.9036L45.374 47.912C54.971 57.068 63.594 65.871 71.736 74.823C90.986 96.064 110.581 118.849 123.512 141.553C131.998 156.503 138.498 173.33 143.388 193C145.425 200.978 147.796 209.506 152.368 218.342C157.313 227.899 164.32 236.702 173.789 245.257C190.172 260 212.25 268.433 236 276.551V275.522C212.455 267.467 190.59 259.081 174.41 244.521C154.107 226.178 148.762 210.223 144.302 192.753C139.392 172.997 132.858 156.088 124.327 141.059C111.349 118.272 91.713 95.438 72.426 74.155C64.268 65.185 55.629 56.365 46.015 47.193C42.149 43.513 38.853 40.099 37.655 35.607C36.641 31.8 35.928 27.881 35.239 24.091L35.2354 24.0707L35.235 24.0688C34.4822 19.9327 33.7039 15.6563 32.515 11.356C29.889 1.814 26.798 -7.692 23.32 -18.236C22.8196 -19.7767 22.3276 -21.32 21.844 -22.866C20.99 -25.58 20.124 -28.326 19.181 -31H18.174ZM25.497 -31C25.837 -30.03 26.173 -29.061 26.507 -28.095C27.0399 -26.5479 27.5805 -25.0036 28.129 -23.462L28.1623 -23.3695C31.849 -13.1462 35.6599 -2.57849 38.925 7.866C40.234 12.0359 41.2065 16.2358 42.1469 20.297L42.1473 20.2988L42.149 20.306L42.1548 20.3313C43.04 24.1505 43.9546 28.0965 45.136 31.941C46.775 37.278 50.938 41.142 54.612 44.551C63.558 52.863 72.223 61.537 81.102 71.068C100.462 91.924 122.306 116.208 136.539 140.517C142.149 150.126 150.45 166.147 157.744 194.226C159.982 202.617 162.754 211.643 167.824 220.786C173.384 230.813 181.147 239.979 191.556 248.809C200.272 256.175 210.624 262.289 224.132 268.053C227.992 269.699 231.951 271.248 236 272.74V271.691C232.129 270.269 228.293 268.751 224.497 267.14C211.077 261.416 200.803 255.349 192.162 248.046C181.845 239.295 174.155 230.217 168.654 220.296C163.636 211.248 160.888 202.293 158.666 193.967C155.158 180.464 149.133 160.177 137.358 140.007C123.075 115.613 101.188 91.279 81.792 70.385C72.896 60.836 64.214 52.146 55.252 43.818L55.2448 43.8113C51.6636 40.488 47.6049 36.7216 46.047 31.644C44.874 27.824 43.962 23.887 43.08 20.079L43.078 20.0703L43.0778 20.0694C42.1324 15.9884 41.155 11.7687 39.836 7.564C36.5582 -2.91854 32.7358 -13.5168 29.0402 -23.7635L29.026 -23.803C28.5518 -25.1267 28.079 -26.4896 27.6163 -27.8236L27.6158 -27.825L27.407 -28.427C27.112 -29.283 26.814 -30.141 26.514 -31H25.497ZM33.091 -31C33.463 -30.014 33.837 -29.027 34.214 -28.055L34.61 -27.036C38.345 -17.47 42.205 -7.58 45.655 2.201C47.139 6.395 48.333 10.661 49.487 14.787C50.662 18.989 51.877 23.334 53.385 27.531C55.2655 32.7679 59.3086 36.4452 63.2188 40.0016L63.228 40.01C72.225 48.202 81.448 57.297 91.421 67.811C113.218 90.874 135.715 115.484 150.258 140.503C161.285 159.532 167.266 178.713 171.662 194.97C173.811 202.73 176.756 211.954 182.311 221.528C188.062 231.443 195.916 240.54 206.324 249.339C214.492 256.224 224.041 262.064 236 267.459V266.365C224.305 261.058 214.945 255.315 206.935 248.565C183.531 228.777 176.937 210.382 172.594 194.698C168.18 178.38 162.174 159.119 151.088 139.989C136.492 114.878 113.951 90.218 92.113 67.112C82.122 56.58 72.883 47.469 63.868 39.26L63.8676 39.2596C60.0438 35.7828 56.0889 32.1868 54.292 27.183C52.796 23.0201 51.5861 18.6932 50.4161 14.5093L50.416 14.509C49.258 10.367 48.06 6.083 46.564 1.857C43.11 -7.939 39.245 -17.838 35.507 -27.411L35.11 -28.427C34.782 -29.275 34.455 -30.137 34.128 -31H33.091ZM41.045 -31C44.85 -21.936 48.759 -12.596 52.359 -3.337C53.9332 0.692915 55.2726 4.82472 56.568 8.8208L56.5689 8.82349L56.57 8.827C58.002 13.243 59.483 17.81 61.267 22.193C63.3538 27.3271 67.4684 30.9859 71.4473 34.524L71.454 34.53L71.822 34.856C80.523 42.607 89.661 51.525 101.449 63.768C125.213 88.537 147.774 112.875 162.632 138.308C174.012 157.837 179.879 177.188 184.488 193.798C186.643 201.384 189.915 211.406 196.128 221.645C202.442 232.052 211.004 241.519 222.3 250.587C226.597 254.03 231.178 257.122 236 259.939V258.774C231.394 256.057 227.013 253.084 222.9 249.79C211.694 240.795 203.209 231.413 196.956 221.11C190.808 210.975 187.564 201.039 185.426 193.518C180.802 176.85 174.911 157.422 163.47 137.788C148.556 112.259 125.951 87.872 102.143 63.058C90.335 50.795 81.181 41.861 72.46 34.093L72.091 33.765C68.195 30.302 64.167 26.721 62.167 21.803C60.3985 17.4576 58.9254 12.9135 57.5006 8.51791L57.497 8.507C56.196 4.495 54.849 0.344999 53.266 -3.715C49.714 -12.848 45.866 -22.055 42.111 -31H41.045ZM49.337 -31C52.444 -24.046 55.577 -16.965 58.56 -9.927C60.199 -6.069 61.657 -2.087 63.066 1.763C64.768 6.413 66.529 11.223 68.61 15.806C70.859 20.7609 74.8966 24.2911 78.8011 27.7048L78.8014 27.705L78.806 27.709L79.403 28.231C90.129 37.636 100.717 48.278 109.661 57.448L109.668 57.4548L109.668 57.4551L109.669 57.4558C130.681 79.0785 156.829 105.985 173.301 133.676C184.967 153.334 190.836 172.508 195.848 190.466C198.067 198.221 201.427 208.462 207.775 218.913C214.172 229.443 222.837 239.055 234.265 248.299C234.837 248.761 235.415 249.217 236 249.669V248.39C235.622 248.094 235.247 247.796 234.874 247.495C223.537 238.325 214.948 228.798 208.613 218.37C205.312 212.936 200.985 204.82 196.798 190.18C191.768 172.158 185.875 152.908 174.145 133.141C157.609 105.343 131.41 78.384 110.359 56.723C101.402 47.538 90.795 36.878 80.043 27.45L79.446 26.927C75.62 23.584 71.663 20.126 69.506 15.371C67.44 10.825 65.686 6.033 63.991 1.401L63.9545 1.30142C62.5509 -2.53061 61.1008 -6.48936 59.464 -10.34C56.54 -17.238 53.472 -24.18 50.426 -31H49.337ZM57.719 -31C59.68 -26.834 61.638 -22.639 63.551 -18.461C65.335 -14.573 66.97 -10.546 68.551 -6.651L68.5542 -6.6432C70.5962 -1.61362 72.7083 3.58855 75.158 8.519C77.512 13.259 81.43 16.643 85.22 19.914L86.043 20.626C95.736 29.04 105.313 38.488 116.709 50.086L117.1 50.486C139.909 73.778 165.76 100.178 182.457 127.901C195.119 148.968 201.056 170.178 205.828 187.226L205.828 187.226L205.828 187.228L205.83 187.234C209.25 199.138 213.226 208.307 218.722 216.964C223.358 224.264 229.068 231.095 236 237.615V236.219C229.433 229.948 223.997 223.389 219.557 216.397C214.117 207.829 210.179 198.745 206.79 186.944L206.785 186.927L206.785 186.926C201.997 169.823 196.038 148.54 183.305 127.356C166.545 99.529 140.65 73.084 117.802 49.752L117.41 49.352C105.996 37.736 96.402 28.272 86.684 19.837L85.859 19.123L85.8511 19.1162C82.1406 15.9113 78.3054 12.5988 76.046 8.048C73.614 3.15 71.508 -2.036 69.473 -7.05L69.4589 -7.08476C67.8773 -10.98 66.2427 -15.0056 64.453 -18.904C62.608 -22.934 60.721 -26.979 58.83 -31H57.719ZM66.898 -31C67.781 -29.2198 68.6603 -27.4378 69.536 -25.654C71.2341 -22.1972 72.8351 -18.5947 74.3833 -15.1109L74.405 -15.062C76.676 -9.949 79.025 -4.662 81.736 0.290001C84.1674 4.73313 87.9092 7.91189 91.529 10.987L91.5292 10.9873L91.536 10.993L92.34 11.677C102.968 20.75 113.42 31.147 124.082 41.893L125.776 43.606L125.788 43.6177C149.436 67.5348 176.237 94.6407 193.142 123.205C205.227 143.681 210.914 164.131 215.933 182.178L215.934 182.182C219.242 193.792 223.321 203.217 228.774 211.844C230.978 215.326 233.391 218.67 236 221.86V220.232C233.712 217.365 231.582 214.375 229.62 211.275C224.223 202.737 220.182 193.398 216.903 181.893C211.868 163.784 206.161 143.261 194.003 122.663C177.029 93.983 150.175 66.824 126.481 42.862L124.786 41.148C114.107 30.385 103.64 19.971 92.981 10.874C92.713 10.644 92.444 10.416 92.175 10.188L92.1747 10.1877C88.4608 7.03383 84.9529 4.05488 82.612 -0.222C79.922 -5.136 77.582 -10.403 75.321 -15.496L75.2661 -15.6196C73.7232 -19.0911 72.1309 -22.6739 70.435 -26.123C69.6391 -27.7508 68.8388 -29.3765 68.034 -31H66.898ZM77.169 -31C78.036 -29.26 78.889 -27.515 79.726 -25.797L79.7549 -25.7377L79.7553 -25.7369L79.7566 -25.7342L79.7573 -25.7327C82.4937 -20.1267 85.3224 -14.3315 88.565 -8.97C91.087 -4.798 94.728 -1.803 98.248 1.092C98.741 1.497 99.235 1.904 99.727 2.314C110.407 11.222 120.77 21.535 131.739 32.453L134.569 35.278C158.726 59.397 186.106 86.734 203.464 115.73C215.493 135.868 220.961 155.293 226.25 174.08L226.254 174.093C226.572 175.228 226.891 176.359 227.21 177.488C229.583 185.678 232.44 192.871 236 199.557V197.327C232.886 191.194 230.337 184.605 228.189 177.19C227.87 176.06 227.552 174.93 227.234 173.8C221.927 154.94 216.438 135.441 204.333 115.176C186.909 86.0679 159.482 58.6847 135.283 34.5248L135.278 34.52L132.497 31.743L132.447 31.693L132.425 31.6716L132.425 31.6713L132.425 31.6708L132.424 31.6703L132.424 31.6697C121.446 20.7444 111.076 10.4237 100.367 1.493C99.9121 1.11207 99.4529 0.734552 98.995 0.358088L98.9948 0.357944L98.9939 0.357178L98.883 0.266001C95.271 -2.704 91.86 -5.51 89.43 -9.529C86.2 -14.871 83.373 -20.667 80.639 -26.273C79.879 -27.833 79.105 -29.417 78.319 -31H77.169ZM88.537 -31C90.748 -26.954 93.06 -22.93 95.59 -19.163C98.1559 -15.3472 101.638 -12.5953 105.005 -9.93341L105.006 -9.933C105.644 -9.43 106.302 -8.91 106.943 -8.39C117.314 0.00580978 127.34 9.84219 137.953 20.2544L137.954 20.255L137.969 20.27L140.051 22.312C140.906 23.1538 141.765 23.9982 142.627 24.8462L143.638 25.84L143.654 25.8561C168.562 50.3422 196.792 78.0935 214.665 107.733C225.6 125.904 231.11 143.525 236 160.617V156.881C231.32 140.797 225.816 124.242 215.542 107.171C197.594 77.409 169.306 49.601 144.349 25.068C143.181 23.9214 142.022 22.7805 140.868 21.6452L140.761 21.54L138.678 19.498C128.041 9.061 117.994 -0.797001 107.578 -9.228C106.932 -9.74845 106.283 -10.2651 105.631 -10.778L105.624 -10.7838C102.169 -13.5146 98.9073 -16.0936 96.438 -19.771C94.04 -23.341 91.835 -27.154 89.723 -31H88.537ZM102.179 -31C102.377 -30.725 102.576 -30.45 102.778 -30.18C105.347 -26.759 108.653 -24.273 111.852 -21.871C112.664 -21.261 113.502 -20.631 114.316 -19.996C124.592 -11.9611 134.502 -2.3866 144.995 7.74987L144.999 7.754L145.158 7.9077C146.292 9.00272 147.429 10.1003 148.567 11.196C149.892 12.4783 151.228 13.7683 152.571 15.0652L152.885 15.368C178.668 40.266 207.891 68.486 226.393 98.865C230.175 105.088 233.312 111.25 236 117.351V114.789C233.419 109.123 230.505 103.615 227.275 98.292C208.702 67.7969 179.429 39.5275 153.601 14.5856L153.596 14.581L149.278 10.409C148.087 9.261 146.898 8.113 145.711 6.966C135.197 -3.191 125.265 -12.785 114.945 -20.855C114.124 -21.4921 113.298 -22.1214 112.465 -22.743L112.463 -22.7445C109.18 -25.211 106.078 -27.5407 103.602 -30.842L103.486 -31H102.179ZM123.578 -31C133.291 -23.476 143.061 -14.202 152.527 -5.21L153.379 -4.40116L153.384 -4.3958C154.683 -3.16217 155.984 -1.92707 157.287 -0.695999C158.589 0.540096 159.901 1.78304 161.222 3.03331L162.284 4.039L162.297 4.0512L162.298 4.05191C187.88 28.2787 216.725 55.5953 236 85.195V83.256C216.669 54.0646 188.258 27.159 163.016 3.25465L162.996 3.236C161.317 1.646 159.651 0.0680008 157.999 -1.5C156.411 -3.001 154.824 -4.508 153.241 -6.012C144.118 -14.677 134.714 -23.608 125.329 -31H123.578ZM146.882 -31C151.422 -26.948 155.933 -22.74 160.378 -18.59L160.783 -18.2117C162.558 -16.5551 164.382 -14.853 166.181 -13.188C167.721 -11.7565 169.274 -10.3161 170.837 -8.8668L171.812 -7.962C193.341 12.002 217.085 34.028 236 57.806V56.069C217.174 32.6266 193.77 10.9221 172.526 -8.77952L172.524 -8.781C170.632 -10.535 168.753 -12.277 166.893 -14.006C164.956 -15.8022 163.023 -17.6022 161.093 -19.406C156.947 -23.276 152.743 -27.199 148.51 -31H146.882ZM169.835 -31C171.623 -29.361 173.443 -27.696 175.239 -26.067C176.856 -24.5964 178.486 -23.1162 180.126 -21.6268L180.155 -21.6008L181.549 -20.335C199.472 -4.073 218.871 13.535 236 32.389V30.763C219.033 12.1996 199.932 -5.13403 182.265 -21.1669L182.26 -21.171C180.155 -23.08 178.052 -24.9907 175.95 -26.903C174.458 -28.254 172.948 -29.633 171.455 -31H169.835ZM193.58 -31C207.483 -18.656 222.149 -5.561 236 8.271V6.712C222.671 -6.547 208.625 -19.119 195.247 -31H193.58ZM217.988 -31C223.985 -25.713 230.024 -20.3 236 -14.758V-16.282C230.615 -21.2498 225.174 -26.1561 219.678 -31H217.988Z" fill="#C4C4C4"/>
</g>
<defs>
<linearGradient id="paint0_linear" x1="207.5" y1="11.5" x2="78.5" y2="209" gradientUnits="userSpaceOnUse">
<stop stop-color="#C4C4C4"/>
<stop offset="1" stop-color="#C4C4C4" stop-opacity="0"/>
</linearGradient>
</defs>
</svg>
