<?xml version="1.0" encoding="UTF-8"?>
<svg width="520px" height="465px" viewBox="0 0 520 465" version="1.1" xmlns="http://www.w3.org/2000/svg" xmlns:xlink="http://www.w3.org/1999/xlink">
    <!-- Generator: Sketch 54.1 (76490) - https://sketchapp.com -->
    <title>remote-registration-email</title>
    <desc>Created with Sketch.</desc>
    <defs>
        <path d="M24,0 L293.1,0 C298.070563,2.99901484e-14 302.1,4.02943725 302.1,9 L302.1,253 C302.1,257.970563 298.070563,262 293.1,262 L24,262 C19.0294373,262 15,257.970563 15,253 L15,9 C15,4.02943725 19.0294373,9.13077564e-16 24,0 Z" id="path-1"></path>
        <filter x="-23.5%" y="-25.8%" width="147.0%" height="151.5%" filterUnits="objectBoundingBox" id="filter-2">
            <feOffset dx="0" dy="0" in="SourceAlpha" result="shadowOffsetOuter1"></feOffset>
            <feGaussianBlur stdDeviation="22.5" in="shadowOffsetOuter1" result="shadowBlurOuter1"></feGaussianBlur>
            <feColorMatrix values="0 0 0 0 0   0 0 0 0 0   0 0 0 0 0  0 0 0 0.1 0" type="matrix" in="shadowBlurOuter1"></feColorMatrix>
        </filter>
        <path d="M11.5852253,164.032425 C77.7291342,206.426532 126.758077,227.623586 158.672053,227.623586 C190.558466,227.623586 239.128514,206.46313 304.382197,164.142219 L304.382195,164.142215 C307.71842,161.978474 312.177024,162.92896 314.340766,166.265186 C315.097376,167.431786 315.5,168.792513 315.5,170.182986 L315.5,324.178839 C315.5,328.155289 312.27645,331.378839 308.3,331.378839 L7.7,331.378839 C3.7235498,331.378839 0.5,328.155289 0.5,324.178839 C0.5,324.178839 0.5,324.178839 0.5,324.178839 L0.499998232,170.094203 C0.49999835,166.117749 3.72355117,162.894197 7.70000498,162.894197 C9.07728761,162.894197 10.4256733,163.289225 11.5852253,164.032425 Z" id="path-3"></path>
        <filter x="-21.4%" y="-39.6%" width="142.9%" height="179.6%" filterUnits="objectBoundingBox" id="filter-5">
            <feOffset dx="0" dy="0" in="SourceAlpha" result="shadowOffsetOuter1"></feOffset>
            <feGaussianBlur stdDeviation="22.5" in="shadowOffsetOuter1" result="shadowBlurOuter1"></feGaussianBlur>
            <feColorMatrix values="0 0 0 0 0   0 0 0 0 0   0 0 0 0 0  0 0 0 0.1 0" type="matrix" in="shadowBlurOuter1"></feColorMatrix>
        </filter>
        <path d="M162.833218,210.017974 L311.651803,319.510002 C315.655487,322.455679 316.513171,328.089248 313.567494,332.092932 C311.871444,334.398157 309.180115,335.759312 306.318184,335.759312 L8.68101361,335.759312 C3.71045086,335.759312 -0.318986394,331.729875 -0.318986394,326.759312 C-0.318986394,323.897381 1.04216843,321.206052 3.34739408,319.510002 L152.165979,210.017974 C155.338632,207.683721 159.660565,207.683721 162.833218,210.017974 Z" id="path-6"></path>
        <filter x="-21.5%" y="-52.6%" width="143.1%" height="205.5%" filterUnits="objectBoundingBox" id="filter-7">
            <feOffset dx="0" dy="0" in="SourceAlpha" result="shadowOffsetOuter1"></feOffset>
            <feGaussianBlur stdDeviation="22.5" in="shadowOffsetOuter1" result="shadowBlurOuter1"></feGaussianBlur>
            <feColorMatrix values="0 0 0 0 0   0 0 0 0 0   0 0 0 0 0  0 0 0 0.1 0" type="matrix" in="shadowBlurOuter1"></feColorMatrix>
        </filter>
        <path d="M5.41877098,4.99841017 C5.41877098,4.99841017 -2.2174865,8.78698789 1.14202306,16.1997799 L1.14202306,16.1997799 C1.14202306,16.1997799 1.57057364,18.9552158 4.48401693,18.5501773 L4.48401693,18.5501773 C4.48401693,18.5501773 8.32053715,17.205332 7.09619034,12.7774979 L7.09619034,12.7774979 C7.09619034,12.7774979 6.99518318,10.6748196 8.72223033,8.88208389 L8.72223033,8.88208389 C8.72223033,8.88208389 12.1307838,6.72246545 9.32710553,0.250654274 L9.32710553,0.250654274 C9.32710553,0.250654274 8.97387243,3.51502996 5.41877098,4.99841017" id="path-8"></path>
        <linearGradient x1="45.3159297%" y1="6.56094588%" x2="56.0270048%" y2="96.3584447%" id="linearGradient-10">
            <stop stop-color="#FFE659" offset="0%"></stop>
            <stop stop-color="#FF8A00" offset="100%"></stop>
        </linearGradient>
        <path d="M1.66807765,2.51593494 C1.66807765,2.51593494 0.169318348,4.37676409 0.586191797,6.43130733 L0.586191797,6.43130733 C0.586191797,6.43130733 2.39089184,9.82071664 6.74587651,7.15215849 L6.74587651,7.15215849 C6.74587651,7.15215849 8.70413078,6.40547878 10.9327106,7.50260487 L10.9327106,7.50260487 C10.9327106,7.50260487 14.0294847,10.0942644 19.2841921,5.41342791 L19.2841921,5.41342791 C19.2841921,5.41342791 16.0875785,6.08438303 13.5863378,3.14345114 L13.5863378,3.14345114 C13.5863378,3.14345114 10.7540505,0.223651706 7.03546927,0.223064694 L7.03546927,0.223064694 C5.36622391,0.223064694 3.51890235,0.81125107 1.66807765,2.51593494" id="path-11"></path>
        <linearGradient x1="84.8546349%" y1="41.5757201%" x2="8.14785346%" y2="60.718079%" id="linearGradient-13">
            <stop stop-color="#FFE659" offset="0%"></stop>
            <stop stop-color="#FF8A00" offset="100%"></stop>
        </linearGradient>
        <path d="M0.454240257,0.974440504 C0.454240257,0.974440504 -1.06845716,4.24762138 2.01255291,7.01421059 L2.01255291,7.01421059 C2.01255291,7.01421059 3.32331047,8.65549713 2.97533207,11.1262321 L2.97533207,11.1262321 C2.97533207,11.1262321 1.47949204,14.8883943 7.53174719,18.4662346 L7.53174719,18.4662346 C7.53174719,18.4662346 5.90862648,15.6174636 7.9170924,12.3161062 L7.9170924,12.3161062 C7.9170924,12.3161062 11.8803094,4.7383637 4.82907605,0.726721291 L4.82907605,0.726721291 C4.82907605,0.726721291 3.65027003,0.215433533 2.43234564,0.215433533 L2.43234564,0.215433533 C1.70719603,0.215433533 0.968033864,0.39682035 0.454240257,0.974440504" id="path-14"></path>
        <linearGradient x1="68.1101135%" y1="76.7980316%" x2="34.3105844%" y2="14.9027066%" id="linearGradient-16">
            <stop stop-color="#FFE659" offset="0%"></stop>
            <stop stop-color="#FF8A00" offset="100%"></stop>
        </linearGradient>
        <path d="M14.0002919,0.433802128 C12.7496716,0.437911214 9.3516275,0.716155069 9.18289301,3.6024948 L9.18289301,3.6024948 C9.18289301,3.6024948 8.03561524,5.36294485 5.59042476,5.7932249 L5.59042476,5.7932249 C5.59042476,5.7932249 1.56998978,5.52554727 0.0548824989,12.4188333 L0.0548824989,12.4188333 C0.0548824989,12.4188333 2.2495986,9.98625413 5.99211794,10.8879051 L5.99211794,10.8879051 C5.99211794,10.8879051 14.3850533,12.3348905 16.0011677,4.35269659 L16.0011677,4.35269659 C16.0011677,4.35269659 16.4775945,0.999095023 14.4574515,0.446129387 L14.4574515,0.446129387 C14.4574515,0.446129387 14.3097358,0.434976153 14.0639323,0.433802128 L14.0639323,0.433802128 L14.0002919,0.433802128 Z" id="path-17"></path>
        <linearGradient x1="32.314474%" y1="88.7898383%" x2="74.4529302%" y2="16.7071885%" id="linearGradient-19">
            <stop stop-color="#FFE659" offset="0%"></stop>
            <stop stop-color="#FF8A00" offset="100%"></stop>
        </linearGradient>
        <path d="M0.347394541,0.547095512 C0.347394541,0.547095512 3.3268136,1.89311483 3.63100277,5.750373 L3.63100277,5.750373 C3.63100277,5.750373 4.85593344,14.2233093 12.9061451,13.3016999 L12.9061451,13.3016999 C12.9061451,13.3016999 16.0916655,12.5814357 16.2995183,10.5157393 L16.2995183,10.5157393 C16.2995183,10.5157393 15.6181579,6.96783661 11.5083929,6.55047083 L11.5083929,6.55047083 C11.5083929,6.55047083 9.48766603,5.9975052 8.32579186,3.7926868 L8.32579186,3.7926868 C8.32579186,3.7926868 7.48737411,0.467848844 1.90979419,0.467848844 L1.90979419,0.467848844 C1.4251934,0.467261832 0.906145088,0.492503363 0.347394541,0.547095512" id="path-20"></path>
        <linearGradient x1="-3.55405022%" y1="46.3293426%" x2="101.647843%" y2="54.9722472%" id="linearGradient-22">
            <stop stop-color="#FFE659" offset="0%"></stop>
            <stop stop-color="#FF8A00" offset="100%"></stop>
        </linearGradient>
    </defs>
    <g id="remote-registration-email" stroke="none" stroke-width="1" fill="none" fill-rule="evenodd">
        <g id="vectorisé" transform="translate(102.000000, 74.000000)">
            <g id="Rectangle-6">
                <use fill="black" fill-opacity="1" filter="url(#filter-2)" xlink:href="#path-1"></use>
                <use fill="#FFFFFF" fill-rule="evenodd" xlink:href="#path-1"></use>
            </g>
            <mask id="mask-4" fill="white">
                <use xlink:href="#path-3"></use>
            </mask>
            <g id="Mask">
                <use fill="black" fill-opacity="1" filter="url(#filter-5)" xlink:href="#path-3"></use>
                <use fill="#FFFFFF" fill-rule="evenodd" xlink:href="#path-3"></use>
            </g>
            <g id="Rectangle-2-Copy">
                <use fill="black" fill-opacity="1" filter="url(#filter-7)" xlink:href="#path-6"></use>
                <use fill="#FFFFFF" fill-rule="evenodd" xlink:href="#path-6"></use>
            </g>
            <g id="Group-27" transform="translate(144.000000, 25.000000)">
                <g id="Group-14" transform="translate(18.278354, 8.958219)">
                    <mask id="mask-9" fill="white">
                        <use xlink:href="#path-8"></use>
                    </mask>
                    <g id="Clip-13"></g>
                    <path d="M5.41877098,4.99841017 C5.41877098,4.99841017 -2.2174865,8.78698789 1.14202306,16.1997799 L1.14202306,16.1997799 C1.14202306,16.1997799 1.57057364,18.9552158 4.48401693,18.5501773 L4.48401693,18.5501773 C4.48401693,18.5501773 8.32053715,17.205332 7.09619034,12.7774979 L7.09619034,12.7774979 C7.09619034,12.7774979 6.99518318,10.6748196 8.72223033,8.88208389 L8.72223033,8.88208389 C8.72223033,8.88208389 12.1307838,6.72246545 9.32710553,0.250654274 L9.32710553,0.250654274 C9.32710553,0.250654274 8.97387243,3.51502996 5.41877098,4.99841017" id="Fill-12" fill="url(#linearGradient-10)" mask="url(#mask-9)"></path>
                </g>
                <g id="Group-17" transform="translate(5.433513, 20.698466)">
                    <mask id="mask-12" fill="white">
                        <use xlink:href="#path-11"></use>
                    </mask>
                    <g id="Clip-16"></g>
                    <path d="M1.66807765,2.51593494 C1.66807765,2.51593494 0.169318348,4.37676409 0.586191797,6.43130733 L0.586191797,6.43130733 C0.586191797,6.43130733 2.39089184,9.82071664 6.74587651,7.15215849 L6.74587651,7.15215849 C6.74587651,7.15215849 8.70413078,6.40547878 10.9327106,7.50260487 L10.9327106,7.50260487 C10.9327106,7.50260487 14.0294847,10.0942644 19.2841921,5.41342791 L19.2841921,5.41342791 C19.2841921,5.41342791 16.0875785,6.08438303 13.5863378,3.14345114 L13.5863378,3.14345114 C13.5863378,3.14345114 10.7540505,0.223651706 7.03546927,0.223064694 L7.03546927,0.223064694 C5.36622391,0.223064694 3.51890235,0.81125107 1.66807765,2.51593494" id="Fill-15" fill="url(#linearGradient-13)" mask="url(#mask-12)"></path>
                </g>
                <g id="Group-20" transform="translate(0.178806, 10.132244)">
                    <mask id="mask-15" fill="white">
                        <use xlink:href="#path-14"></use>
                    </mask>
                    <g id="Clip-19"></g>
                    <path d="M0.454240257,0.974440504 C0.454240257,0.974440504 -1.06845716,4.24762138 2.01255291,7.01421059 L2.01255291,7.01421059 C2.01255291,7.01421059 3.32331047,8.65549713 2.97533207,11.1262321 L2.97533207,11.1262321 C2.97533207,11.1262321 1.47949204,14.8883943 7.53174719,18.4662346 L7.53174719,18.4662346 C7.53174719,18.4662346 5.90862648,15.6174636 7.9170924,12.3161062 L7.9170924,12.3161062 C7.9170924,12.3161062 11.8803094,4.7383637 4.82907605,0.726721291 L4.82907605,0.726721291 C4.82907605,0.726721291 3.65027003,0.215433533 2.43234564,0.215433533 L2.43234564,0.215433533 C1.70719603,0.215433533 0.968033864,0.39682035 0.454240257,0.974440504" id="Fill-18" fill="url(#linearGradient-16)" mask="url(#mask-15)"></path>
                </g>
                <g id="Group-23" transform="translate(0.178806, 0.153034)">
                    <mask id="mask-18" fill="white">
                        <use xlink:href="#path-17"></use>
                    </mask>
                    <g id="Clip-22"></g>
                    <path d="M14.0002919,0.433802128 C12.7496716,0.437911214 9.3516275,0.716155069 9.18289301,3.6024948 L9.18289301,3.6024948 C9.18289301,3.6024948 8.03561524,5.36294485 5.59042476,5.7932249 L5.59042476,5.7932249 C5.59042476,5.7932249 1.56998978,5.52554727 0.0548824989,12.4188333 L0.0548824989,12.4188333 C0.0548824989,12.4188333 2.2495986,9.98625413 5.99211794,10.8879051 L5.99211794,10.8879051 C5.99211794,10.8879051 14.3850533,12.3348905 16.0011677,4.35269659 L16.0011677,4.35269659 C16.0011677,4.35269659 16.4775945,0.999095023 14.4574515,0.446129387 L14.4574515,0.446129387 C14.4574515,0.446129387 14.3097358,0.434976153 14.0639323,0.433802128 L14.0639323,0.433802128 L14.0002919,0.433802128 Z" id="Fill-21" fill="url(#linearGradient-19)" mask="url(#mask-18)"></path>
                </g>
                <g id="Group-26" transform="translate(11.855933, 0.153034)">
                    <mask id="mask-21" fill="white">
                        <use xlink:href="#path-20"></use>
                    </mask>
                    <g id="Clip-25"></g>
                    <path d="M0.347394541,0.547095512 C0.347394541,0.547095512 3.3268136,1.89311483 3.63100277,5.750373 L3.63100277,5.750373 C3.63100277,5.750373 4.85593344,14.2233093 12.9061451,13.3016999 L12.9061451,13.3016999 C12.9061451,13.3016999 16.0916655,12.5814357 16.2995183,10.5157393 L16.2995183,10.5157393 C16.2995183,10.5157393 15.6181579,6.96783661 11.5083929,6.55047083 L11.5083929,6.55047083 C11.5083929,6.55047083 9.48766603,5.9975052 8.32579186,3.7926868 L8.32579186,3.7926868 C8.32579186,3.7926868 7.48737411,0.467848844 1.90979419,0.467848844 L1.90979419,0.467848844 C1.4251934,0.467261832 0.906145088,0.492503363 0.347394541,0.547095512" id="Fill-24" fill="url(#linearGradient-22)" mask="url(#mask-21)"></path>
                </g>
            </g>
            <path d="M55.4,89 L53.204,89 L53.204,76.238 L55.4,76.238 L55.4,89 Z M60.35,89 L58.28,89 L58.28,80.234 L60.278,80.234 L60.278,81.35 C60.782,80.45 61.88,79.982 62.87,79.982 C64.022,79.982 65.03,80.504 65.498,81.53 C66.182,80.378 67.208,79.982 68.342,79.982 C69.926,79.982 71.438,80.99 71.438,83.312 L71.438,89 L69.422,89 L69.422,83.654 C69.422,82.628 68.9,81.854 67.73,81.854 C66.632,81.854 65.912,82.718 65.912,83.798 L65.912,89 L63.86,89 L63.86,83.654 C63.86,82.646 63.356,81.854 62.168,81.854 C61.052,81.854 60.35,82.682 60.35,83.798 L60.35,89 Z M76.064,92.42 L73.994,92.42 L73.994,80.234 L76.01,80.234 L76.01,81.422 C76.442,80.666 77.45,80.036 78.8,80.036 C81.392,80.036 82.85,82.016 82.85,84.608 C82.85,87.236 81.248,89.216 78.728,89.216 C77.468,89.216 76.514,88.676 76.064,88.01 L76.064,92.42 Z M80.762,84.608 C80.762,82.97 79.808,81.89 78.404,81.89 C77.036,81.89 76.046,82.97 76.046,84.608 C76.046,86.282 77.036,87.362 78.404,87.362 C79.79,87.362 80.762,86.282 80.762,84.608 Z M88.718,87.398 C90.014,87.398 91.166,86.444 91.166,84.608 C91.166,82.79 90.014,81.854 88.718,81.854 C87.44,81.854 86.27,82.79 86.27,84.608 C86.27,86.426 87.44,87.398 88.718,87.398 Z M88.718,79.964 C91.346,79.964 93.272,81.926 93.272,84.608 C93.272,87.308 91.346,89.27 88.718,89.27 C86.108,89.27 84.182,87.308 84.182,84.608 C84.182,81.926 86.108,79.964 88.718,79.964 Z M100.418,80.18 L100.418,82.304 C100.184,82.268 99.95,82.25 99.734,82.25 C98.114,82.25 97.376,83.186 97.376,84.824 L97.376,89 L95.288,89 L95.288,80.234 L97.322,80.234 L97.322,81.638 C97.736,80.684 98.708,80.126 99.86,80.126 C100.112,80.126 100.328,80.162 100.418,80.18 Z M104.774,77.552 L104.774,80.234 L106.592,80.234 L106.592,82.088 L104.774,82.088 L104.774,86.156 C104.774,86.93 105.116,87.254 105.89,87.254 C106.178,87.254 106.52,87.2 106.61,87.182 L106.61,88.91 C106.484,88.964 106.088,89.108 105.332,89.108 C103.712,89.108 102.704,88.136 102.704,86.498 L102.704,82.088 L101.084,82.088 L101.084,80.234 L101.534,80.234 C102.47,80.234 102.884,79.64 102.884,78.866 L102.884,77.552 L104.774,77.552 Z M108.158,86.624 C108.158,85.058 109.31,84.194 110.804,83.978 L113.054,83.636 C113.558,83.564 113.702,83.312 113.702,83.006 C113.702,82.268 113.198,81.674 112.046,81.674 C110.948,81.674 110.336,82.376 110.246,83.258 L108.338,82.826 C108.5,81.314 109.868,79.964 112.028,79.964 C114.728,79.964 115.754,81.494 115.754,83.24 L115.754,87.596 C115.754,88.388 115.844,88.91 115.862,89 L113.918,89 C113.9,88.946 113.828,88.586 113.828,87.884 C113.414,88.55 112.55,89.27 111.128,89.27 C109.292,89.27 108.158,88.01 108.158,86.624 Z M111.524,87.632 C112.694,87.632 113.702,87.074 113.702,85.364 L113.702,84.968 L111.416,85.31 C110.768,85.418 110.246,85.778 110.246,86.498 C110.246,87.092 110.696,87.632 111.524,87.632 Z M120.362,83.942 L120.362,89 L118.274,89 L118.274,80.234 L120.308,80.234 L120.308,81.404 C120.884,80.396 121.928,79.982 122.9,79.982 C125.042,79.982 126.068,81.53 126.068,83.456 L126.068,89 L123.98,89 L123.98,83.816 C123.98,82.736 123.494,81.872 122.18,81.872 C120.992,81.872 120.362,82.79 120.362,83.942 Z M131.252,77.552 L131.252,80.234 L133.07,80.234 L133.07,82.088 L131.252,82.088 L131.252,86.156 C131.252,86.93 131.594,87.254 132.368,87.254 C132.656,87.254 132.998,87.2 133.088,87.182 L133.088,88.91 C132.962,88.964 132.566,89.108 131.81,89.108 C130.19,89.108 129.182,88.136 129.182,86.498 L129.182,82.088 L127.562,82.088 L127.562,80.234 L128.012,80.234 C128.948,80.234 129.362,79.64 129.362,78.866 L129.362,77.552 L131.252,77.552 Z M135.104,87.668 C135.104,86.858 135.752,86.21 136.562,86.21 C137.354,86.21 138.02,86.858 138.02,87.668 C138.02,88.46 137.354,89.108 136.562,89.108 C135.752,89.108 135.104,88.46 135.104,87.668 Z M135.086,81.584 C135.086,80.774 135.734,80.126 136.544,80.126 C137.336,80.126 138.002,80.774 138.002,81.584 C138.002,82.376 137.336,83.024 136.544,83.024 C135.734,83.024 135.086,82.376 135.086,81.584 Z M147.146,92.42 L145.076,92.42 L145.076,80.234 L147.092,80.234 L147.092,81.422 C147.524,80.666 148.532,80.036 149.882,80.036 C152.474,80.036 153.932,82.016 153.932,84.608 C153.932,87.236 152.33,89.216 149.81,89.216 C148.55,89.216 147.596,88.676 147.146,88.01 L147.146,92.42 Z M151.844,84.608 C151.844,82.97 150.89,81.89 149.486,81.89 C148.118,81.89 147.128,82.97 147.128,84.608 C147.128,86.282 148.118,87.362 149.486,87.362 C150.872,87.362 151.844,86.282 151.844,84.608 Z M158.036,89 L155.948,89 L155.948,75.968 L158.036,75.968 L158.036,89 Z M162.194,83.654 L166.496,83.654 C166.46,82.628 165.776,81.71 164.336,81.71 C163.022,81.71 162.266,82.718 162.194,83.654 Z M166.73,85.94 L168.494,86.498 C168.026,88.028 166.64,89.27 164.534,89.27 C162.158,89.27 160.052,87.542 160.052,84.572 C160.052,81.8 162.104,79.964 164.318,79.964 C167.018,79.964 168.602,81.746 168.602,84.518 C168.602,84.86 168.566,85.148 168.548,85.184 L162.14,85.184 C162.194,86.516 163.238,87.47 164.534,87.47 C165.794,87.47 166.442,86.804 166.73,85.94 Z M170.06,86.624 C170.06,85.058 171.212,84.194 172.706,83.978 L174.956,83.636 C175.46,83.564 175.604,83.312 175.604,83.006 C175.604,82.268 175.1,81.674 173.948,81.674 C172.85,81.674 172.238,82.376 172.148,83.258 L170.24,82.826 C170.402,81.314 171.77,79.964 173.93,79.964 C176.63,79.964 177.656,81.494 177.656,83.24 L177.656,87.596 C177.656,88.388 177.746,88.91 177.764,89 L175.82,89 C175.802,88.946 175.73,88.586 175.73,87.884 C175.316,88.55 174.452,89.27 173.03,89.27 C171.194,89.27 170.06,88.01 170.06,86.624 Z M173.426,87.632 C174.596,87.632 175.604,87.074 175.604,85.364 L175.604,84.968 L173.318,85.31 C172.67,85.418 172.148,85.778 172.148,86.498 C172.148,87.092 172.598,87.632 173.426,87.632 Z M179.402,86.624 L181.22,86.12 C181.292,86.912 181.886,87.614 183.002,87.614 C183.866,87.614 184.316,87.146 184.316,86.606 C184.316,86.138 183.992,85.778 183.29,85.634 L181.994,85.346 C180.446,85.004 179.636,83.996 179.636,82.79 C179.636,81.26 181.04,79.964 182.858,79.964 C185.306,79.964 186.098,81.548 186.242,82.412 L184.478,82.916 C184.406,82.412 184.028,81.602 182.858,81.602 C182.12,81.602 181.598,82.07 181.598,82.61 C181.598,83.078 181.94,83.42 182.48,83.528 L183.812,83.798 C185.468,84.158 186.332,85.166 186.332,86.462 C186.332,87.794 185.252,89.27 183.02,89.27 C180.482,89.27 179.51,87.614 179.402,86.624 Z M189.86,83.654 L194.162,83.654 C194.126,82.628 193.442,81.71 192.002,81.71 C190.688,81.71 189.932,82.718 189.86,83.654 Z M194.396,85.94 L196.16,86.498 C195.692,88.028 194.306,89.27 192.2,89.27 C189.824,89.27 187.718,87.542 187.718,84.572 C187.718,81.8 189.77,79.964 191.984,79.964 C194.684,79.964 196.268,81.746 196.268,84.518 C196.268,84.86 196.232,85.148 196.214,85.184 L189.806,85.184 C189.86,86.516 190.904,87.47 192.2,87.47 C193.46,87.47 194.108,86.804 194.396,85.94 Z M206.546,81.89 C205.268,81.89 204.134,82.844 204.134,84.608 C204.134,86.372 205.268,87.362 206.582,87.362 C207.95,87.362 208.58,86.408 208.778,85.742 L210.614,86.408 C210.2,87.776 208.886,89.27 206.582,89.27 C204.008,89.27 202.046,87.272 202.046,84.608 C202.046,81.908 204.008,79.964 206.528,79.964 C208.886,79.964 210.182,81.44 210.542,82.844 L208.67,83.528 C208.472,82.754 207.878,81.89 206.546,81.89 Z M216.32,87.398 C217.616,87.398 218.768,86.444 218.768,84.608 C218.768,82.79 217.616,81.854 216.32,81.854 C215.042,81.854 213.872,82.79 213.872,84.608 C213.872,86.426 215.042,87.398 216.32,87.398 Z M216.32,79.964 C218.948,79.964 220.874,81.926 220.874,84.608 C220.874,87.308 218.948,89.27 216.32,89.27 C213.71,89.27 211.784,87.308 211.784,84.608 C211.784,81.926 213.71,79.964 216.32,79.964 Z M224.978,83.942 L224.978,89 L222.89,89 L222.89,80.234 L224.924,80.234 L224.924,81.404 C225.5,80.396 226.544,79.982 227.516,79.982 C229.658,79.982 230.684,81.53 230.684,83.456 L230.684,89 L228.596,89 L228.596,83.816 C228.596,82.736 228.11,81.872 226.796,81.872 C225.608,81.872 224.978,82.79 224.978,83.942 Z M235.868,77.552 L235.868,80.234 L237.686,80.234 L237.686,82.088 L235.868,82.088 L235.868,86.156 C235.868,86.93 236.21,87.254 236.984,87.254 C237.272,87.254 237.614,87.2 237.704,87.182 L237.704,88.91 C237.578,88.964 237.182,89.108 236.426,89.108 C234.806,89.108 233.798,88.136 233.798,86.498 L233.798,82.088 L232.178,82.088 L232.178,80.234 L232.628,80.234 C233.564,80.234 233.978,79.64 233.978,78.866 L233.978,77.552 L235.868,77.552 Z M239.252,86.624 C239.252,85.058 240.404,84.194 241.898,83.978 L244.148,83.636 C244.652,83.564 244.796,83.312 244.796,83.006 C244.796,82.268 244.292,81.674 243.14,81.674 C242.042,81.674 241.43,82.376 241.34,83.258 L239.432,82.826 C239.594,81.314 240.962,79.964 243.122,79.964 C245.822,79.964 246.848,81.494 246.848,83.24 L246.848,87.596 C246.848,88.388 246.938,88.91 246.956,89 L245.012,89 C244.994,88.946 244.922,88.586 244.922,87.884 C244.508,88.55 243.644,89.27 242.222,89.27 C240.386,89.27 239.252,88.01 239.252,86.624 Z M242.618,87.632 C243.788,87.632 244.796,87.074 244.796,85.364 L244.796,84.968 L242.51,85.31 C241.862,85.418 241.34,85.778 241.34,86.498 C241.34,87.092 241.79,87.632 242.618,87.632 Z M253.184,81.89 C251.906,81.89 250.772,82.844 250.772,84.608 C250.772,86.372 251.906,87.362 253.22,87.362 C254.588,87.362 255.218,86.408 255.416,85.742 L257.252,86.408 C256.838,87.776 255.524,89.27 253.22,89.27 C250.646,89.27 248.684,87.272 248.684,84.608 C248.684,81.908 250.646,79.964 253.166,79.964 C255.524,79.964 256.82,81.44 257.18,82.844 L255.308,83.528 C255.11,82.754 254.516,81.89 253.184,81.89 Z M261.752,77.552 L261.752,80.234 L263.57,80.234 L263.57,82.088 L261.752,82.088 L261.752,86.156 C261.752,86.93 262.094,87.254 262.868,87.254 C263.156,87.254 263.498,87.2 263.588,87.182 L263.588,88.91 C263.462,88.964 263.066,89.108 262.31,89.108 C260.69,89.108 259.682,88.136 259.682,86.498 L259.682,82.088 L258.062,82.088 L258.062,80.234 L258.512,80.234 C259.448,80.234 259.862,79.64 259.862,78.866 L259.862,77.552 L261.752,77.552 Z M65.489,115.546 L63.257,115.546 L65.363,110.956 L61.619,103.234 L63.977,103.234 L66.497,108.778 L68.855,103.234 L71.069,103.234 L65.489,115.546 Z M76.451,110.398 C77.747,110.398 78.899,109.444 78.899,107.608 C78.899,105.79 77.747,104.854 76.451,104.854 C75.173,104.854 74.003,105.79 74.003,107.608 C74.003,109.426 75.173,110.398 76.451,110.398 Z M76.451,102.964 C79.079,102.964 81.005,104.926 81.005,107.608 C81.005,110.308 79.079,112.27 76.451,112.27 C73.841,112.27 71.915,110.308 71.915,107.608 C71.915,104.926 73.841,102.964 76.451,102.964 Z M88.727,111.028 C88.295,111.82 87.269,112.252 86.243,112.252 C84.155,112.252 82.931,110.704 82.931,108.76 L82.931,103.234 L85.019,103.234 L85.019,108.382 C85.019,109.462 85.523,110.38 86.783,110.38 C87.989,110.38 88.619,109.57 88.619,108.418 L88.619,103.234 L90.707,103.234 L90.707,110.398 C90.707,111.118 90.761,111.676 90.797,112 L88.799,112 C88.763,111.802 88.727,111.388 88.727,111.028 Z M98.537,103.18 L98.537,105.304 C98.303,105.268 98.069,105.25 97.853,105.25 C96.233,105.25 95.495,106.186 95.495,107.824 L95.495,112 L93.407,112 L93.407,103.234 L95.441,103.234 L95.441,104.638 C95.855,103.684 96.827,103.126 97.979,103.126 C98.231,103.126 98.447,103.162 98.537,103.18 Z M112.631,103.234 L109.193,112 L107.105,112 L103.541,103.234 L105.845,103.234 L108.167,109.498 L110.435,103.234 L112.631,103.234 Z M116.231,112 L114.161,112 L114.161,103.234 L116.231,103.234 L116.231,112 Z M113.837,100.156 C113.837,99.4 114.449,98.788 115.187,98.788 C115.943,98.788 116.555,99.4 116.555,100.156 C116.555,100.912 115.943,101.506 115.187,101.506 C114.449,101.506 113.837,100.912 113.837,100.156 Z M118.157,109.624 L119.975,109.12 C120.047,109.912 120.641,110.614 121.757,110.614 C122.621,110.614 123.071,110.146 123.071,109.606 C123.071,109.138 122.747,108.778 122.045,108.634 L120.749,108.346 C119.201,108.004 118.391,106.996 118.391,105.79 C118.391,104.26 119.795,102.964 121.613,102.964 C124.061,102.964 124.853,104.548 124.997,105.412 L123.233,105.916 C123.161,105.412 122.783,104.602 121.613,104.602 C120.875,104.602 120.353,105.07 120.353,105.61 C120.353,106.078 120.695,106.42 121.235,106.528 L122.567,106.798 C124.223,107.158 125.087,108.166 125.087,109.462 C125.087,110.794 124.007,112.27 121.775,112.27 C119.237,112.27 118.265,110.614 118.157,109.624 Z M129.227,112 L127.157,112 L127.157,103.234 L129.227,103.234 L129.227,112 Z M126.833,100.156 C126.833,99.4 127.445,98.788 128.183,98.788 C128.939,98.788 129.551,99.4 129.551,100.156 C129.551,100.912 128.939,101.506 128.183,101.506 C127.445,101.506 126.833,100.912 126.833,100.156 Z M134.573,100.552 L134.573,103.234 L136.391,103.234 L136.391,105.088 L134.573,105.088 L134.573,109.156 C134.573,109.93 134.915,110.254 135.689,110.254 C135.977,110.254 136.319,110.2 136.409,110.182 L136.409,111.91 C136.283,111.964 135.887,112.108 135.131,112.108 C133.511,112.108 132.503,111.136 132.503,109.498 L132.503,105.088 L130.883,105.088 L130.883,103.234 L131.333,103.234 C132.269,103.234 132.683,102.64 132.683,101.866 L132.683,100.552 L134.573,100.552 Z M142.349,110.398 C143.645,110.398 144.797,109.444 144.797,107.608 C144.797,105.79 143.645,104.854 142.349,104.854 C141.071,104.854 139.901,105.79 139.901,107.608 C139.901,109.426 141.071,110.398 142.349,110.398 Z M142.349,102.964 C144.977,102.964 146.903,104.926 146.903,107.608 C146.903,110.308 144.977,112.27 142.349,112.27 C139.739,112.27 137.813,110.308 137.813,107.608 C137.813,104.926 139.739,102.964 142.349,102.964 Z M154.049,103.18 L154.049,105.304 C153.815,105.268 153.581,105.25 153.365,105.25 C151.745,105.25 151.007,106.186 151.007,107.824 L151.007,112 L148.919,112 L148.919,103.234 L150.953,103.234 L150.953,104.638 C151.367,103.684 152.339,103.126 153.491,103.126 C153.743,103.126 153.959,103.162 154.049,103.18 Z M169.133,112 L167.927,108.796 L162.527,108.796 L161.339,112 L159.053,112 L164.021,99.238 L166.523,99.238 L171.491,112 L169.133,112 Z M165.227,101.578 L163.283,106.798 L167.171,106.798 L165.227,101.578 Z M175.109,106.942 L175.109,112 L173.021,112 L173.021,103.234 L175.055,103.234 L175.055,104.404 C175.631,103.396 176.675,102.982 177.647,102.982 C179.789,102.982 180.815,104.53 180.815,106.456 L180.815,112 L178.727,112 L178.727,106.816 C178.727,105.736 178.241,104.872 176.927,104.872 C175.739,104.872 175.109,105.79 175.109,106.942 Z M185.441,106.942 L185.441,112 L183.353,112 L183.353,103.234 L185.387,103.234 L185.387,104.404 C185.963,103.396 187.007,102.982 187.979,102.982 C190.121,102.982 191.147,104.53 191.147,106.456 L191.147,112 L189.059,112 L189.059,106.816 C189.059,105.736 188.573,104.872 187.259,104.872 C186.071,104.872 185.441,105.79 185.441,106.942 Z M193.145,109.624 C193.145,108.058 194.297,107.194 195.791,106.978 L198.041,106.636 C198.545,106.564 198.689,106.312 198.689,106.006 C198.689,105.268 198.185,104.674 197.033,104.674 C195.935,104.674 195.323,105.376 195.233,106.258 L193.325,105.826 C193.487,104.314 194.855,102.964 197.015,102.964 C199.715,102.964 200.741,104.494 200.741,106.24 L200.741,110.596 C200.741,111.388 200.831,111.91 200.849,112 L198.905,112 C198.887,111.946 198.815,111.586 198.815,110.884 C198.401,111.55 197.537,112.27 196.115,112.27 C194.279,112.27 193.145,111.01 193.145,109.624 Z M196.511,110.632 C197.681,110.632 198.689,110.074 198.689,108.364 L198.689,107.968 L196.403,108.31 C195.755,108.418 195.233,108.778 195.233,109.498 C195.233,110.092 195.683,110.632 196.511,110.632 Z M221.945,112 L219.803,112 L219.803,102.604 L215.825,112 L213.953,112 L210.011,102.64 L210.011,112 L207.905,112 L207.905,99.238 L210.785,99.238 L214.925,108.976 L219.011,99.238 L221.945,99.238 L221.945,112 Z M226.895,112 L224.825,112 L224.825,103.234 L226.895,103.234 L226.895,112 Z M224.501,100.156 C224.501,99.4 225.113,98.788 225.851,98.788 C226.607,98.788 227.219,99.4 227.219,100.156 C227.219,100.912 226.607,101.506 225.851,101.506 C225.113,101.506 224.501,100.912 224.501,100.156 Z M231.683,112 L229.595,112 L229.595,98.968 L231.683,98.968 L231.683,112 Z M236.471,112 L234.383,112 L234.383,98.968 L236.471,98.968 L236.471,112 Z M240.629,106.654 L244.931,106.654 C244.895,105.628 244.211,104.71 242.771,104.71 C241.457,104.71 240.701,105.718 240.629,106.654 Z M245.165,108.94 L246.929,109.498 C246.461,111.028 245.075,112.27 242.969,112.27 C240.593,112.27 238.487,110.542 238.487,107.572 C238.487,104.8 240.539,102.964 242.753,102.964 C245.453,102.964 247.037,104.746 247.037,107.518 C247.037,107.86 247.001,108.148 246.983,108.184 L240.575,108.184 C240.629,109.516 241.673,110.47 242.969,110.47 C244.229,110.47 244.877,109.804 245.165,108.94 Z M254.165,103.18 L254.165,105.304 C253.931,105.268 253.697,105.25 253.481,105.25 C251.861,105.25 251.123,106.186 251.123,107.824 L251.123,112 L249.035,112 L249.035,103.234 L251.069,103.234 L251.069,104.638 C251.483,103.684 252.455,103.126 253.607,103.126 C253.859,103.126 254.075,103.162 254.165,103.18 Z" id="Important:pleasecontactyourvisitorAnnaMiller" fill="#0A0A47" fill-rule="nonzero"></path>
            <path d="M53.401,138.667 L50.651,134.201 L51.949,134.201 L53.973,137.677 L55.997,134.201 L57.229,134.201 L54.479,138.667 L54.479,142 L53.401,142 L53.401,138.667 Z M60.485,141.241 C61.365,141.241 62.135,140.581 62.135,139.349 C62.135,138.128 61.365,137.468 60.485,137.468 C59.605,137.468 58.835,138.128 58.835,139.349 C58.835,140.581 59.605,141.241 60.485,141.241 Z M60.485,136.544 C62.069,136.544 63.191,137.743 63.191,139.349 C63.191,140.966 62.069,142.165 60.485,142.165 C58.901,142.165 57.779,140.966 57.779,139.349 C57.779,137.743 58.901,136.544 60.485,136.544 Z M67.998,141.362 C67.712,141.912 67.052,142.165 66.436,142.165 C65.204,142.165 64.456,141.241 64.456,140.042 L64.456,136.709 L65.49,136.709 L65.49,139.888 C65.49,140.614 65.82,141.252 66.689,141.252 C67.525,141.252 67.943,140.702 67.943,139.899 L67.943,136.709 L68.977,136.709 L68.977,141.021 C68.977,141.439 69.01,141.813 69.032,142 L68.042,142 C68.02,141.879 67.998,141.582 67.998,141.362 Z M73.674,136.654 L73.674,137.754 C73.52,137.732 73.366,137.721 73.223,137.721 C72.354,137.721 71.771,138.183 71.771,139.349 L71.771,142 L70.737,142 L70.737,136.709 L71.749,136.709 L71.749,137.633 C72.134,136.819 72.794,136.621 73.333,136.621 C73.476,136.621 73.619,136.643 73.674,136.654 Z M82.056,136.709 L79.944,142 L78.899,142 L76.754,136.709 L77.92,136.709 L79.427,140.79 L80.945,136.709 L82.056,136.709 Z M84.069,142 L83.046,142 L83.046,136.709 L84.069,136.709 L84.069,142 Z M82.815,134.707 C82.815,134.289 83.145,133.959 83.552,133.959 C83.97,133.959 84.3,134.289 84.3,134.707 C84.3,135.114 83.97,135.444 83.552,135.444 C83.145,135.444 82.815,135.114 82.815,134.707 Z M85.334,140.625 L86.269,140.295 C86.335,140.845 86.753,141.285 87.501,141.285 C88.084,141.285 88.403,140.955 88.403,140.581 C88.403,140.251 88.161,139.998 87.721,139.899 L86.819,139.701 C85.994,139.525 85.499,138.964 85.499,138.216 C85.499,137.314 86.346,136.544 87.38,136.544 C88.832,136.544 89.283,137.49 89.393,137.963 L88.48,138.304 C88.436,138.029 88.216,137.424 87.38,137.424 C86.852,137.424 86.5,137.765 86.5,138.128 C86.5,138.447 86.698,138.678 87.105,138.766 L87.963,138.953 C88.92,139.162 89.426,139.745 89.426,140.526 C89.426,141.274 88.799,142.165 87.49,142.165 C86.038,142.165 85.422,141.23 85.334,140.625 Z M91.824,142 L90.801,142 L90.801,136.709 L91.824,136.709 L91.824,142 Z M90.57,134.707 C90.57,134.289 90.9,133.959 91.307,133.959 C91.725,133.959 92.055,134.289 92.055,134.707 C92.055,135.114 91.725,135.444 91.307,135.444 C90.9,135.444 90.57,135.114 90.57,134.707 Z M94.97,135.037 L94.97,136.709 L96.114,136.709 L96.114,137.644 L94.97,137.644 L94.97,140.394 C94.97,140.878 95.168,141.12 95.707,141.12 C95.839,141.12 96.026,141.098 96.114,141.076 L96.114,141.956 C96.026,141.989 95.762,142.055 95.41,142.055 C94.508,142.055 93.936,141.505 93.936,140.548 L93.936,137.644 L92.924,137.644 L92.924,136.709 L93.21,136.709 C93.782,136.709 94.024,136.357 94.024,135.895 L94.024,135.037 L94.97,135.037 Z M99.755,141.241 C100.635,141.241 101.405,140.581 101.405,139.349 C101.405,138.128 100.635,137.468 99.755,137.468 C98.875,137.468 98.105,138.128 98.105,139.349 C98.105,140.581 98.875,141.241 99.755,141.241 Z M99.755,136.544 C101.339,136.544 102.461,137.743 102.461,139.349 C102.461,140.966 101.339,142.165 99.755,142.165 C98.171,142.165 97.049,140.966 97.049,139.349 C97.049,137.743 98.171,136.544 99.755,136.544 Z M106.718,136.654 L106.718,137.754 C106.564,137.732 106.41,137.721 106.267,137.721 C105.398,137.721 104.815,138.183 104.815,139.349 L104.815,142 L103.781,142 L103.781,136.709 L104.793,136.709 L104.793,137.633 C105.178,136.819 105.838,136.621 106.377,136.621 C106.52,136.621 106.663,136.643 106.718,136.654 Z M107.378,135.411 C107.378,135.015 107.653,134.74 108.049,134.74 C108.434,134.74 108.709,135.015 108.709,135.411 C108.709,135.477 108.698,135.554 108.687,135.609 L108.225,137.677 L107.851,137.677 L107.4,135.62 C107.389,135.565 107.378,135.466 107.378,135.411 Z M109.534,140.625 L110.469,140.295 C110.535,140.845 110.953,141.285 111.701,141.285 C112.284,141.285 112.603,140.955 112.603,140.581 C112.603,140.251 112.361,139.998 111.921,139.899 L111.019,139.701 C110.194,139.525 109.699,138.964 109.699,138.216 C109.699,137.314 110.546,136.544 111.58,136.544 C113.032,136.544 113.483,137.49 113.593,137.963 L112.68,138.304 C112.636,138.029 112.416,137.424 111.58,137.424 C111.052,137.424 110.7,137.765 110.7,138.128 C110.7,138.447 110.898,138.678 111.305,138.766 L112.163,138.953 C113.12,139.162 113.626,139.745 113.626,140.526 C113.626,141.274 112.999,142.165 111.69,142.165 C110.238,142.165 109.622,141.23 109.534,140.625 Z M117.421,140.581 C117.421,139.635 118.114,139.107 119.027,138.975 L120.457,138.766 C120.776,138.722 120.864,138.557 120.864,138.37 C120.864,137.853 120.523,137.424 119.72,137.424 C118.994,137.424 118.587,137.875 118.521,138.491 L117.531,138.26 C117.641,137.248 118.554,136.544 119.698,136.544 C121.282,136.544 121.898,137.446 121.898,138.48 L121.898,141.131 C121.898,141.593 121.942,141.868 121.964,142 L120.952,142 C120.93,141.868 120.897,141.67 120.897,141.285 C120.666,141.659 120.138,142.165 119.192,142.165 C118.114,142.165 117.421,141.417 117.421,140.581 Z M119.335,141.296 C120.182,141.296 120.864,140.889 120.864,139.734 L120.864,139.492 L119.247,139.734 C118.807,139.8 118.477,140.053 118.477,140.526 C118.477,140.922 118.807,141.296 119.335,141.296 Z M124.538,138.942 L124.538,142 L123.504,142 L123.504,136.709 L124.516,136.709 L124.516,137.468 C124.901,136.808 125.528,136.555 126.144,136.555 C127.409,136.555 128.036,137.468 128.036,138.645 L128.036,142 L127.002,142 L127.002,138.821 C127.002,138.084 126.694,137.49 125.77,137.49 C124.956,137.49 124.538,138.139 124.538,138.942 Z M129.191,140.625 L130.126,140.295 C130.192,140.845 130.61,141.285 131.358,141.285 C131.941,141.285 132.26,140.955 132.26,140.581 C132.26,140.251 132.018,139.998 131.578,139.899 L130.676,139.701 C129.851,139.525 129.356,138.964 129.356,138.216 C129.356,137.314 130.203,136.544 131.237,136.544 C132.689,136.544 133.14,137.49 133.25,137.963 L132.337,138.304 C132.293,138.029 132.073,137.424 131.237,137.424 C130.709,137.424 130.357,137.765 130.357,138.128 C130.357,138.447 130.555,138.678 130.962,138.766 L131.82,138.953 C132.777,139.162 133.283,139.745 133.283,140.526 C133.283,141.274 132.656,142.165 131.347,142.165 C129.895,142.165 129.279,141.23 129.191,140.625 Z M137.639,136.709 L138.706,136.709 L140.081,140.691 L141.247,136.709 L142.336,136.709 L140.62,142 L139.553,142 L138.145,137.974 L136.77,142 L135.681,142 L133.943,136.709 L135.076,136.709 L136.264,140.691 L137.639,136.709 Z M144.052,138.81 L146.945,138.81 C146.923,138.051 146.428,137.457 145.493,137.457 C144.624,137.457 144.096,138.128 144.052,138.81 Z M147.099,140.185 L147.99,140.493 C147.693,141.428 146.846,142.165 145.614,142.165 C144.195,142.165 142.952,141.131 142.952,139.338 C142.952,137.677 144.151,136.544 145.482,136.544 C147.11,136.544 148.023,137.666 148.023,139.316 C148.023,139.448 148.012,139.58 148.001,139.646 L144.019,139.646 C144.041,140.592 144.723,141.252 145.614,141.252 C146.472,141.252 146.901,140.779 147.099,140.185 Z M152.28,136.654 L152.28,137.754 C152.126,137.732 151.972,137.721 151.829,137.721 C150.96,137.721 150.377,138.183 150.377,139.349 L150.377,142 L149.343,142 L149.343,136.709 L150.355,136.709 L150.355,137.633 C150.74,136.819 151.4,136.621 151.939,136.621 C152.082,136.621 152.225,136.643 152.28,136.654 Z M155.8,140.581 C155.8,139.635 156.493,139.107 157.406,138.975 L158.836,138.766 C159.155,138.722 159.243,138.557 159.243,138.37 C159.243,137.853 158.902,137.424 158.099,137.424 C157.373,137.424 156.966,137.875 156.9,138.491 L155.91,138.26 C156.02,137.248 156.933,136.544 158.077,136.544 C159.661,136.544 160.277,137.446 160.277,138.48 L160.277,141.131 C160.277,141.593 160.321,141.868 160.343,142 L159.331,142 C159.309,141.868 159.276,141.67 159.276,141.285 C159.045,141.659 158.517,142.165 157.571,142.165 C156.493,142.165 155.8,141.417 155.8,140.581 Z M157.714,141.296 C158.561,141.296 159.243,140.889 159.243,139.734 L159.243,139.492 L157.626,139.734 C157.186,139.8 156.856,140.053 156.856,140.526 C156.856,140.922 157.186,141.296 157.714,141.296 Z M164.82,136.654 L164.82,137.754 C164.666,137.732 164.512,137.721 164.369,137.721 C163.5,137.721 162.917,138.183 162.917,139.349 L162.917,142 L161.883,142 L161.883,136.709 L162.895,136.709 L162.895,137.633 C163.28,136.819 163.94,136.621 164.479,136.621 C164.622,136.621 164.765,136.643 164.82,136.654 Z M166.591,138.81 L169.484,138.81 C169.462,138.051 168.967,137.457 168.032,137.457 C167.163,137.457 166.635,138.128 166.591,138.81 Z M169.638,140.185 L170.529,140.493 C170.232,141.428 169.385,142.165 168.153,142.165 C166.734,142.165 165.491,141.131 165.491,139.338 C165.491,137.677 166.69,136.544 168.021,136.544 C169.649,136.544 170.562,137.666 170.562,139.316 C170.562,139.448 170.551,139.58 170.54,139.646 L166.558,139.646 C166.58,140.592 167.262,141.252 168.153,141.252 C169.011,141.252 169.44,140.779 169.638,140.185 Z M175.666,138.942 L175.666,142 L174.632,142 L174.632,136.709 L175.644,136.709 L175.644,137.468 C176.029,136.808 176.656,136.555 177.272,136.555 C178.537,136.555 179.164,137.468 179.164,138.645 L179.164,142 L178.13,142 L178.13,138.821 C178.13,138.084 177.822,137.49 176.898,137.49 C176.084,137.49 175.666,138.139 175.666,138.942 Z M183.08,141.241 C183.96,141.241 184.73,140.581 184.73,139.349 C184.73,138.128 183.96,137.468 183.08,137.468 C182.2,137.468 181.43,138.128 181.43,139.349 C181.43,140.581 182.2,141.241 183.08,141.241 Z M183.08,136.544 C184.664,136.544 185.786,137.743 185.786,139.349 C185.786,140.966 184.664,142.165 183.08,142.165 C181.496,142.165 180.374,140.966 180.374,139.349 C180.374,137.743 181.496,136.544 183.08,136.544 Z M188.492,135.037 L188.492,136.709 L189.636,136.709 L189.636,137.644 L188.492,137.644 L188.492,140.394 C188.492,140.878 188.69,141.12 189.229,141.12 C189.361,141.12 189.548,141.098 189.636,141.076 L189.636,141.956 C189.548,141.989 189.284,142.055 188.932,142.055 C188.03,142.055 187.458,141.505 187.458,140.548 L187.458,137.644 L186.446,137.644 L186.446,136.709 L186.732,136.709 C187.304,136.709 187.546,136.357 187.546,135.895 L187.546,135.037 L188.492,135.037 Z M194.784,142 L193.761,142 L193.761,136.709 L194.784,136.709 L194.784,142 Z M193.53,134.707 C193.53,134.289 193.86,133.959 194.267,133.959 C194.685,133.959 195.015,134.289 195.015,134.707 C195.015,135.114 194.685,135.444 194.267,135.444 C193.86,135.444 193.53,135.114 193.53,134.707 Z M197.578,138.942 L197.578,142 L196.544,142 L196.544,136.709 L197.556,136.709 L197.556,137.468 C197.941,136.808 198.568,136.555 199.184,136.555 C200.449,136.555 201.076,137.468 201.076,138.645 L201.076,142 L200.042,142 L200.042,138.821 C200.042,138.084 199.734,137.49 198.81,137.49 C197.996,137.49 197.578,138.139 197.578,138.942 Z M206.51,142 L205.476,142 L205.476,134.036 L206.51,134.036 L206.51,142 Z M209.293,142 L208.27,142 L208.27,136.709 L209.293,136.709 L209.293,142 Z M208.039,134.707 C208.039,134.289 208.369,133.959 208.776,133.959 C209.194,133.959 209.524,134.289 209.524,134.707 C209.524,135.114 209.194,135.444 208.776,135.444 C208.369,135.444 208.039,135.114 208.039,134.707 Z M212.087,138.942 L212.087,142 L211.053,142 L211.053,136.709 L212.065,136.709 L212.065,137.468 C212.45,136.808 213.077,136.555 213.693,136.555 C214.958,136.555 215.585,137.468 215.585,138.645 L215.585,142 L214.551,142 L214.551,138.821 C214.551,138.084 214.243,137.49 213.319,137.49 C212.505,137.49 212.087,138.139 212.087,138.942 Z M217.906,138.81 L220.799,138.81 C220.777,138.051 220.282,137.457 219.347,137.457 C218.478,137.457 217.95,138.128 217.906,138.81 Z M220.953,140.185 L221.844,140.493 C221.547,141.428 220.7,142.165 219.468,142.165 C218.049,142.165 216.806,141.131 216.806,139.338 C216.806,137.677 218.005,136.544 219.336,136.544 C220.964,136.544 221.877,137.666 221.877,139.316 C221.877,139.448 221.866,139.58 221.855,139.646 L217.873,139.646 C217.895,140.592 218.577,141.252 219.468,141.252 C220.326,141.252 220.755,140.779 220.953,140.185 Z M228.928,136.709 L229.995,136.709 L231.37,140.691 L232.536,136.709 L233.625,136.709 L231.909,142 L230.842,142 L229.434,137.974 L228.059,142 L226.97,142 L225.232,136.709 L226.365,136.709 L227.553,140.691 L228.928,136.709 Z M235.693,142 L234.67,142 L234.67,136.709 L235.693,136.709 L235.693,142 Z M234.439,134.707 C234.439,134.289 234.769,133.959 235.176,133.959 C235.594,133.959 235.924,134.289 235.924,134.707 C235.924,135.114 235.594,135.444 235.176,135.444 C234.769,135.444 234.439,135.114 234.439,134.707 Z M238.839,135.037 L238.839,136.709 L239.983,136.709 L239.983,137.644 L238.839,137.644 L238.839,140.394 C238.839,140.878 239.037,141.12 239.576,141.12 C239.708,141.12 239.895,141.098 239.983,141.076 L239.983,141.956 C239.895,141.989 239.631,142.055 239.279,142.055 C238.377,142.055 237.805,141.505 237.805,140.548 L237.805,137.644 L236.793,137.644 L236.793,136.709 L237.079,136.709 C237.651,136.709 237.893,136.357 237.893,135.895 L237.893,135.037 L238.839,135.037 Z M242.392,138.887 L242.392,142 L241.358,142 L241.358,134.036 L242.392,134.036 L242.392,137.325 C242.777,136.764 243.393,136.555 243.998,136.555 C245.263,136.555 245.89,137.468 245.89,138.645 L245.89,142 L244.856,142 L244.856,138.821 C244.856,138.084 244.548,137.49 243.624,137.49 C242.832,137.49 242.414,138.106 242.392,138.887 Z M251.676,135.037 L251.676,136.709 L252.82,136.709 L252.82,137.644 L251.676,137.644 L251.676,140.394 C251.676,140.878 251.874,141.12 252.413,141.12 C252.545,141.12 252.732,141.098 252.82,141.076 L252.82,141.956 C252.732,141.989 252.468,142.055 252.116,142.055 C251.214,142.055 250.642,141.505 250.642,140.548 L250.642,137.644 L249.63,137.644 L249.63,136.709 L249.916,136.709 C250.488,136.709 250.73,136.357 250.73,135.895 L250.73,135.037 L251.676,135.037 Z M255.229,138.887 L255.229,142 L254.195,142 L254.195,134.036 L255.229,134.036 L255.229,137.325 C255.614,136.764 256.23,136.555 256.835,136.555 C258.1,136.555 258.727,137.468 258.727,138.645 L258.727,142 L257.693,142 L257.693,138.821 C257.693,138.084 257.385,137.49 256.461,137.49 C255.669,137.49 255.251,138.106 255.229,138.887 Z M261.048,138.81 L263.941,138.81 C263.919,138.051 263.424,137.457 262.489,137.457 C261.62,137.457 261.092,138.128 261.048,138.81 Z M264.095,140.185 L264.986,140.493 C264.689,141.428 263.842,142.165 262.61,142.165 C261.191,142.165 259.948,141.131 259.948,139.338 C259.948,137.677 261.147,136.544 262.478,136.544 C264.106,136.544 265.019,137.666 265.019,139.316 C265.019,139.448 265.008,139.58 264.997,139.646 L261.015,139.646 C261.037,140.592 261.719,141.252 262.61,141.252 C263.468,141.252 263.897,140.779 264.095,140.185 Z M56.4205,150.709 L54.3085,156 L53.2635,156 L51.1185,150.709 L52.2845,150.709 L53.7915,154.79 L55.3095,150.709 L56.4205,150.709 Z M58.4335,156 L57.4105,156 L57.4105,150.709 L58.4335,150.709 L58.4335,156 Z M57.1795,148.707 C57.1795,148.289 57.5095,147.959 57.9165,147.959 C58.3345,147.959 58.6645,148.289 58.6645,148.707 C58.6645,149.114 58.3345,149.444 57.9165,149.444 C57.5095,149.444 57.1795,149.114 57.1795,148.707 Z M59.6985,154.625 L60.6335,154.295 C60.6995,154.845 61.1175,155.285 61.8655,155.285 C62.4485,155.285 62.7675,154.955 62.7675,154.581 C62.7675,154.251 62.5255,153.998 62.0855,153.899 L61.1835,153.701 C60.3585,153.525 59.8635,152.964 59.8635,152.216 C59.8635,151.314 60.7105,150.544 61.7445,150.544 C63.1965,150.544 63.6475,151.49 63.7575,151.963 L62.8445,152.304 C62.8005,152.029 62.5805,151.424 61.7445,151.424 C61.2165,151.424 60.8645,151.765 60.8645,152.128 C60.8645,152.447 61.0625,152.678 61.4695,152.766 L62.3275,152.953 C63.2845,153.162 63.7905,153.745 63.7905,154.526 C63.7905,155.274 63.1635,156.165 61.8545,156.165 C60.4025,156.165 59.7865,155.23 59.6985,154.625 Z M66.1885,156 L65.1655,156 L65.1655,150.709 L66.1885,150.709 L66.1885,156 Z M64.9345,148.707 C64.9345,148.289 65.2645,147.959 65.6715,147.959 C66.0895,147.959 66.4195,148.289 66.4195,148.707 C66.4195,149.114 66.0895,149.444 65.6715,149.444 C65.2645,149.444 64.9345,149.114 64.9345,148.707 Z M69.3345,149.037 L69.3345,150.709 L70.4785,150.709 L70.4785,151.644 L69.3345,151.644 L69.3345,154.394 C69.3345,154.878 69.5325,155.12 70.0715,155.12 C70.2035,155.12 70.3905,155.098 70.4785,155.076 L70.4785,155.956 C70.3905,155.989 70.1265,156.055 69.7745,156.055 C68.8725,156.055 68.3005,155.505 68.3005,154.548 L68.3005,151.644 L67.2885,151.644 L67.2885,150.709 L67.5745,150.709 C68.1465,150.709 68.3885,150.357 68.3885,149.895 L68.3885,149.037 L69.3345,149.037 Z M71.5235,154.581 C71.5235,153.635 72.2165,153.107 73.1295,152.975 L74.5595,152.766 C74.8785,152.722 74.9665,152.557 74.9665,152.37 C74.9665,151.853 74.6255,151.424 73.8225,151.424 C73.0965,151.424 72.6895,151.875 72.6235,152.491 L71.6335,152.26 C71.7435,151.248 72.6565,150.544 73.8005,150.544 C75.3845,150.544 76.0005,151.446 76.0005,152.48 L76.0005,155.131 C76.0005,155.593 76.0445,155.868 76.0665,156 L75.0545,156 C75.0325,155.868 74.9995,155.67 74.9995,155.285 C74.7685,155.659 74.2405,156.165 73.2945,156.165 C72.2165,156.165 71.5235,155.417 71.5235,154.581 Z M73.4375,155.296 C74.2845,155.296 74.9665,154.889 74.9665,153.734 L74.9665,153.492 L73.3495,153.734 C72.9095,153.8 72.5795,154.053 72.5795,154.526 C72.5795,154.922 72.9095,155.296 73.4375,155.296 Z M78.9925,149.037 L78.9925,150.709 L80.1365,150.709 L80.1365,151.644 L78.9925,151.644 L78.9925,154.394 C78.9925,154.878 79.1905,155.12 79.7295,155.12 C79.8615,155.12 80.0485,155.098 80.1365,155.076 L80.1365,155.956 C80.0485,155.989 79.7845,156.055 79.4325,156.055 C78.5305,156.055 77.9585,155.505 77.9585,154.548 L77.9585,151.644 L76.9465,151.644 L76.9465,150.709 L77.2325,150.709 C77.8045,150.709 78.0465,150.357 78.0465,149.895 L78.0465,149.037 L78.9925,149.037 Z M82.5345,156 L81.5115,156 L81.5115,150.709 L82.5345,150.709 L82.5345,156 Z M81.2805,148.707 C81.2805,148.289 81.6105,147.959 82.0175,147.959 C82.4355,147.959 82.7655,148.289 82.7655,148.707 C82.7655,149.114 82.4355,149.444 82.0175,149.444 C81.6105,149.444 81.2805,149.114 81.2805,148.707 Z M86.5605,155.241 C87.4405,155.241 88.2105,154.581 88.2105,153.349 C88.2105,152.128 87.4405,151.468 86.5605,151.468 C85.6805,151.468 84.9105,152.128 84.9105,153.349 C84.9105,154.581 85.6805,155.241 86.5605,155.241 Z M86.5605,150.544 C88.1445,150.544 89.2665,151.743 89.2665,153.349 C89.2665,154.966 88.1445,156.165 86.5605,156.165 C84.9765,156.165 83.8545,154.966 83.8545,153.349 C83.8545,151.743 84.9765,150.544 86.5605,150.544 Z M91.6205,152.942 L91.6205,156 L90.5865,156 L90.5865,150.709 L91.5985,150.709 L91.5985,151.468 C91.9835,150.808 92.6105,150.555 93.2265,150.555 C94.4915,150.555 95.1185,151.468 95.1185,152.645 L95.1185,156 L94.0845,156 L94.0845,152.821 C94.0845,152.084 93.7765,151.49 92.8525,151.49 C92.0385,151.49 91.6205,152.139 91.6205,152.942 Z M100.5415,158.09 L99.5185,158.09 L99.5185,150.709 L100.5195,150.709 L100.5195,151.534 C100.8055,151.006 101.4325,150.588 102.2905,150.588 C103.8745,150.588 104.7215,151.809 104.7215,153.349 C104.7215,154.922 103.8085,156.143 102.2575,156.143 C101.4435,156.143 100.8275,155.758 100.5415,155.285 L100.5415,158.09 Z M103.6655,153.349 C103.6655,152.293 103.0715,151.501 102.1035,151.501 C101.1575,151.501 100.5305,152.293 100.5305,153.349 C100.5305,154.438 101.1575,155.219 102.1035,155.219 C103.0605,155.219 103.6655,154.438 103.6655,153.349 Z M108.3075,155.241 C109.1875,155.241 109.9575,154.581 109.9575,153.349 C109.9575,152.128 109.1875,151.468 108.3075,151.468 C107.4275,151.468 106.6575,152.128 106.6575,153.349 C106.6575,154.581 107.4275,155.241 108.3075,155.241 Z M108.3075,150.544 C109.8915,150.544 111.0135,151.743 111.0135,153.349 C111.0135,154.966 109.8915,156.165 108.3075,156.165 C106.7235,156.165 105.6015,154.966 105.6015,153.349 C105.6015,151.743 106.7235,150.544 108.3075,150.544 Z M113.3675,156 L112.3335,156 L112.3335,148.036 L113.3675,148.036 L113.3675,156 Z M116.1505,156 L115.1275,156 L115.1275,150.709 L116.1505,150.709 L116.1505,156 Z M114.8965,148.707 C114.8965,148.289 115.2265,147.959 115.6335,147.959 C116.0515,147.959 116.3815,148.289 116.3815,148.707 C116.3815,149.114 116.0515,149.444 115.6335,149.444 C115.2265,149.444 114.8965,149.114 114.8965,148.707 Z M120.1325,151.501 C119.2965,151.501 118.5265,152.117 118.5265,153.349 C118.5265,154.559 119.2855,155.208 120.1435,155.208 C121.1335,155.208 121.4965,154.537 121.6175,154.119 L122.5305,154.515 C122.2775,155.274 121.5185,156.165 120.1435,156.165 C118.6035,156.165 117.4705,154.955 117.4705,153.349 C117.4705,151.699 118.6255,150.544 120.1325,150.544 C121.5405,150.544 122.2665,151.424 122.4865,152.227 L121.5515,152.623 C121.4195,152.106 121.0345,151.501 120.1325,151.501 Z M125.0605,158.211 L123.9275,158.211 L125.2475,155.417 L122.9705,150.709 L124.1585,150.709 L125.8085,154.361 L127.3925,150.709 L128.5035,150.709 L125.0605,158.211 Z M129.3835,155.296 C129.3835,154.867 129.7135,154.526 130.1425,154.526 C130.5715,154.526 130.9125,154.867 130.9125,155.296 C130.9125,155.725 130.5715,156.055 130.1425,156.055 C129.7135,156.055 129.3835,155.725 129.3835,155.296 Z M136.5005,151.842 L138.0625,151.842 C138.9975,151.842 139.5695,151.325 139.5695,150.522 C139.5695,149.697 138.9975,149.169 138.0625,149.169 L136.5005,149.169 L136.5005,151.842 Z M138.2605,152.81 L136.5005,152.81 L136.5005,156 L135.4225,156 L135.4225,148.201 L138.2605,148.201 C139.7015,148.201 140.6695,149.202 140.6695,150.511 C140.6695,151.831 139.7015,152.81 138.2605,152.81 Z M142.9135,156 L141.8795,156 L141.8795,148.036 L142.9135,148.036 L142.9135,156 Z M145.3445,152.81 L148.2375,152.81 C148.2155,152.051 147.7205,151.457 146.7855,151.457 C145.9165,151.457 145.3885,152.128 145.3445,152.81 Z M148.3915,154.185 L149.2825,154.493 C148.9855,155.428 148.1385,156.165 146.9065,156.165 C145.4875,156.165 144.2445,155.131 144.2445,153.338 C144.2445,151.677 145.4435,150.544 146.7745,150.544 C148.4025,150.544 149.3155,151.666 149.3155,153.316 C149.3155,153.448 149.3045,153.58 149.2935,153.646 L145.3115,153.646 C145.3335,154.592 146.0155,155.252 146.9065,155.252 C147.7645,155.252 148.1935,154.779 148.3915,154.185 Z M150.3055,154.581 C150.3055,153.635 150.9985,153.107 151.9115,152.975 L153.3415,152.766 C153.6605,152.722 153.7485,152.557 153.7485,152.37 C153.7485,151.853 153.4075,151.424 152.6045,151.424 C151.8785,151.424 151.4715,151.875 151.4055,152.491 L150.4155,152.26 C150.5255,151.248 151.4385,150.544 152.5825,150.544 C154.1665,150.544 154.7825,151.446 154.7825,152.48 L154.7825,155.131 C154.7825,155.593 154.8265,155.868 154.8485,156 L153.8365,156 C153.8145,155.868 153.7815,155.67 153.7815,155.285 C153.5505,155.659 153.0225,156.165 152.0765,156.165 C150.9985,156.165 150.3055,155.417 150.3055,154.581 Z M152.2195,155.296 C153.0665,155.296 153.7485,154.889 153.7485,153.734 L153.7485,153.492 L152.1315,153.734 C151.6915,153.8 151.3615,154.053 151.3615,154.526 C151.3615,154.922 151.6915,155.296 152.2195,155.296 Z M155.8935,154.625 L156.8285,154.295 C156.8945,154.845 157.3125,155.285 158.0605,155.285 C158.6435,155.285 158.9625,154.955 158.9625,154.581 C158.9625,154.251 158.7205,153.998 158.2805,153.899 L157.3785,153.701 C156.5535,153.525 156.0585,152.964 156.0585,152.216 C156.0585,151.314 156.9055,150.544 157.9395,150.544 C159.3915,150.544 159.8425,151.49 159.9525,151.963 L159.0395,152.304 C158.9955,152.029 158.7755,151.424 157.9395,151.424 C157.4115,151.424 157.0595,151.765 157.0595,152.128 C157.0595,152.447 157.2575,152.678 157.6645,152.766 L158.5225,152.953 C159.4795,153.162 159.9855,153.745 159.9855,154.526 C159.9855,155.274 159.3585,156.165 158.0495,156.165 C156.5975,156.165 155.9815,155.23 155.8935,154.625 Z M162.0315,152.81 L164.9245,152.81 C164.9025,152.051 164.4075,151.457 163.4725,151.457 C162.6035,151.457 162.0755,152.128 162.0315,152.81 Z M165.0785,154.185 L165.9695,154.493 C165.6725,155.428 164.8255,156.165 163.5935,156.165 C162.1745,156.165 160.9315,155.131 160.9315,153.338 C160.9315,151.677 162.1305,150.544 163.4615,150.544 C165.0895,150.544 166.0025,151.666 166.0025,153.316 C166.0025,153.448 165.9915,153.58 165.9805,153.646 L161.9985,153.646 C162.0205,154.592 162.7025,155.252 163.5935,155.252 C164.4515,155.252 164.8805,154.779 165.0785,154.185 Z M172.2945,151.501 C171.4585,151.501 170.6885,152.117 170.6885,153.349 C170.6885,154.559 171.4475,155.208 172.3055,155.208 C173.2955,155.208 173.6585,154.537 173.7795,154.119 L174.6925,154.515 C174.4395,155.274 173.6805,156.165 172.3055,156.165 C170.7655,156.165 169.6325,154.955 169.6325,153.349 C169.6325,151.699 170.7875,150.544 172.2945,150.544 C173.7025,150.544 174.4285,151.424 174.6485,152.227 L173.7135,152.623 C173.5815,152.106 173.1965,151.501 172.2945,151.501 Z M178.1685,155.241 C179.0485,155.241 179.8185,154.581 179.8185,153.349 C179.8185,152.128 179.0485,151.468 178.1685,151.468 C177.2885,151.468 176.5185,152.128 176.5185,153.349 C176.5185,154.581 177.2885,155.241 178.1685,155.241 Z M178.1685,150.544 C179.7525,150.544 180.8745,151.743 180.8745,153.349 C180.8745,154.966 179.7525,156.165 178.1685,156.165 C176.5845,156.165 175.4625,154.966 175.4625,153.349 C175.4625,151.743 176.5845,150.544 178.1685,150.544 Z M183.2285,152.942 L183.2285,156 L182.1945,156 L182.1945,150.709 L183.2065,150.709 L183.2065,151.468 C183.5915,150.808 184.2185,150.555 184.8345,150.555 C186.0995,150.555 186.7265,151.468 186.7265,152.645 L186.7265,156 L185.6925,156 L185.6925,152.821 C185.6925,152.084 185.3845,151.49 184.4605,151.49 C183.6465,151.49 183.2285,152.139 183.2285,152.942 Z M189.7625,149.037 L189.7625,150.709 L190.9065,150.709 L190.9065,151.644 L189.7625,151.644 L189.7625,154.394 C189.7625,154.878 189.9605,155.12 190.4995,155.12 C190.6315,155.12 190.8185,155.098 190.9065,155.076 L190.9065,155.956 C190.8185,155.989 190.5545,156.055 190.2025,156.055 C189.3005,156.055 188.7285,155.505 188.7285,154.548 L188.7285,151.644 L187.7165,151.644 L187.7165,150.709 L188.0025,150.709 C188.5745,150.709 188.8165,150.357 188.8165,149.895 L188.8165,149.037 L189.7625,149.037 Z M191.9515,154.581 C191.9515,153.635 192.6445,153.107 193.5575,152.975 L194.9875,152.766 C195.3065,152.722 195.3945,152.557 195.3945,152.37 C195.3945,151.853 195.0535,151.424 194.2505,151.424 C193.5245,151.424 193.1175,151.875 193.0515,152.491 L192.0615,152.26 C192.1715,151.248 193.0845,150.544 194.2285,150.544 C195.8125,150.544 196.4285,151.446 196.4285,152.48 L196.4285,155.131 C196.4285,155.593 196.4725,155.868 196.4945,156 L195.4825,156 C195.4605,155.868 195.4275,155.67 195.4275,155.285 C195.1965,155.659 194.6685,156.165 193.7225,156.165 C192.6445,156.165 191.9515,155.417 191.9515,154.581 Z M193.8655,155.296 C194.7125,155.296 195.3945,154.889 195.3945,153.734 L195.3945,153.492 L193.7775,153.734 C193.3375,153.8 193.0075,154.053 193.0075,154.526 C193.0075,154.922 193.3375,155.296 193.8655,155.296 Z M200.2565,151.501 C199.4205,151.501 198.6505,152.117 198.6505,153.349 C198.6505,154.559 199.4095,155.208 200.2675,155.208 C201.2575,155.208 201.6205,154.537 201.7415,154.119 L202.6545,154.515 C202.4015,155.274 201.6425,156.165 200.2675,156.165 C198.7275,156.165 197.5945,154.955 197.5945,153.349 C197.5945,151.699 198.7495,150.544 200.2565,150.544 C201.6645,150.544 202.3905,151.424 202.6105,152.227 L201.6755,152.623 C201.5435,152.106 201.1585,151.501 200.2565,151.501 Z M205.2505,149.037 L205.2505,150.709 L206.3945,150.709 L206.3945,151.644 L205.2505,151.644 L205.2505,154.394 C205.2505,154.878 205.4485,155.12 205.9875,155.12 C206.1195,155.12 206.3065,155.098 206.3945,155.076 L206.3945,155.956 C206.3065,155.989 206.0425,156.055 205.6905,156.055 C204.7885,156.055 204.2165,155.505 204.2165,154.548 L204.2165,151.644 L203.2045,151.644 L203.2045,150.709 L203.4905,150.709 C204.0625,150.709 204.3045,150.357 204.3045,149.895 L204.3045,149.037 L205.2505,149.037 Z M211.8395,158.211 L210.7065,158.211 L212.0265,155.417 L209.7495,150.709 L210.9375,150.709 L212.5875,154.361 L214.1715,150.709 L215.2825,150.709 L211.8395,158.211 Z M218.5385,155.241 C219.4185,155.241 220.1885,154.581 220.1885,153.349 C220.1885,152.128 219.4185,151.468 218.5385,151.468 C217.6585,151.468 216.8885,152.128 216.8885,153.349 C216.8885,154.581 217.6585,155.241 218.5385,155.241 Z M218.5385,150.544 C220.1225,150.544 221.2445,151.743 221.2445,153.349 C221.2445,154.966 220.1225,156.165 218.5385,156.165 C216.9545,156.165 215.8325,154.966 215.8325,153.349 C215.8325,151.743 216.9545,150.544 218.5385,150.544 Z M226.0515,155.362 C225.7655,155.912 225.1055,156.165 224.4895,156.165 C223.2575,156.165 222.5095,155.241 222.5095,154.042 L222.5095,150.709 L223.5435,150.709 L223.5435,153.888 C223.5435,154.614 223.8735,155.252 224.7425,155.252 C225.5785,155.252 225.9965,154.702 225.9965,153.899 L225.9965,150.709 L227.0305,150.709 L227.0305,155.021 C227.0305,155.439 227.0635,155.813 227.0855,156 L226.0955,156 C226.0735,155.879 226.0515,155.582 226.0515,155.362 Z M231.7275,150.654 L231.7275,151.754 C231.5735,151.732 231.4195,151.721 231.2765,151.721 C230.4075,151.721 229.8245,152.183 229.8245,153.349 L229.8245,156 L228.7905,156 L228.7905,150.709 L229.8025,150.709 L229.8025,151.633 C230.1875,150.819 230.8475,150.621 231.3865,150.621 C231.5295,150.621 231.6725,150.643 231.7275,150.654 Z M240.1095,150.709 L237.9975,156 L236.9525,156 L234.8075,150.709 L235.9735,150.709 L237.4805,154.79 L238.9985,150.709 L240.1095,150.709 Z M242.1225,156 L241.0995,156 L241.0995,150.709 L242.1225,150.709 L242.1225,156 Z M240.8685,148.707 C240.8685,148.289 241.1985,147.959 241.6055,147.959 C242.0235,147.959 242.3535,148.289 242.3535,148.707 C242.3535,149.114 242.0235,149.444 241.6055,149.444 C241.1985,149.444 240.8685,149.114 240.8685,148.707 Z M243.3875,154.625 L244.3225,154.295 C244.3885,154.845 244.8065,155.285 245.5545,155.285 C246.1375,155.285 246.4565,154.955 246.4565,154.581 C246.4565,154.251 246.2145,153.998 245.7745,153.899 L244.8725,153.701 C244.0475,153.525 243.5525,152.964 243.5525,152.216 C243.5525,151.314 244.3995,150.544 245.4335,150.544 C246.8855,150.544 247.3365,151.49 247.4465,151.963 L246.5335,152.304 C246.4895,152.029 246.2695,151.424 245.4335,151.424 C244.9055,151.424 244.5535,151.765 244.5535,152.128 C244.5535,152.447 244.7515,152.678 245.1585,152.766 L246.0165,152.953 C246.9735,153.162 247.4795,153.745 247.4795,154.526 C247.4795,155.274 246.8525,156.165 245.5435,156.165 C244.0915,156.165 243.4755,155.23 243.3875,154.625 Z M249.8775,156 L248.8545,156 L248.8545,150.709 L249.8775,150.709 L249.8775,156 Z M248.6235,148.707 C248.6235,148.289 248.9535,147.959 249.3605,147.959 C249.7785,147.959 250.1085,148.289 250.1085,148.707 C250.1085,149.114 249.7785,149.444 249.3605,149.444 C248.9535,149.444 248.6235,149.114 248.6235,148.707 Z M253.0235,149.037 L253.0235,150.709 L254.1675,150.709 L254.1675,151.644 L253.0235,151.644 L253.0235,154.394 C253.0235,154.878 253.2215,155.12 253.7605,155.12 C253.8925,155.12 254.0795,155.098 254.1675,155.076 L254.1675,155.956 C254.0795,155.989 253.8155,156.055 253.4635,156.055 C252.5615,156.055 251.9895,155.505 251.9895,154.548 L251.9895,151.644 L250.9775,151.644 L250.9775,150.709 L251.2635,150.709 C251.8355,150.709 252.0775,150.357 252.0775,149.895 L252.0775,149.037 L253.0235,149.037 Z M257.8085,155.241 C258.6885,155.241 259.4585,154.581 259.4585,153.349 C259.4585,152.128 258.6885,151.468 257.8085,151.468 C256.9285,151.468 256.1585,152.128 256.1585,153.349 C256.1585,154.581 256.9285,155.241 257.8085,155.241 Z M257.8085,150.544 C259.3925,150.544 260.5145,151.743 260.5145,153.349 C260.5145,154.966 259.3925,156.165 257.8085,156.165 C256.2245,156.165 255.1025,154.966 255.1025,153.349 C255.1025,151.743 256.2245,150.544 257.8085,150.544 Z M264.7715,150.654 L264.7715,151.754 C264.6175,151.732 264.4635,151.721 264.3205,151.721 C263.4515,151.721 262.8685,152.183 262.8685,153.349 L262.8685,156 L261.8345,156 L261.8345,150.709 L262.8465,150.709 L262.8465,151.633 C263.2315,150.819 263.8915,150.621 264.4305,150.621 C264.5735,150.621 264.7165,150.643 264.7715,150.654 Z M55.887,170 L54.864,170 L54.864,164.709 L55.887,164.709 L55.887,170 Z M54.633,162.707 C54.633,162.289 54.963,161.959 55.37,161.959 C55.788,161.959 56.118,162.289 56.118,162.707 C56.118,163.114 55.788,163.444 55.37,163.444 C54.963,163.444 54.633,163.114 54.633,162.707 Z M58.67,170 L57.647,170 L57.647,164.709 L58.637,164.709 L58.637,165.413 C58.967,164.83 59.627,164.555 60.243,164.555 C60.903,164.555 61.541,164.874 61.827,165.556 C62.245,164.797 62.927,164.555 63.598,164.555 C64.522,164.555 65.424,165.182 65.424,166.568 L65.424,170 L64.401,170 L64.401,166.678 C64.401,165.985 64.06,165.468 63.279,165.468 C62.553,165.468 62.058,166.04 62.058,166.799 L62.058,170 L61.024,170 L61.024,166.678 C61.024,165.996 60.694,165.468 59.902,165.468 C59.165,165.468 58.67,166.018 58.67,166.81 L58.67,170 Z M68.097,170 L67.074,170 L67.074,164.709 L68.064,164.709 L68.064,165.413 C68.394,164.83 69.054,164.555 69.67,164.555 C70.33,164.555 70.968,164.874 71.254,165.556 C71.672,164.797 72.354,164.555 73.025,164.555 C73.949,164.555 74.851,165.182 74.851,166.568 L74.851,170 L73.828,170 L73.828,166.678 C73.828,165.985 73.487,165.468 72.706,165.468 C71.98,165.468 71.485,166.04 71.485,166.799 L71.485,170 L70.451,170 L70.451,166.678 C70.451,165.996 70.121,165.468 69.329,165.468 C68.592,165.468 68.097,166.018 68.097,166.81 L68.097,170 Z M77.172,166.81 L80.065,166.81 C80.043,166.051 79.548,165.457 78.613,165.457 C77.744,165.457 77.216,166.128 77.172,166.81 Z M80.219,168.185 L81.11,168.493 C80.813,169.428 79.966,170.165 78.734,170.165 C77.315,170.165 76.072,169.131 76.072,167.338 C76.072,165.677 77.271,164.544 78.602,164.544 C80.23,164.544 81.143,165.666 81.143,167.316 C81.143,167.448 81.132,167.58 81.121,167.646 L77.139,167.646 C77.161,168.592 77.843,169.252 78.734,169.252 C79.592,169.252 80.021,168.779 80.219,168.185 Z M83.079,167.338 C83.079,168.427 83.64,169.23 84.63,169.23 C85.576,169.23 86.159,168.405 86.159,167.316 C86.159,166.227 85.587,165.479 84.641,165.479 C83.695,165.479 83.079,166.249 83.079,167.338 Z M86.17,169.285 L86.17,169.197 C85.917,169.703 85.356,170.143 84.531,170.143 C82.98,170.143 82.023,168.911 82.023,167.338 C82.023,165.842 83.035,164.566 84.531,164.566 C85.466,164.566 85.972,165.028 86.148,165.457 L86.148,162.036 L87.171,162.036 L87.171,169.021 C87.171,169.527 87.215,169.912 87.226,170 L86.225,170 C86.203,169.879 86.17,169.604 86.17,169.285 Z M89.954,170 L88.931,170 L88.931,164.709 L89.954,164.709 L89.954,170 Z M88.7,162.707 C88.7,162.289 89.03,161.959 89.437,161.959 C89.855,161.959 90.185,162.289 90.185,162.707 C90.185,163.114 89.855,163.444 89.437,163.444 C89.03,163.444 88.7,163.114 88.7,162.707 Z M91.384,168.581 C91.384,167.635 92.077,167.107 92.99,166.975 L94.42,166.766 C94.739,166.722 94.827,166.557 94.827,166.37 C94.827,165.853 94.486,165.424 93.683,165.424 C92.957,165.424 92.55,165.875 92.484,166.491 L91.494,166.26 C91.604,165.248 92.517,164.544 93.661,164.544 C95.245,164.544 95.861,165.446 95.861,166.48 L95.861,169.131 C95.861,169.593 95.905,169.868 95.927,170 L94.915,170 C94.893,169.868 94.86,169.67 94.86,169.285 C94.629,169.659 94.101,170.165 93.155,170.165 C92.077,170.165 91.384,169.417 91.384,168.581 Z M93.298,169.296 C94.145,169.296 94.827,168.889 94.827,167.734 L94.827,167.492 L93.21,167.734 C92.77,167.8 92.44,168.053 92.44,168.526 C92.44,168.922 92.77,169.296 93.298,169.296 Z M98.853,163.037 L98.853,164.709 L99.997,164.709 L99.997,165.644 L98.853,165.644 L98.853,168.394 C98.853,168.878 99.051,169.12 99.59,169.12 C99.722,169.12 99.909,169.098 99.997,169.076 L99.997,169.956 C99.909,169.989 99.645,170.055 99.293,170.055 C98.391,170.055 97.819,169.505 97.819,168.548 L97.819,165.644 L96.807,165.644 L96.807,164.709 L97.093,164.709 C97.665,164.709 97.907,164.357 97.907,163.895 L97.907,163.037 L98.853,163.037 Z M102.043,166.81 L104.936,166.81 C104.914,166.051 104.419,165.457 103.484,165.457 C102.615,165.457 102.087,166.128 102.043,166.81 Z M105.09,168.185 L105.981,168.493 C105.684,169.428 104.837,170.165 103.605,170.165 C102.186,170.165 100.943,169.131 100.943,167.338 C100.943,165.677 102.142,164.544 103.473,164.544 C105.101,164.544 106.014,165.666 106.014,167.316 C106.014,167.448 106.003,167.58 105.992,167.646 L102.01,167.646 C102.032,168.592 102.714,169.252 103.605,169.252 C104.463,169.252 104.892,168.779 105.09,168.185 Z M108.368,170 L107.334,170 L107.334,162.036 L108.368,162.036 L108.368,170 Z M111.448,172.211 L110.315,172.211 L111.635,169.417 L109.358,164.709 L110.546,164.709 L112.196,168.361 L113.78,164.709 L114.891,164.709 L111.448,172.211 Z M120.017,163.037 L120.017,164.709 L121.161,164.709 L121.161,165.644 L120.017,165.644 L120.017,168.394 C120.017,168.878 120.215,169.12 120.754,169.12 C120.886,169.12 121.073,169.098 121.161,169.076 L121.161,169.956 C121.073,169.989 120.809,170.055 120.457,170.055 C119.555,170.055 118.983,169.505 118.983,168.548 L118.983,165.644 L117.971,165.644 L117.971,164.709 L118.257,164.709 C118.829,164.709 119.071,164.357 119.071,163.895 L119.071,163.037 L120.017,163.037 Z M124.802,169.241 C125.682,169.241 126.452,168.581 126.452,167.349 C126.452,166.128 125.682,165.468 124.802,165.468 C123.922,165.468 123.152,166.128 123.152,167.349 C123.152,168.581 123.922,169.241 124.802,169.241 Z M124.802,164.544 C126.386,164.544 127.508,165.743 127.508,167.349 C127.508,168.966 126.386,170.165 124.802,170.165 C123.218,170.165 122.096,168.966 122.096,167.349 C122.096,165.743 123.218,164.544 124.802,164.544 Z M131.248,168.581 C131.248,167.635 131.941,167.107 132.854,166.975 L134.284,166.766 C134.603,166.722 134.691,166.557 134.691,166.37 C134.691,165.853 134.35,165.424 133.547,165.424 C132.821,165.424 132.414,165.875 132.348,166.491 L131.358,166.26 C131.468,165.248 132.381,164.544 133.525,164.544 C135.109,164.544 135.725,165.446 135.725,166.48 L135.725,169.131 C135.725,169.593 135.769,169.868 135.791,170 L134.779,170 C134.757,169.868 134.724,169.67 134.724,169.285 C134.493,169.659 133.965,170.165 133.019,170.165 C131.941,170.165 131.248,169.417 131.248,168.581 Z M133.162,169.296 C134.009,169.296 134.691,168.889 134.691,167.734 L134.691,167.492 L133.074,167.734 C132.634,167.8 132.304,168.053 132.304,168.526 C132.304,168.922 132.634,169.296 133.162,169.296 Z M140.268,164.654 L140.268,165.754 C140.114,165.732 139.96,165.721 139.817,165.721 C138.948,165.721 138.365,166.183 138.365,167.349 L138.365,170 L137.331,170 L137.331,164.709 L138.343,164.709 L138.343,165.633 C138.728,164.819 139.388,164.621 139.927,164.621 C140.07,164.621 140.213,164.643 140.268,164.654 Z M144.305,164.654 L144.305,165.754 C144.151,165.732 143.997,165.721 143.854,165.721 C142.985,165.721 142.402,166.183 142.402,167.349 L142.402,170 L141.368,170 L141.368,164.709 L142.38,164.709 L142.38,165.633 C142.765,164.819 143.425,164.621 143.964,164.621 C144.107,164.621 144.25,164.643 144.305,164.654 Z M145.075,168.581 C145.075,167.635 145.768,167.107 146.681,166.975 L148.111,166.766 C148.43,166.722 148.518,166.557 148.518,166.37 C148.518,165.853 148.177,165.424 147.374,165.424 C146.648,165.424 146.241,165.875 146.175,166.491 L145.185,166.26 C145.295,165.248 146.208,164.544 147.352,164.544 C148.936,164.544 149.552,165.446 149.552,166.48 L149.552,169.131 C149.552,169.593 149.596,169.868 149.618,170 L148.606,170 C148.584,169.868 148.551,169.67 148.551,169.285 C148.32,169.659 147.792,170.165 146.846,170.165 C145.768,170.165 145.075,169.417 145.075,168.581 Z M146.989,169.296 C147.836,169.296 148.518,168.889 148.518,167.734 L148.518,167.492 L146.901,167.734 C146.461,167.8 146.131,168.053 146.131,168.526 C146.131,168.922 146.461,169.296 146.989,169.296 Z M152.192,166.942 L152.192,170 L151.158,170 L151.158,164.709 L152.17,164.709 L152.17,165.468 C152.555,164.808 153.182,164.555 153.798,164.555 C155.063,164.555 155.69,165.468 155.69,166.645 L155.69,170 L154.656,170 L154.656,166.821 C154.656,166.084 154.348,165.49 153.424,165.49 C152.61,165.49 152.192,166.139 152.192,166.942 Z M156.955,170.286 L157.956,170.055 C158.033,170.792 158.594,171.353 159.397,171.353 C160.508,171.353 161.014,170.781 161.014,169.637 L161.014,168.878 C160.761,169.362 160.189,169.747 159.397,169.747 C157.989,169.747 156.966,168.68 156.966,167.184 C156.966,165.754 157.945,164.61 159.397,164.61 C160.211,164.61 160.761,164.918 161.025,165.446 L161.025,164.709 L162.048,164.709 L162.048,169.604 C162.048,170.946 161.388,172.255 159.397,172.255 C158.077,172.255 157.087,171.419 156.955,170.286 Z M159.551,168.878 C160.442,168.878 161.058,168.207 161.058,167.184 C161.058,166.161 160.442,165.49 159.551,165.49 C158.638,165.49 158.022,166.161 158.022,167.184 C158.022,168.218 158.616,168.878 159.551,168.878 Z M164.369,166.81 L167.262,166.81 C167.24,166.051 166.745,165.457 165.81,165.457 C164.941,165.457 164.413,166.128 164.369,166.81 Z M167.416,168.185 L168.307,168.493 C168.01,169.428 167.163,170.165 165.931,170.165 C164.512,170.165 163.269,169.131 163.269,167.338 C163.269,165.677 164.468,164.544 165.799,164.544 C167.427,164.544 168.34,165.666 168.34,167.316 C168.34,167.448 168.329,167.58 168.318,167.646 L164.336,167.646 C164.358,168.592 165.04,169.252 165.931,169.252 C166.789,169.252 167.218,168.779 167.416,168.185 Z M172.08,168.581 C172.08,167.635 172.773,167.107 173.686,166.975 L175.116,166.766 C175.435,166.722 175.523,166.557 175.523,166.37 C175.523,165.853 175.182,165.424 174.379,165.424 C173.653,165.424 173.246,165.875 173.18,166.491 L172.19,166.26 C172.3,165.248 173.213,164.544 174.357,164.544 C175.941,164.544 176.557,165.446 176.557,166.48 L176.557,169.131 C176.557,169.593 176.601,169.868 176.623,170 L175.611,170 C175.589,169.868 175.556,169.67 175.556,169.285 C175.325,169.659 174.797,170.165 173.851,170.165 C172.773,170.165 172.08,169.417 172.08,168.581 Z M173.994,169.296 C174.841,169.296 175.523,168.889 175.523,167.734 L175.523,167.492 L173.906,167.734 C173.466,167.8 173.136,168.053 173.136,168.526 C173.136,168.922 173.466,169.296 173.994,169.296 Z M183.85,164.654 L183.85,165.754 C183.696,165.732 183.542,165.721 183.399,165.721 C182.53,165.721 181.947,166.183 181.947,167.349 L181.947,170 L180.913,170 L180.913,164.709 L181.925,164.709 L181.925,165.633 C182.31,164.819 182.97,164.621 183.509,164.621 C183.652,164.621 183.795,164.643 183.85,164.654 Z M185.621,166.81 L188.514,166.81 C188.492,166.051 187.997,165.457 187.062,165.457 C186.193,165.457 185.665,166.128 185.621,166.81 Z M188.668,168.185 L189.559,168.493 C189.262,169.428 188.415,170.165 187.183,170.165 C185.764,170.165 184.521,169.131 184.521,167.338 C184.521,165.677 185.72,164.544 187.051,164.544 C188.679,164.544 189.592,165.666 189.592,167.316 C189.592,167.448 189.581,167.58 189.57,167.646 L185.588,167.646 C185.61,168.592 186.292,169.252 187.183,169.252 C188.041,169.252 188.47,168.779 188.668,168.185 Z M191.935,170 L190.912,170 L190.912,164.709 L191.902,164.709 L191.902,165.413 C192.232,164.83 192.892,164.555 193.508,164.555 C194.168,164.555 194.806,164.874 195.092,165.556 C195.51,164.797 196.192,164.555 196.863,164.555 C197.787,164.555 198.689,165.182 198.689,166.568 L198.689,170 L197.666,170 L197.666,166.678 C197.666,165.985 197.325,165.468 196.544,165.468 C195.818,165.468 195.323,166.04 195.323,166.799 L195.323,170 L194.289,170 L194.289,166.678 C194.289,165.996 193.959,165.468 193.167,165.468 C192.43,165.468 191.935,166.018 191.935,166.81 L191.935,170 Z M202.605,169.241 C203.485,169.241 204.255,168.581 204.255,167.349 C204.255,166.128 203.485,165.468 202.605,165.468 C201.725,165.468 200.955,166.128 200.955,167.349 C200.955,168.581 201.725,169.241 202.605,169.241 Z M202.605,164.544 C204.189,164.544 205.311,165.743 205.311,167.349 C205.311,168.966 204.189,170.165 202.605,170.165 C201.021,170.165 199.899,168.966 199.899,167.349 C199.899,165.743 201.021,164.544 202.605,164.544 Z M208.017,163.037 L208.017,164.709 L209.161,164.709 L209.161,165.644 L208.017,165.644 L208.017,168.394 C208.017,168.878 208.215,169.12 208.754,169.12 C208.886,169.12 209.073,169.098 209.161,169.076 L209.161,169.956 C209.073,169.989 208.809,170.055 208.457,170.055 C207.555,170.055 206.983,169.505 206.983,168.548 L206.983,165.644 L205.971,165.644 L205.971,164.709 L206.257,164.709 C206.829,164.709 207.071,164.357 207.071,163.895 L207.071,163.037 L208.017,163.037 Z M211.207,166.81 L214.1,166.81 C214.078,166.051 213.583,165.457 212.648,165.457 C211.779,165.457 211.251,166.128 211.207,166.81 Z M214.254,168.185 L215.145,168.493 C214.848,169.428 214.001,170.165 212.769,170.165 C211.35,170.165 210.107,169.131 210.107,167.338 C210.107,165.677 211.306,164.544 212.637,164.544 C214.265,164.544 215.178,165.666 215.178,167.316 C215.178,167.448 215.167,167.58 215.156,167.646 L211.174,167.646 C211.196,168.592 211.878,169.252 212.769,169.252 C213.627,169.252 214.056,168.779 214.254,168.185 Z M220.271,170 L219.248,170 L219.248,164.709 L220.238,164.709 L220.238,165.413 C220.568,164.83 221.228,164.555 221.844,164.555 C222.504,164.555 223.142,164.874 223.428,165.556 C223.846,164.797 224.528,164.555 225.199,164.555 C226.123,164.555 227.025,165.182 227.025,166.568 L227.025,170 L226.002,170 L226.002,166.678 C226.002,165.985 225.661,165.468 224.88,165.468 C224.154,165.468 223.659,166.04 223.659,166.799 L223.659,170 L222.625,170 L222.625,166.678 C222.625,165.996 222.295,165.468 221.503,165.468 C220.766,165.468 220.271,166.018 220.271,166.81 L220.271,170 Z M229.346,166.81 L232.239,166.81 C232.217,166.051 231.722,165.457 230.787,165.457 C229.918,165.457 229.39,166.128 229.346,166.81 Z M232.393,168.185 L233.284,168.493 C232.987,169.428 232.14,170.165 230.908,170.165 C229.489,170.165 228.246,169.131 228.246,167.338 C228.246,165.677 229.445,164.544 230.776,164.544 C232.404,164.544 233.317,165.666 233.317,167.316 C233.317,167.448 233.306,167.58 233.295,167.646 L229.313,167.646 C229.335,168.592 230.017,169.252 230.908,169.252 C231.766,169.252 232.195,168.779 232.393,168.185 Z M235.308,166.81 L238.201,166.81 C238.179,166.051 237.684,165.457 236.749,165.457 C235.88,165.457 235.352,166.128 235.308,166.81 Z M238.355,168.185 L239.246,168.493 C238.949,169.428 238.102,170.165 236.87,170.165 C235.451,170.165 234.208,169.131 234.208,167.338 C234.208,165.677 235.407,164.544 236.738,164.544 C238.366,164.544 239.279,165.666 239.279,167.316 C239.279,167.448 239.268,167.58 239.257,167.646 L235.275,167.646 C235.297,168.592 235.979,169.252 236.87,169.252 C237.728,169.252 238.157,168.779 238.355,168.185 Z M241.985,163.037 L241.985,164.709 L243.129,164.709 L243.129,165.644 L241.985,165.644 L241.985,168.394 C241.985,168.878 242.183,169.12 242.722,169.12 C242.854,169.12 243.041,169.098 243.129,169.076 L243.129,169.956 C243.041,169.989 242.777,170.055 242.425,170.055 C241.523,170.055 240.951,169.505 240.951,168.548 L240.951,165.644 L239.939,165.644 L239.939,164.709 L240.225,164.709 C240.797,164.709 241.039,164.357 241.039,163.895 L241.039,163.037 L241.985,163.037 Z M245.527,170 L244.504,170 L244.504,164.709 L245.527,164.709 L245.527,170 Z M244.273,162.707 C244.273,162.289 244.603,161.959 245.01,161.959 C245.428,161.959 245.758,162.289 245.758,162.707 C245.758,163.114 245.428,163.444 245.01,163.444 C244.603,163.444 244.273,163.114 244.273,162.707 Z M248.321,166.942 L248.321,170 L247.287,170 L247.287,164.709 L248.299,164.709 L248.299,165.468 C248.684,164.808 249.311,164.555 249.927,164.555 C251.192,164.555 251.819,165.468 251.819,166.645 L251.819,170 L250.785,170 L250.785,166.821 C250.785,166.084 250.477,165.49 249.553,165.49 C248.739,165.49 248.321,166.139 248.321,166.942 Z M253.084,170.286 L254.085,170.055 C254.162,170.792 254.723,171.353 255.526,171.353 C256.637,171.353 257.143,170.781 257.143,169.637 L257.143,168.878 C256.89,169.362 256.318,169.747 255.526,169.747 C254.118,169.747 253.095,168.68 253.095,167.184 C253.095,165.754 254.074,164.61 255.526,164.61 C256.34,164.61 256.89,164.918 257.154,165.446 L257.154,164.709 L258.177,164.709 L258.177,169.604 C258.177,170.946 257.517,172.255 255.526,172.255 C254.206,172.255 253.216,171.419 253.084,170.286 Z M255.68,168.878 C256.571,168.878 257.187,168.207 257.187,167.184 C257.187,166.161 256.571,165.49 255.68,165.49 C254.767,165.49 254.151,166.161 254.151,167.184 C254.151,168.218 254.745,168.878 255.68,168.878 Z M259.717,169.296 C259.717,168.867 260.047,168.526 260.476,168.526 C260.905,168.526 261.246,168.867 261.246,169.296 C261.246,169.725 260.905,170.055 260.476,170.055 C260.047,170.055 259.717,169.725 259.717,169.296 Z" id="Yourvisitor'sanswerarenotinlinewiththevisitationpolicy.Pleasecontactyourvisitorimmediatelytoarrangearemotemeeting." fill-opacity="0.5" fill="#0A0A47" fill-rule="nonzero"></path>
        </g>
    </g>
</svg>