<?xml version="1.0" encoding="UTF-8"?>
<svg width="520px" height="465px" viewBox="0 0 520 465" version="1.1" xmlns="http://www.w3.org/2000/svg" xmlns:xlink="http://www.w3.org/1999/xlink">
    <!-- Generator: Sketch 54.1 (76490) - https://sketchapp.com -->
    <title>security-feature</title>
    <desc>Created with Sketch.</desc>
    <defs>
        <circle id="path-1" cx="28.5" cy="28.5" r="28.5"></circle>
        <circle id="path-3" cx="28.5" cy="28.5" r="28.5"></circle>
        <circle id="path-5" cx="20" cy="20" r="20"></circle>
    </defs>
    <g id="security-feature" stroke="none" stroke-width="1" fill="none" fill-rule="evenodd">
        <g id="vectorisé" transform="translate(101.000000, 43.000000)">
            <g id="Group" fill="#F24242" fill-rule="nonzero">
                <rect id="Rectangle" fill-opacity="0.1" x="1.52056145e-12" y="1.42108547e-13" width="128.518843" height="128.518843" rx="35"></rect>
                <path d="M90.5811744,90.3077301 L90.5811744,69.7050657 C90.5811744,55.1455215 78.7355653,43.2999124 64.1773883,43.2999124 C49.6192112,43.2999124 37.7734654,55.1455215 37.7734654,69.7050657 L37.7734654,90.3090973 C35.3798703,90.696021 33.5490237,92.767362 33.5490237,95.2693777 C33.5490237,98.0489395 35.8026152,100.300754 38.5805364,100.300754 L89.7717791,100.300754 C92.5513409,100.300754 94.8031551,98.0475723 94.8031551,95.2693777 C94.8058896,92.7659947 92.9765469,90.6946538 90.5811744,90.3077301 Z" id="Path"></path>
                <path d="M25.4720245,72.7621735 C23.7349693,72.7635408 21.9962734,72.8195968 20.2637301,72.7498685 C17.8501735,72.6527958 16.4159579,71.2445574 16.4066608,69.0857143 C16.3975004,66.8872217 17.7826328,65.483085 20.2329676,65.433865 C23.7042068,65.3655039 27.178454,65.3655039 30.6511972,65.4324978 C33.1846591,65.4817178 34.5543418,66.7805784 34.6050657,68.9571954 C34.6574303,71.2144785 33.2245819,72.6445925 30.6819597,72.7471341 C28.9479124,72.8182296 27.2092165,72.7608063 25.4720245,72.7621735 Z" id="Path"></path>
                <path d="M103.017423,65.4270289 C104.818054,65.4270289 106.622787,65.3559334 108.419316,65.4448028 C110.775039,65.5610167 112.09851,66.9118317 112.112182,69.0364943 C112.125855,71.1379141 110.787344,72.6486941 108.491779,72.7197897 C104.830359,72.8332691 101.159369,72.8305346 97.4952147,72.7252585 C95.2420333,72.6623663 93.8884838,71.1215074 93.9062577,69.0077826 C93.9226643,66.8899562 95.2639089,65.5459772 97.6155302,65.4420684 C99.4134268,65.3614023 101.216792,65.4242945 103.017423,65.4270289 Z" id="Path"></path>
                <path d="M99.6335495,37.0216301 C99.6308151,37.0175285 99.6267134,37.0120596 99.6226117,37.0093252 C99.5692901,36.1165294 99.1727958,35.2606486 98.4522699,34.5920771 C97.6606486,33.8578791 96.7254689,33.5324803 95.7820859,33.617248 C94.8222962,33.5133392 93.8597721,33.980929 93.0886591,34.7383699 C90.4376161,37.34156 87.8070815,39.9693602 85.2490096,42.6600526 C84.431411,43.5214023 84.0690973,44.5440841 84.1210517,45.5257493 C84.1183173,45.5325855 84.1155828,45.5366871 84.1114812,45.5435232 C84.1155828,45.5476249 84.1196845,45.5517266 84.1224189,45.5558282 C84.1771078,46.448624 84.5736021,47.3045048 85.294128,47.9730762 C86.0857493,48.7072743 87.020929,49.0326731 87.964312,48.9479053 C88.9241017,49.0518142 89.8866258,48.5842244 90.6577388,47.8254163 C93.3074145,45.2235933 95.9379492,42.5957932 98.496021,39.9037336 C99.3136196,39.0437511 99.6773006,38.0210692 99.6267134,37.039404 C99.6280806,37.0325679 99.6308151,37.0284663 99.6335495,37.0216301 Z" id="Path"></path>
                <path d="M27.3445714,38.1454864 C27.3475793,38.1413848 27.3507239,38.1359159 27.3537318,38.1318142 C27.3091604,37.2390184 27.6089921,36.3421209 28.2530903,35.5997195 C28.9602174,34.7834882 29.8517826,34.3582822 30.7988571,34.3377739 C31.7411464,34.1299562 32.7481052,34.4881683 33.5997476,35.1567397 C36.5205434,37.452305 39.4230184,39.7738475 42.2623278,42.16922 C43.1693427,42.9348642 43.6428116,43.9110605 43.699688,44.8927257 C43.7028326,44.8995618 43.7058405,44.9036635 43.710489,44.9091323 C43.7073444,44.9146012 43.7043365,44.9187029 43.7013287,44.9241718 C43.7459001,45.8169676 43.4460684,46.7124978 42.8019702,47.4548992 C42.0948431,48.2711306 41.2031411,48.6977038 40.2562033,48.7182121 C39.3137774,48.9246626 38.3069553,48.5664505 37.4553129,47.8978791 C34.5343804,45.603681 31.6320421,43.2821385 28.792596,40.886766 C27.8855811,40.1211218 27.4121122,39.1449255 27.3552358,38.1618931 C27.3522279,38.1564242 27.3490833,38.1495881 27.3445714,38.1454864 Z" id="Path"></path>
                <path d="M67.8114636,29.8642244 C67.8114636,31.7250131 67.8716214,33.5885364 67.7964242,35.4465907 C67.7061876,37.7243821 66.2637686,39.0957055 64.1596144,39.0464855 C62.1320245,39 60.76617,37.6737949 60.7237862,35.4479579 C60.6499562,31.6634882 60.6431201,27.8749167 60.7210517,24.090447 C60.7620684,22.0177388 62.3726556,20.5001227 64.2566871,20.508326 C66.1557581,20.5151621 67.7061876,22.0054338 67.8018931,24.0890798 C67.8893953,26.0100263 67.819667,27.9378089 67.819667,29.8628571 C67.8169325,29.8642244 67.8128309,29.8642244 67.8114636,29.8642244 Z" id="Path"></path>
            </g>
            <g id="Group-2" transform="translate(189.000000, 0.000000)" fill="#3AB9FF">
                <rect id="Rectangle" fill-opacity="0.1" fill-rule="nonzero" x="1.52056145e-12" y="1.42108547e-13" width="128.518843" height="128.518843" rx="35"></rect>
                <path d="M43.7510955,23.2427695 C38.4654163,23.2427695 34.1805434,27.5276424 34.1805434,32.8133216 L34.1805434,103.908852 L45.1183173,103.908852 L45.1183173,50.5872042 C45.1183173,49.0764242 46.3419807,47.8527607 47.8527607,47.8527607 L51.9544259,47.8527607 C53.465206,47.8527607 54.6888694,49.0764242 54.6888694,50.5872042 L54.6888694,103.908852 L65.6266433,103.908852 L65.6266433,32.8133216 C65.6266433,27.5276424 61.3417704,23.2427695 56.0560911,23.2427695 L43.7510955,23.2427695 Z" id="Path"></path>
                <path d="M71.4441718,43.9233655 L69.632603,43.9233655 L69.632603,51.4717967 L98.1993339,77.1741981 L98.3114461,77.2808414 C98.9622436,77.8427695 99.7935145,78.1517616 100.653497,78.1517616 C101.513479,78.1517616 102.34475,77.8427695 102.996915,77.2808414 C103.554741,76.6286766 103.862366,75.7974058 103.862366,74.9387905 C103.862366,74.0788081 103.554741,73.2489045 102.996915,72.5953725 L71.4441718,43.9233655 Z" id="Path" fill-rule="nonzero"></path>
                <path d="M108.039229,32.106468 L69.632603,32.106468 L69.632603,38.0142331 L108.039229,38.0142331 C108.822647,38.0142331 109.574619,37.7038738 110.128344,37.1487818 C110.683436,36.595057 110.993795,35.8444522 110.993795,35.059667 C110.993795,34.2762489 110.683436,33.5256442 110.128344,32.9705521 C109.574619,32.4168273 108.822647,32.106468 108.039229,32.106468 Z" id="Path" fill-rule="nonzero"></path>
            </g>
            <g id="Group-4" transform="translate(0.000000, 219.000000)">
                <rect id="Rectangle" fill-opacity="0.1" fill="#FF8839" fill-rule="nonzero" x="0" y="0" width="128.518843" height="128.518843" rx="35"></rect>
                <g id="Avatar-80" transform="translate(12.000000, 36.000000)">
                    <mask id="mask-2" fill="white">
                        <use xlink:href="#path-1"></use>
                    </mask>
                    <use id="oval" fill-opacity="0.25" fill="#0A0A47" xlink:href="#path-1"></use>
                    <g id="icon" mask="url(#mask-2)">
                        <g transform="translate(15.000000, 14.000000)"></g>
                    </g>
                    <rect id="picture" fill="#FF8839" fill-rule="nonzero" mask="url(#mask-2)" x="0" y="0" width="57" height="57"></rect>
                    <path d="M29.0706522,29.5942369 C25.1600158,29.5942369 21.9797431,26.3662299 21.9797431,22.3968968 L21.9797431,21.1973401 C21.9797431,17.228007 25.1600158,14 29.0706522,14 C32.9812885,14 36.1615613,17.228007 36.1615613,21.1973401 L36.1615613,22.3968968 C36.1615613,26.3662299 32.9812885,29.5942369 29.0706522,29.5942369 Z M37.6532727,33.3807549 C40.2119091,34.1004889 42,36.4792099 42,39.1674164 L42,43 L16,43 L16,39.1674164 C16,36.4792099 17.7880909,34.1004889 20.3467273,33.3807549 C25.9071818,31.8177326 32.094,31.8177326 37.6532727,33.3807549 Z" id="icon" fill="#FFFFFF" mask="url(#mask-2)"></path>
                </g>
                <g id="Avatar-80-Copy" transform="translate(60.000000, 36.000000)">
                    <mask id="mask-4" fill="white">
                        <use xlink:href="#path-3"></use>
                    </mask>
                    <use id="oval" fill-opacity="0.25" fill="#0A0A47" xlink:href="#path-3"></use>
                    <g id="icon" mask="url(#mask-4)">
                        <g transform="translate(15.000000, 14.000000)"></g>
                    </g>
                    <rect id="picture" fill="#FF8839" fill-rule="nonzero" mask="url(#mask-4)" x="0" y="0" width="57" height="57"></rect>
                    <path d="M29.0706522,29.5942369 C25.1600158,29.5942369 21.9797431,26.3662299 21.9797431,22.3968968 L21.9797431,21.1973401 C21.9797431,17.228007 25.1600158,14 29.0706522,14 C32.9812885,14 36.1615613,17.228007 36.1615613,21.1973401 L36.1615613,22.3968968 C36.1615613,26.3662299 32.9812885,29.5942369 29.0706522,29.5942369 Z M37.6532727,33.3807549 C40.2119091,34.1004889 42,36.4792099 42,39.1674164 L42,43 L16,43 L16,39.1674164 C16,36.4792099 17.7880909,34.1004889 20.3467273,33.3807549 C25.9071818,31.8177326 32.094,31.8177326 37.6532727,33.3807549 Z" id="icon" fill="#FFFFFF" mask="url(#mask-4)"></path>
                </g>
            </g>
            <path d="M74.5394238,275.500889 C73.9253223,274.833037 72.9297198,274.833037 72.3156183,275.500889 L61.8552921,286.87753 L57.6843817,282.341338 C57.0702802,281.673379 56.0746777,281.673379 55.4605762,282.341338 C54.8464746,283.00919 54.8464746,284.091984 55.4605762,284.759943 L60.7374893,290.499144 C61.2211906,291.025128 61.9414924,291.13681 62.5256938,290.834297 C62.6914942,290.751842 62.8468946,290.63632 62.983295,290.487944 L74.5394238,277.919495 C75.1535254,277.251642 75.1535254,276.168742 74.5394238,275.500889 Z" id="Path" fill="#FFFFFF"></path>
            <g id="Group-3" transform="translate(189.000000, 219.000000)">
                <rect id="Rectangle" fill-opacity="0.1" fill="#26DB8E" fill-rule="nonzero" x="0" y="0" width="128.518843" height="128.518843" rx="35"></rect>
                <g id="Group-6" transform="translate(14.000000, 56.000000)">
                    <rect id="Rectangle" fill="#26DB8E" fill-rule="nonzero" x="-1.05160325e-12" y="0" width="99.1331464" height="25" rx="8"></rect>
                    <g id="Avatar-80-Copy" transform="translate(12.000000, 5.000000)">
                        <g id="icon"></g>
                        <path d="M8.03804348,8.60371692 C5.93231621,8.60371692 4.21986166,6.82274752 4.21986166,4.63277065 L4.21986166,3.97094627 C4.21986166,1.7809694 5.93231621,3.19744231e-14 8.03804348,3.19744231e-14 C10.1437708,3.19744231e-14 11.8562253,1.7809694 11.8562253,3.97094627 L11.8562253,4.63277065 C11.8562253,6.82274752 10.1437708,8.60371692 8.03804348,8.60371692 Z M12.6594545,10.6928303 C14.0371818,11.0899249 15,12.4023227 15,13.8854711 L15,16 L1,16 L1,13.8854711 C1,12.4023227 1.96281818,11.0899249 3.34054545,10.6928303 C6.33463636,9.83047315 9.666,9.83047315 12.6594545,10.6928303 Z" id="icon" fill="#FFFFFF"></path>
                    </g>
                    <path d="M38.3225806,12.5 L77.4096534,12.5" id="Line" stroke="#FFFFFF" stroke-width="4" stroke-linecap="round" stroke-linejoin="round"></path>
                </g>
                <g id="Group-5" transform="translate(14.000000, 84.000000)">
                    <rect id="Rectangle-Copy" fill="#26DB8E" fill-rule="nonzero" x="-1.05160325e-12" y="0" width="99.1331464" height="25" rx="8"></rect>
                    <path d="M38.3225806,12.5 L77.4096534,12.5" id="Line-Copy" stroke="#FFFFFF" stroke-width="4" stroke-linecap="round" stroke-linejoin="round"></path>
                    <g id="Avatar-80-Copy-3" transform="translate(12.000000, 5.000000)">
                        <g id="icon"></g>
                        <path d="M8.03804348,8.60371692 C5.93231621,8.60371692 4.21986166,6.82274752 4.21986166,4.63277065 L4.21986166,3.97094627 C4.21986166,1.7809694 5.93231621,3.19744231e-14 8.03804348,3.19744231e-14 C10.1437708,3.19744231e-14 11.8562253,1.7809694 11.8562253,3.97094627 L11.8562253,4.63277065 C11.8562253,6.82274752 10.1437708,8.60371692 8.03804348,8.60371692 Z M12.6594545,10.6928303 C14.0371818,11.0899249 15,12.4023227 15,13.8854711 L15,16 L1,16 L1,13.8854711 C1,12.4023227 1.96281818,11.0899249 3.34054545,10.6928303 C6.33463636,9.83047315 9.666,9.83047315 12.6594545,10.6928303 Z" id="icon" fill="#FFFFFF"></path>
                    </g>
                </g>
                <g id="Avatar-80-Copy-2" transform="translate(44.000000, 17.000000)">
                    <mask id="mask-6" fill="white">
                        <use xlink:href="#path-5"></use>
                    </mask>
                    <use id="oval" stroke="#E9FBF3" stroke-width="5" fill-opacity="0.25" fill="#0A0A47" xlink:href="#path-5"></use>
                    <g id="icon" mask="url(#mask-6)">
                        <g transform="translate(10.322581, 10.322581)"></g>
                    </g>
                    <rect id="picture" fill="#26DB8E" fill-rule="nonzero" mask="url(#mask-6)" x="0" y="0" width="40" height="40"></rect>
                    <path d="M20.0813464,21.1015702 C17.364279,21.1015702 15.1546602,18.8035452 15.1546602,15.9777686 L15.1546602,15.1238016 C15.1546602,12.298025 17.364279,10 20.0813464,10 C22.7984139,10 25.0080326,12.298025 25.0080326,15.1238016 L25.0080326,15.9777686 C25.0080326,18.8035452 22.7984139,21.1015702 20.0813464,21.1015702 Z M26.0444575,23.7972004 C27.8221701,24.3095806 29.0645161,26.002997 29.0645161,27.9167369 L29.0645161,30.6451613 L11,30.6451613 L11,27.9167369 C11,26.002997 12.242346,24.3095806 14.0200587,23.7972004 C17.8834018,22.6844815 22.1819355,22.6844815 26.0444575,23.7972004 Z" id="icon" fill="#FFFFFF" mask="url(#mask-6)"></path>
                </g>
            </g>
            <path d="M27.312,156 L19.428,156 L19.428,143.238 L27.312,143.238 L27.312,145.254 L21.588,145.254 L21.588,148.638 L26.772,148.638 L26.772,150.6 L21.588,150.6 L21.588,153.984 L27.312,153.984 L27.312,156 Z M31.794,156 L29.724,156 L29.724,147.234 L31.722,147.234 L31.722,148.35 C32.226,147.45 33.324,146.982 34.314,146.982 C35.466,146.982 36.474,147.504 36.942,148.53 C37.626,147.378 38.652,146.982 39.786,146.982 C41.37,146.982 42.882,147.99 42.882,150.312 L42.882,156 L40.866,156 L40.866,150.654 C40.866,149.628 40.344,148.854 39.174,148.854 C38.076,148.854 37.356,149.718 37.356,150.798 L37.356,156 L35.304,156 L35.304,150.654 C35.304,149.646 34.8,148.854 33.612,148.854 C32.496,148.854 31.794,149.682 31.794,150.798 L31.794,156 Z M46.896,150.654 L51.198,150.654 C51.162,149.628 50.478,148.71 49.038,148.71 C47.724,148.71 46.968,149.718 46.896,150.654 Z M51.432,152.94 L53.196,153.498 C52.728,155.028 51.342,156.27 49.236,156.27 C46.86,156.27 44.754,154.542 44.754,151.572 C44.754,148.8 46.806,146.964 49.02,146.964 C51.72,146.964 53.304,148.746 53.304,151.518 C53.304,151.86 53.268,152.148 53.25,152.184 L46.842,152.184 C46.896,153.516 47.94,154.47 49.236,154.47 C50.496,154.47 51.144,153.804 51.432,152.94 Z M60.432,147.18 L60.432,149.304 C60.198,149.268 59.964,149.25 59.748,149.25 C58.128,149.25 57.39,150.186 57.39,151.824 L57.39,156 L55.302,156 L55.302,147.234 L57.336,147.234 L57.336,148.638 C57.75,147.684 58.722,147.126 59.874,147.126 C60.126,147.126 60.342,147.162 60.432,147.18 Z M61.512,156.486 L63.438,155.982 C63.582,157.062 64.428,157.872 65.634,157.872 C67.29,157.872 68.118,157.026 68.118,155.244 L68.118,154.326 C67.74,155.01 66.858,155.604 65.58,155.604 C63.24,155.604 61.53,153.804 61.53,151.338 C61.53,148.998 63.168,147.072 65.58,147.072 C66.948,147.072 67.794,147.63 68.172,148.35 L68.172,147.234 L70.188,147.234 L70.188,155.172 C70.188,157.512 68.982,159.69 65.688,159.69 C63.366,159.69 61.746,158.25 61.512,156.486 Z M65.922,153.822 C67.254,153.822 68.172,152.85 68.172,151.338 C68.172,149.844 67.218,148.872 65.922,148.872 C64.59,148.872 63.636,149.844 63.636,151.338 C63.636,152.868 64.554,153.822 65.922,153.822 Z M74.202,150.654 L78.504,150.654 C78.468,149.628 77.784,148.71 76.344,148.71 C75.03,148.71 74.274,149.718 74.202,150.654 Z M78.738,152.94 L80.502,153.498 C80.034,155.028 78.648,156.27 76.542,156.27 C74.166,156.27 72.06,154.542 72.06,151.572 C72.06,148.8 74.112,146.964 76.326,146.964 C79.026,146.964 80.61,148.746 80.61,151.518 C80.61,151.86 80.574,152.148 80.556,152.184 L74.148,152.184 C74.202,153.516 75.246,154.47 76.542,154.47 C77.802,154.47 78.45,153.804 78.738,152.94 Z M84.696,150.942 L84.696,156 L82.608,156 L82.608,147.234 L84.642,147.234 L84.642,148.404 C85.218,147.396 86.262,146.982 87.234,146.982 C89.376,146.982 90.402,148.53 90.402,150.456 L90.402,156 L88.314,156 L88.314,150.816 C88.314,149.736 87.828,148.872 86.514,148.872 C85.326,148.872 84.696,149.79 84.696,150.942 Z M96.756,148.89 C95.478,148.89 94.344,149.844 94.344,151.608 C94.344,153.372 95.478,154.362 96.792,154.362 C98.16,154.362 98.79,153.408 98.988,152.742 L100.824,153.408 C100.41,154.776 99.096,156.27 96.792,156.27 C94.218,156.27 92.256,154.272 92.256,151.608 C92.256,148.908 94.218,146.964 96.738,146.964 C99.096,146.964 100.392,148.44 100.752,149.844 L98.88,150.528 C98.682,149.754 98.088,148.89 96.756,148.89 Z M105.342,159.546 L103.11,159.546 L105.216,154.956 L101.472,147.234 L103.83,147.234 L106.35,152.778 L108.708,147.234 L110.922,147.234 L105.342,159.546 Z M23.964,179 L21.894,179 L21.894,170.234 L23.892,170.234 L23.892,171.35 C24.396,170.45 25.494,169.982 26.484,169.982 C27.636,169.982 28.644,170.504 29.112,171.53 C29.796,170.378 30.822,169.982 31.956,169.982 C33.54,169.982 35.052,170.99 35.052,173.312 L35.052,179 L33.036,179 L33.036,173.654 C33.036,172.628 32.514,171.854 31.344,171.854 C30.246,171.854 29.526,172.718 29.526,173.798 L29.526,179 L27.474,179 L27.474,173.654 C27.474,172.646 26.97,171.854 25.782,171.854 C24.666,171.854 23.964,172.682 23.964,173.798 L23.964,179 Z M39.066,173.654 L43.368,173.654 C43.332,172.628 42.648,171.71 41.208,171.71 C39.894,171.71 39.138,172.718 39.066,173.654 Z M43.602,175.94 L45.366,176.498 C44.898,178.028 43.512,179.27 41.406,179.27 C39.03,179.27 36.924,177.542 36.924,174.572 C36.924,171.8 38.976,169.964 41.19,169.964 C43.89,169.964 45.474,171.746 45.474,174.518 C45.474,174.86 45.438,175.148 45.42,175.184 L39.012,175.184 C39.066,176.516 40.11,177.47 41.406,177.47 C42.666,177.47 43.314,176.804 43.602,175.94 Z M46.698,176.624 L48.516,176.12 C48.588,176.912 49.182,177.614 50.298,177.614 C51.162,177.614 51.612,177.146 51.612,176.606 C51.612,176.138 51.288,175.778 50.586,175.634 L49.29,175.346 C47.742,175.004 46.932,173.996 46.932,172.79 C46.932,171.26 48.336,169.964 50.154,169.964 C52.602,169.964 53.394,171.548 53.538,172.412 L51.774,172.916 C51.702,172.412 51.324,171.602 50.154,171.602 C49.416,171.602 48.894,172.07 48.894,172.61 C48.894,173.078 49.236,173.42 49.776,173.528 L51.108,173.798 C52.764,174.158 53.628,175.166 53.628,176.462 C53.628,177.794 52.548,179.27 50.316,179.27 C47.778,179.27 46.806,177.614 46.698,176.624 Z M54.924,176.624 L56.742,176.12 C56.814,176.912 57.408,177.614 58.524,177.614 C59.388,177.614 59.838,177.146 59.838,176.606 C59.838,176.138 59.514,175.778 58.812,175.634 L57.516,175.346 C55.968,175.004 55.158,173.996 55.158,172.79 C55.158,171.26 56.562,169.964 58.38,169.964 C60.828,169.964 61.62,171.548 61.764,172.412 L60,172.916 C59.928,172.412 59.55,171.602 58.38,171.602 C57.642,171.602 57.12,172.07 57.12,172.61 C57.12,173.078 57.462,173.42 58.002,173.528 L59.334,173.798 C60.99,174.158 61.854,175.166 61.854,176.462 C61.854,177.794 60.774,179.27 58.542,179.27 C56.004,179.27 55.032,177.614 54.924,176.624 Z M63.384,176.624 C63.384,175.058 64.536,174.194 66.03,173.978 L68.28,173.636 C68.784,173.564 68.928,173.312 68.928,173.006 C68.928,172.268 68.424,171.674 67.272,171.674 C66.174,171.674 65.562,172.376 65.472,173.258 L63.564,172.826 C63.726,171.314 65.094,169.964 67.254,169.964 C69.954,169.964 70.98,171.494 70.98,173.24 L70.98,177.596 C70.98,178.388 71.07,178.91 71.088,179 L69.144,179 C69.126,178.946 69.054,178.586 69.054,177.884 C68.64,178.55 67.776,179.27 66.354,179.27 C64.518,179.27 63.384,178.01 63.384,176.624 Z M66.75,177.632 C67.92,177.632 68.928,177.074 68.928,175.364 L68.928,174.968 L66.642,175.31 C65.994,175.418 65.472,175.778 65.472,176.498 C65.472,177.092 65.922,177.632 66.75,177.632 Z M72.87,179.486 L74.796,178.982 C74.94,180.062 75.786,180.872 76.992,180.872 C78.648,180.872 79.476,180.026 79.476,178.244 L79.476,177.326 C79.098,178.01 78.216,178.604 76.938,178.604 C74.598,178.604 72.888,176.804 72.888,174.338 C72.888,171.998 74.526,170.072 76.938,170.072 C78.306,170.072 79.152,170.63 79.53,171.35 L79.53,170.234 L81.546,170.234 L81.546,178.172 C81.546,180.512 80.34,182.69 77.046,182.69 C74.724,182.69 73.104,181.25 72.87,179.486 Z M77.28,176.822 C78.612,176.822 79.53,175.85 79.53,174.338 C79.53,172.844 78.576,171.872 77.28,171.872 C75.948,171.872 74.994,172.844 74.994,174.338 C74.994,175.868 75.912,176.822 77.28,176.822 Z M86.172,179 L84.102,179 L84.102,170.234 L86.172,170.234 L86.172,179 Z M83.778,167.156 C83.778,166.4 84.39,165.788 85.128,165.788 C85.884,165.788 86.496,166.4 86.496,167.156 C86.496,167.912 85.884,168.506 85.128,168.506 C84.39,168.506 83.778,167.912 83.778,167.156 Z M90.96,173.942 L90.96,179 L88.872,179 L88.872,170.234 L90.906,170.234 L90.906,171.404 C91.482,170.396 92.526,169.982 93.498,169.982 C95.64,169.982 96.666,171.53 96.666,173.456 L96.666,179 L94.578,179 L94.578,173.816 C94.578,172.736 94.092,171.872 92.778,171.872 C91.59,171.872 90.96,172.79 90.96,173.942 Z M98.574,179.486 L100.5,178.982 C100.644,180.062 101.49,180.872 102.696,180.872 C104.352,180.872 105.18,180.026 105.18,178.244 L105.18,177.326 C104.802,178.01 103.92,178.604 102.642,178.604 C100.302,178.604 98.592,176.804 98.592,174.338 C98.592,171.998 100.23,170.072 102.642,170.072 C104.01,170.072 104.856,170.63 105.234,171.35 L105.234,170.234 L107.25,170.234 L107.25,178.172 C107.25,180.512 106.044,182.69 102.75,182.69 C100.428,182.69 98.808,181.25 98.574,179.486 Z M102.984,176.822 C104.316,176.822 105.234,175.85 105.234,174.338 C105.234,172.844 104.28,171.872 102.984,171.872 C101.652,171.872 100.698,172.844 100.698,174.338 C100.698,175.868 101.616,176.822 102.984,176.822 Z" id="Emergencymessaging" fill="#0A0A47" fill-rule="nonzero"></path>
            <path d="M30.21,375 L28.014,375 L28.014,362.238 L30.21,362.238 L30.21,375 Z M35.43,373.02 L37.698,373.02 C39.912,373.02 41.748,371.598 41.748,368.646 C41.748,365.658 39.93,364.218 37.716,364.218 L35.43,364.218 L35.43,373.02 Z M37.77,375 L33.27,375 L33.27,362.238 L37.788,362.238 C41.262,362.238 43.998,364.542 43.998,368.646 C43.998,372.732 41.226,375 37.77,375 Z M64.77,375 L62.628,375 L62.628,365.604 L58.65,375 L56.778,375 L52.836,365.64 L52.836,375 L50.73,375 L50.73,362.238 L53.61,362.238 L57.75,371.976 L61.836,362.238 L64.77,362.238 L64.77,375 Z M67.11,372.624 C67.11,371.058 68.262,370.194 69.756,369.978 L72.006,369.636 C72.51,369.564 72.654,369.312 72.654,369.006 C72.654,368.268 72.15,367.674 70.998,367.674 C69.9,367.674 69.288,368.376 69.198,369.258 L67.29,368.826 C67.452,367.314 68.82,365.964 70.98,365.964 C73.68,365.964 74.706,367.494 74.706,369.24 L74.706,373.596 C74.706,374.388 74.796,374.91 74.814,375 L72.87,375 C72.852,374.946 72.78,374.586 72.78,373.884 C72.366,374.55 71.502,375.27 70.08,375.27 C68.244,375.27 67.11,374.01 67.11,372.624 Z M70.476,373.632 C71.646,373.632 72.654,373.074 72.654,371.364 L72.654,370.968 L70.368,371.31 C69.72,371.418 69.198,371.778 69.198,372.498 C69.198,373.092 69.648,373.632 70.476,373.632 Z M79.872,363.552 L79.872,366.234 L81.69,366.234 L81.69,368.088 L79.872,368.088 L79.872,372.156 C79.872,372.93 80.214,373.254 80.988,373.254 C81.276,373.254 81.618,373.2 81.708,373.182 L81.708,374.91 C81.582,374.964 81.186,375.108 80.43,375.108 C78.81,375.108 77.802,374.136 77.802,372.498 L77.802,368.088 L76.182,368.088 L76.182,366.234 L76.632,366.234 C77.568,366.234 77.982,365.64 77.982,364.866 L77.982,363.552 L79.872,363.552 Z M87.612,367.89 C86.334,367.89 85.2,368.844 85.2,370.608 C85.2,372.372 86.334,373.362 87.648,373.362 C89.016,373.362 89.646,372.408 89.844,371.742 L91.68,372.408 C91.266,373.776 89.952,375.27 87.648,375.27 C85.074,375.27 83.112,373.272 83.112,370.608 C83.112,367.908 85.074,365.964 87.594,365.964 C89.952,365.964 91.248,367.44 91.608,368.844 L89.736,369.528 C89.538,368.754 88.944,367.89 87.612,367.89 Z M95.622,369.852 L95.622,375 L93.534,375 L93.534,361.968 L95.622,361.968 L95.622,367.08 C96.216,366.306 97.206,365.982 98.124,365.982 C100.284,365.982 101.328,367.53 101.328,369.456 L101.328,375 L99.24,375 L99.24,369.816 C99.24,368.736 98.754,367.872 97.44,367.872 C96.288,367.872 95.658,368.736 95.622,369.852 Z" id="IDMatch" fill="#0A0A47" fill-rule="nonzero"></path>
            <path d="M223.787,371.634 L226.289,362.238 L228.521,362.238 L224.939,375 L222.707,375 L219.611,365.352 L216.515,375 L214.301,375 L210.683,362.238 L212.951,362.238 L215.507,371.562 L218.495,362.238 L220.745,362.238 L223.787,371.634 Z M229.565,372.624 C229.565,371.058 230.717,370.194 232.211,369.978 L234.461,369.636 C234.965,369.564 235.109,369.312 235.109,369.006 C235.109,368.268 234.605,367.674 233.453,367.674 C232.355,367.674 231.743,368.376 231.653,369.258 L229.745,368.826 C229.907,367.314 231.275,365.964 233.435,365.964 C236.135,365.964 237.161,367.494 237.161,369.24 L237.161,373.596 C237.161,374.388 237.251,374.91 237.269,375 L235.325,375 C235.307,374.946 235.235,374.586 235.235,373.884 C234.821,374.55 233.957,375.27 232.535,375.27 C230.699,375.27 229.565,374.01 229.565,372.624 Z M232.931,373.632 C234.101,373.632 235.109,373.074 235.109,371.364 L235.109,370.968 L232.823,371.31 C232.175,371.418 231.653,371.778 231.653,372.498 C231.653,373.092 232.103,373.632 232.931,373.632 Z M242.327,363.552 L242.327,366.234 L244.145,366.234 L244.145,368.088 L242.327,368.088 L242.327,372.156 C242.327,372.93 242.669,373.254 243.443,373.254 C243.731,373.254 244.073,373.2 244.163,373.182 L244.163,374.91 C244.037,374.964 243.641,375.108 242.885,375.108 C241.265,375.108 240.257,374.136 240.257,372.498 L240.257,368.088 L238.637,368.088 L238.637,366.234 L239.087,366.234 C240.023,366.234 240.437,365.64 240.437,364.866 L240.437,363.552 L242.327,363.552 Z M250.067,367.89 C248.789,367.89 247.655,368.844 247.655,370.608 C247.655,372.372 248.789,373.362 250.103,373.362 C251.471,373.362 252.101,372.408 252.299,371.742 L254.135,372.408 C253.721,373.776 252.407,375.27 250.103,375.27 C247.529,375.27 245.567,373.272 245.567,370.608 C245.567,367.908 247.529,365.964 250.049,365.964 C252.407,365.964 253.703,367.44 254.063,368.844 L252.191,369.528 C251.993,368.754 251.399,367.89 250.067,367.89 Z M258.077,369.852 L258.077,375 L255.989,375 L255.989,361.968 L258.077,361.968 L258.077,367.08 C258.671,366.306 259.661,365.982 260.579,365.982 C262.739,365.982 263.783,367.53 263.783,369.456 L263.783,375 L261.695,375 L261.695,369.816 C261.695,368.736 261.209,367.872 259.895,367.872 C258.743,367.872 258.113,368.736 258.077,369.852 Z M268.409,375 L266.321,375 L266.321,361.968 L268.409,361.968 L268.409,375 Z M273.179,375 L271.109,375 L271.109,366.234 L273.179,366.234 L273.179,375 Z M270.785,363.156 C270.785,362.4 271.397,361.788 272.135,361.788 C272.891,361.788 273.503,362.4 273.503,363.156 C273.503,363.912 272.891,364.506 272.135,364.506 C271.397,364.506 270.785,363.912 270.785,363.156 Z M275.105,372.624 L276.923,372.12 C276.995,372.912 277.589,373.614 278.705,373.614 C279.569,373.614 280.019,373.146 280.019,372.606 C280.019,372.138 279.695,371.778 278.993,371.634 L277.697,371.346 C276.149,371.004 275.339,369.996 275.339,368.79 C275.339,367.26 276.743,365.964 278.561,365.964 C281.009,365.964 281.801,367.548 281.945,368.412 L280.181,368.916 C280.109,368.412 279.731,367.602 278.561,367.602 C277.823,367.602 277.301,368.07 277.301,368.61 C277.301,369.078 277.643,369.42 278.183,369.528 L279.515,369.798 C281.171,370.158 282.035,371.166 282.035,372.462 C282.035,373.794 280.955,375.27 278.723,375.27 C276.185,375.27 275.213,373.614 275.105,372.624 Z M286.751,363.552 L286.751,366.234 L288.569,366.234 L288.569,368.088 L286.751,368.088 L286.751,372.156 C286.751,372.93 287.093,373.254 287.867,373.254 C288.155,373.254 288.497,373.2 288.587,373.182 L288.587,374.91 C288.461,374.964 288.065,375.108 287.309,375.108 C285.689,375.108 284.681,374.136 284.681,372.498 L284.681,368.088 L283.061,368.088 L283.061,366.234 L283.511,366.234 C284.447,366.234 284.861,365.64 284.861,364.866 L284.861,363.552 L286.751,363.552 Z M289.901,372.624 L291.719,372.12 C291.791,372.912 292.385,373.614 293.501,373.614 C294.365,373.614 294.815,373.146 294.815,372.606 C294.815,372.138 294.491,371.778 293.789,371.634 L292.493,371.346 C290.945,371.004 290.135,369.996 290.135,368.79 C290.135,367.26 291.539,365.964 293.357,365.964 C295.805,365.964 296.597,367.548 296.741,368.412 L294.977,368.916 C294.905,368.412 294.527,367.602 293.357,367.602 C292.619,367.602 292.097,368.07 292.097,368.61 C292.097,369.078 292.439,369.42 292.979,369.528 L294.311,369.798 C295.967,370.158 296.831,371.166 296.831,372.462 C296.831,373.794 295.751,375.27 293.519,375.27 C290.981,375.27 290.009,373.614 289.901,372.624 Z" id="Watchlists" fill="#0A0A47" fill-rule="nonzero"></path>
            <path d="M202.677,156 L201.471,152.796 L196.071,152.796 L194.883,156 L192.597,156 L197.565,143.238 L200.067,143.238 L205.035,156 L202.677,156 Z M198.771,145.578 L196.827,150.798 L200.715,150.798 L198.771,145.578 Z M210.381,148.89 C209.103,148.89 207.969,149.844 207.969,151.608 C207.969,153.372 209.103,154.362 210.417,154.362 C211.785,154.362 212.415,153.408 212.613,152.742 L214.449,153.408 C214.035,154.776 212.721,156.27 210.417,156.27 C207.843,156.27 205.881,154.272 205.881,151.608 C205.881,148.908 207.843,146.964 210.363,146.964 C212.721,146.964 214.017,148.44 214.377,149.844 L212.505,150.528 C212.307,149.754 211.713,148.89 210.381,148.89 Z M220.119,148.89 C218.841,148.89 217.707,149.844 217.707,151.608 C217.707,153.372 218.841,154.362 220.155,154.362 C221.523,154.362 222.153,153.408 222.351,152.742 L224.187,153.408 C223.773,154.776 222.459,156.27 220.155,156.27 C217.581,156.27 215.619,154.272 215.619,151.608 C215.619,148.908 217.581,146.964 220.101,146.964 C222.459,146.964 223.755,148.44 224.115,149.844 L222.243,150.528 C222.045,149.754 221.451,148.89 220.119,148.89 Z M227.499,150.654 L231.801,150.654 C231.765,149.628 231.081,148.71 229.641,148.71 C228.327,148.71 227.571,149.718 227.499,150.654 Z M232.035,152.94 L233.799,153.498 C233.331,155.028 231.945,156.27 229.839,156.27 C227.463,156.27 225.357,154.542 225.357,151.572 C225.357,148.8 227.409,146.964 229.623,146.964 C232.323,146.964 233.907,148.746 233.907,151.518 C233.907,151.86 233.871,152.148 233.853,152.184 L227.445,152.184 C227.499,153.516 228.543,154.47 229.839,154.47 C231.099,154.47 231.747,153.804 232.035,152.94 Z M235.131,153.624 L236.949,153.12 C237.021,153.912 237.615,154.614 238.731,154.614 C239.595,154.614 240.045,154.146 240.045,153.606 C240.045,153.138 239.721,152.778 239.019,152.634 L237.723,152.346 C236.175,152.004 235.365,150.996 235.365,149.79 C235.365,148.26 236.769,146.964 238.587,146.964 C241.035,146.964 241.827,148.548 241.971,149.412 L240.207,149.916 C240.135,149.412 239.757,148.602 238.587,148.602 C237.849,148.602 237.327,149.07 237.327,149.61 C237.327,150.078 237.669,150.42 238.209,150.528 L239.541,150.798 C241.197,151.158 242.061,152.166 242.061,153.462 C242.061,154.794 240.981,156.27 238.749,156.27 C236.211,156.27 235.239,154.614 235.131,153.624 Z M243.357,153.624 L245.175,153.12 C245.247,153.912 245.841,154.614 246.957,154.614 C247.821,154.614 248.271,154.146 248.271,153.606 C248.271,153.138 247.947,152.778 247.245,152.634 L245.949,152.346 C244.401,152.004 243.591,150.996 243.591,149.79 C243.591,148.26 244.995,146.964 246.813,146.964 C249.261,146.964 250.053,148.548 250.197,149.412 L248.433,149.916 C248.361,149.412 247.983,148.602 246.813,148.602 C246.075,148.602 245.553,149.07 245.553,149.61 C245.553,150.078 245.895,150.42 246.435,150.528 L247.767,150.798 C249.423,151.158 250.287,152.166 250.287,153.462 C250.287,154.794 249.207,156.27 246.975,156.27 C244.437,156.27 243.465,154.614 243.357,153.624 Z M260.637,148.89 C259.359,148.89 258.225,149.844 258.225,151.608 C258.225,153.372 259.359,154.362 260.673,154.362 C262.041,154.362 262.671,153.408 262.869,152.742 L264.705,153.408 C264.291,154.776 262.977,156.27 260.673,156.27 C258.099,156.27 256.137,154.272 256.137,151.608 C256.137,148.908 258.099,146.964 260.619,146.964 C262.977,146.964 264.273,148.44 264.633,149.844 L262.761,150.528 C262.563,149.754 261.969,148.89 260.637,148.89 Z M270.411,154.398 C271.707,154.398 272.859,153.444 272.859,151.608 C272.859,149.79 271.707,148.854 270.411,148.854 C269.133,148.854 267.963,149.79 267.963,151.608 C267.963,153.426 269.133,154.398 270.411,154.398 Z M270.411,146.964 C273.039,146.964 274.965,148.926 274.965,151.608 C274.965,154.308 273.039,156.27 270.411,156.27 C267.801,156.27 265.875,154.308 265.875,151.608 C265.875,148.926 267.801,146.964 270.411,146.964 Z M279.069,150.942 L279.069,156 L276.981,156 L276.981,147.234 L279.015,147.234 L279.015,148.404 C279.591,147.396 280.635,146.982 281.607,146.982 C283.749,146.982 284.775,148.53 284.775,150.456 L284.775,156 L282.687,156 L282.687,150.816 C282.687,149.736 282.201,148.872 280.887,148.872 C279.699,148.872 279.069,149.79 279.069,150.942 Z M289.959,144.552 L289.959,147.234 L291.777,147.234 L291.777,149.088 L289.959,149.088 L289.959,153.156 C289.959,153.93 290.301,154.254 291.075,154.254 C291.363,154.254 291.705,154.2 291.795,154.182 L291.795,155.91 C291.669,155.964 291.273,156.108 290.517,156.108 C288.897,156.108 287.889,155.136 287.889,153.498 L287.889,149.088 L286.269,149.088 L286.269,147.234 L286.719,147.234 C287.655,147.234 288.069,146.64 288.069,145.866 L288.069,144.552 L289.959,144.552 Z M299.013,147.18 L299.013,149.304 C298.779,149.268 298.545,149.25 298.329,149.25 C296.709,149.25 295.971,150.186 295.971,151.824 L295.971,156 L293.883,156 L293.883,147.234 L295.917,147.234 L295.917,148.638 C296.331,147.684 297.303,147.126 298.455,147.126 C298.707,147.126 298.923,147.162 299.013,147.18 Z M304.575,154.398 C305.871,154.398 307.023,153.444 307.023,151.608 C307.023,149.79 305.871,148.854 304.575,148.854 C303.297,148.854 302.127,149.79 302.127,151.608 C302.127,153.426 303.297,154.398 304.575,154.398 Z M304.575,146.964 C307.203,146.964 309.129,148.926 309.129,151.608 C309.129,154.308 307.203,156.27 304.575,156.27 C301.965,156.27 300.039,154.308 300.039,151.608 C300.039,148.926 301.965,146.964 304.575,146.964 Z M313.233,156 L311.145,156 L311.145,142.968 L313.233,142.968 L313.233,156 Z M207.483,179 L205.413,179 L205.413,170.234 L207.483,170.234 L207.483,179 Z M205.089,167.156 C205.089,166.4 205.701,165.788 206.439,165.788 C207.195,165.788 207.807,166.4 207.807,167.156 C207.807,167.912 207.195,168.506 206.439,168.506 C205.701,168.506 205.089,167.912 205.089,167.156 Z M212.271,173.942 L212.271,179 L210.183,179 L210.183,170.234 L212.217,170.234 L212.217,171.404 C212.793,170.396 213.837,169.982 214.809,169.982 C216.951,169.982 217.977,171.53 217.977,173.456 L217.977,179 L215.889,179 L215.889,173.816 C215.889,172.736 215.403,171.872 214.089,171.872 C212.901,171.872 212.271,172.79 212.271,173.942 Z M223.161,167.552 L223.161,170.234 L224.979,170.234 L224.979,172.088 L223.161,172.088 L223.161,176.156 C223.161,176.93 223.503,177.254 224.277,177.254 C224.565,177.254 224.907,177.2 224.997,177.182 L224.997,178.91 C224.871,178.964 224.475,179.108 223.719,179.108 C222.099,179.108 221.091,178.136 221.091,176.498 L221.091,172.088 L219.471,172.088 L219.471,170.234 L219.921,170.234 C220.857,170.234 221.271,169.64 221.271,168.866 L221.271,167.552 L223.161,167.552 Z M228.543,173.654 L232.845,173.654 C232.809,172.628 232.125,171.71 230.685,171.71 C229.371,171.71 228.615,172.718 228.543,173.654 Z M233.079,175.94 L234.843,176.498 C234.375,178.028 232.989,179.27 230.883,179.27 C228.507,179.27 226.401,177.542 226.401,174.572 C226.401,171.8 228.453,169.964 230.667,169.964 C233.367,169.964 234.951,171.746 234.951,174.518 C234.951,174.86 234.915,175.148 234.897,175.184 L228.489,175.184 C228.543,176.516 229.587,177.47 230.883,177.47 C232.143,177.47 232.791,176.804 233.079,175.94 Z M236.319,179.486 L238.245,178.982 C238.389,180.062 239.235,180.872 240.441,180.872 C242.097,180.872 242.925,180.026 242.925,178.244 L242.925,177.326 C242.547,178.01 241.665,178.604 240.387,178.604 C238.047,178.604 236.337,176.804 236.337,174.338 C236.337,171.998 237.975,170.072 240.387,170.072 C241.755,170.072 242.601,170.63 242.979,171.35 L242.979,170.234 L244.995,170.234 L244.995,178.172 C244.995,180.512 243.789,182.69 240.495,182.69 C238.173,182.69 236.553,181.25 236.319,179.486 Z M240.729,176.822 C242.061,176.822 242.979,175.85 242.979,174.338 C242.979,172.844 242.025,171.872 240.729,171.872 C239.397,171.872 238.443,172.844 238.443,174.338 C238.443,175.868 239.361,176.822 240.729,176.822 Z M252.681,170.18 L252.681,172.304 C252.447,172.268 252.213,172.25 251.997,172.25 C250.377,172.25 249.639,173.186 249.639,174.824 L249.639,179 L247.551,179 L247.551,170.234 L249.585,170.234 L249.585,171.638 C249.999,170.684 250.971,170.126 252.123,170.126 C252.375,170.126 252.591,170.162 252.681,170.18 Z M253.851,176.624 C253.851,175.058 255.003,174.194 256.497,173.978 L258.747,173.636 C259.251,173.564 259.395,173.312 259.395,173.006 C259.395,172.268 258.891,171.674 257.739,171.674 C256.641,171.674 256.029,172.376 255.939,173.258 L254.031,172.826 C254.193,171.314 255.561,169.964 257.721,169.964 C260.421,169.964 261.447,171.494 261.447,173.24 L261.447,177.596 C261.447,178.388 261.537,178.91 261.555,179 L259.611,179 C259.593,178.946 259.521,178.586 259.521,177.884 C259.107,178.55 258.243,179.27 256.821,179.27 C254.985,179.27 253.851,178.01 253.851,176.624 Z M257.217,177.632 C258.387,177.632 259.395,177.074 259.395,175.364 L259.395,174.968 L257.109,175.31 C256.461,175.418 255.939,175.778 255.939,176.498 C255.939,177.092 256.389,177.632 257.217,177.632 Z M266.613,167.552 L266.613,170.234 L268.431,170.234 L268.431,172.088 L266.613,172.088 L266.613,176.156 C266.613,176.93 266.955,177.254 267.729,177.254 C268.017,177.254 268.359,177.2 268.449,177.182 L268.449,178.91 C268.323,178.964 267.927,179.108 267.171,179.108 C265.551,179.108 264.543,178.136 264.543,176.498 L264.543,172.088 L262.923,172.088 L262.923,170.234 L263.373,170.234 C264.309,170.234 264.723,169.64 264.723,168.866 L264.723,167.552 L266.613,167.552 Z M272.607,179 L270.537,179 L270.537,170.234 L272.607,170.234 L272.607,179 Z M270.213,167.156 C270.213,166.4 270.825,165.788 271.563,165.788 C272.319,165.788 272.931,166.4 272.931,167.156 C272.931,167.912 272.319,168.506 271.563,168.506 C270.825,168.506 270.213,167.912 270.213,167.156 Z M279.159,177.398 C280.455,177.398 281.607,176.444 281.607,174.608 C281.607,172.79 280.455,171.854 279.159,171.854 C277.881,171.854 276.711,172.79 276.711,174.608 C276.711,176.426 277.881,177.398 279.159,177.398 Z M279.159,169.964 C281.787,169.964 283.713,171.926 283.713,174.608 C283.713,177.308 281.787,179.27 279.159,179.27 C276.549,179.27 274.623,177.308 274.623,174.608 C274.623,171.926 276.549,169.964 279.159,169.964 Z M287.817,173.942 L287.817,179 L285.729,179 L285.729,170.234 L287.763,170.234 L287.763,171.404 C288.339,170.396 289.383,169.982 290.355,169.982 C292.497,169.982 293.523,171.53 293.523,173.456 L293.523,179 L291.435,179 L291.435,173.816 C291.435,172.736 290.949,171.872 289.635,171.872 C288.447,171.872 287.817,172.79 287.817,173.942 Z M295.287,176.624 L297.105,176.12 C297.177,176.912 297.771,177.614 298.887,177.614 C299.751,177.614 300.201,177.146 300.201,176.606 C300.201,176.138 299.877,175.778 299.175,175.634 L297.879,175.346 C296.331,175.004 295.521,173.996 295.521,172.79 C295.521,171.26 296.925,169.964 298.743,169.964 C301.191,169.964 301.983,171.548 302.127,172.412 L300.363,172.916 C300.291,172.412 299.913,171.602 298.743,171.602 C298.005,171.602 297.483,172.07 297.483,172.61 C297.483,173.078 297.825,173.42 298.365,173.528 L299.697,173.798 C301.353,174.158 302.217,175.166 302.217,176.462 C302.217,177.794 301.137,179.27 298.905,179.27 C296.367,179.27 295.395,177.614 295.287,176.624 Z" id="Accesscontrolintegrations" fill="#0A0A47" fill-rule="nonzero"></path>
        </g>
    </g>
</svg>